<svg width="1307" height="1374" viewBox="0 0 1307 1374" fill="none" xmlns="http://www.w3.org/2000/svg">
<path d="M1043.48 360.187C1047.68 367.806 1054.07 378.842 1059.88 390.171C1062.86 395.981 1066.62 400.842 1071.65 404.953C1080.54 412.262 1089.27 419.79 1098.04 427.263C1115.16 441.825 1127.87 459.823 1138.96 479.155C1153.94 505.302 1165.74 532.856 1176.17 561.049C1192.31 604.719 1193.17 648.845 1179.66 693.264C1172.04 718.296 1162.65 742.634 1147.93 764.506C1145.21 768.544 1145.55 772.381 1146.25 776.62C1150.28 801.068 1151.42 825.57 1145.99 849.908C1136.05 894.546 1116.33 934.434 1086.84 969.443C1065.91 994.292 1041.56 1015.05 1013.12 1030.8C1005.47 1035.04 999.657 1040.5 994.981 1047.99C974.23 1081.19 947.689 1109.53 918.81 1135.62C867.883 1181.65 808.991 1213.01 742.099 1228.81C706.059 1237.33 669.855 1236.06 633.724 1228.88C622.417 1226.64 611.091 1224.5 599.839 1221.96C592.825 1220.37 587.089 1221.63 581.262 1226.16C558.758 1243.67 532.856 1253.59 505.054 1258.9C481.271 1263.45 457.944 1261.59 435.129 1253.51C394.76 1239.23 357.442 1219.44 324.398 1191.92C318.589 1187.08 312.524 1182.42 306.095 1178.49C271.297 1157.17 243.276 1129.07 222.032 1094.31C214.451 1081.92 208.241 1068.69 200.934 1056.12C198.103 1051.25 194.322 1046.75 190.321 1042.77C178.722 1031.22 166.429 1020.37 155.085 1008.58C137.787 990.601 125.584 969.351 117.602 945.744C107.208 914.974 97.2347 884.095 92.3576 851.808C91.3712 845.304 88.9418 838.909 86.421 832.769C74.8948 804.667 64.2637 776.291 57.5782 746.581C49.2121 709.453 49.1206 672.197 53.3037 634.41C61.2496 562.365 87.6264 497.755 128.288 438.445C140.125 421.178 155.395 408.26 175.89 402.377C180.366 401.097 182.96 398.028 185.408 394.447C195.838 379.153 206.469 364.006 216.826 348.676C255.076 292.088 304.615 246.774 359.433 207.032C375.288 195.54 393.372 187.116 410.36 177.122C418.178 172.535 426.636 168.552 433.303 162.614C463.169 136.01 498.588 121.575 536.819 111.983C594.633 97.4747 649.926 105.058 703.831 128.5C724.746 137.581 744.93 148.033 763.818 160.841C771.673 166.158 780.166 169.886 788.971 173.339C805.338 179.734 821.906 185.983 837.432 194.096C865.362 208.713 893.511 223.276 919.924 240.379C967.709 271.258 1009.38 309.044 1043.48 360.187ZM636.208 994.859C637.632 995.206 639.149 996.046 640.464 995.809C664.612 991.369 688.761 986.947 712.836 982.214C722.536 980.296 730.902 975.454 738.336 968.876C788.807 924.147 833.267 874.393 867.371 815.868C868.504 813.913 869.234 811.72 870.257 809.418C863.937 806.768 862.11 811.154 859.882 814.57C840.063 844.792 818.325 873.515 794.743 900.923C752.383 950.184 697.602 978.195 636.08 995.114C609.082 1000.38 581.993 1000.8 554.775 996.814C531.084 993.342 507.593 989.048 484.76 981.63C482.458 980.881 480.01 980.552 477.636 980.022C491.756 991.076 507.958 996.905 524.014 1003.21C540.253 1009.59 556.328 1011.8 573.681 1007.98C591.089 1004.14 608.899 1002.2 626.472 999.098C629.888 998.513 632.974 996.32 636.208 994.859ZM479.517 240.251C479.463 241.274 479.408 242.297 479.353 243.32C481.161 243.101 482.988 242.553 484.76 242.736C514.297 245.86 543.834 249.149 573.371 252.2C577.225 252.602 581.28 252.401 585.098 251.707C639.532 241.767 693.145 245.476 746.209 260.569C776.604 269.211 806.306 279.645 835.039 292.819C838.601 294.445 842.09 296.729 846.492 296.053C843.351 293.056 839.971 290.59 836.409 288.47C807.091 271.112 776.696 255.91 743.725 246.847C717.713 239.703 691.446 233.49 665.179 227.314C604.698 213.08 545.313 219.896 486.586 237.291C484.139 238.022 481.855 239.246 479.517 240.251ZM946.575 1066.63C945.515 1066.25 944.821 1065.73 944.438 1065.9C929.788 1072.28 914.426 1077.15 901.73 1087.57C878.24 1106.81 853.817 1124.84 826.6 1138.44C802.506 1150.48 777.974 1161.72 753.296 1172.5C736.089 1180.01 718.279 1186.11 700.78 1192.91C698.734 1193.71 696.835 1194.9 692.962 1196.85C696.853 1197.27 698.625 1197.8 700.287 1197.6C714.389 1195.83 728.691 1194.9 742.519 1191.87C783.491 1182.86 820.956 1165.19 856.777 1143.76C889.328 1124.28 916.672 1098.59 942.903 1071.58C944.292 1070.17 945.296 1068.38 946.575 1066.63ZM85.0327 704.538C85.7085 704.611 86.3845 704.666 87.0604 704.739C87.3892 701.779 87.517 698.764 88.0833 695.84C90.4945 683.342 93.0699 670.863 95.5359 658.383C98.7142 642.34 102.13 626.352 104.907 610.237C108.085 591.709 110.368 573.035 113.601 554.508C121.292 510.29 138.937 469.873 161.533 431.411C163.214 428.542 165.844 425.929 165.826 421.635C148.436 433.658 116.542 492.036 101.326 538.885C84.7404 589.882 75.9907 678.957 85.0327 704.538ZM870.239 564.1C869.618 564.466 868.997 564.85 868.394 565.215C868.887 567.499 869.271 569.838 869.91 572.085C880.523 609.561 887.282 647.749 891.008 686.485C892.049 697.339 893.346 708.411 892.287 719.155C891.227 729.954 897.036 734.759 904.178 739.93C904.891 738.907 905.42 738.468 905.548 737.938C913.311 706.091 916.252 673.932 911.229 641.372C910.407 636.055 908.8 630.592 906.261 625.877C896.488 607.715 886.259 589.827 876.066 571.902C874.477 569.089 872.193 566.677 870.239 564.1ZM1125.42 810.094C1124.53 809.948 1123.61 809.783 1122.72 809.637C1120.23 815.776 1117.49 821.806 1115.32 828.055C1101.66 867.193 1080.8 902.129 1053.91 933.557C1051.15 936.772 1048.5 940.098 1045.87 943.423C1040.04 950.805 1030.31 973.992 1028.94 983.658C1029.5 983.621 1030.18 983.786 1030.6 983.53C1031.88 982.726 1033.09 981.813 1034.27 980.862C1073.51 949.124 1100.82 909.127 1116.97 861.401C1121.55 847.844 1124.67 833.975 1125.51 819.65C1125.7 816.471 1125.46 813.273 1125.42 810.094ZM238.928 471.407C239.568 471.773 240.189 472.138 240.828 472.504C247.569 468.575 249.669 460.755 254.4 455.146C259.095 449.591 263.259 443.598 267.899 438.007C272.74 432.178 277.8 426.532 282.859 420.904C287.737 415.514 292.742 410.233 297.71 404.916C302.88 399.38 308.031 393.825 313.292 388.38C318.552 382.935 323.832 377.49 329.293 372.265C334.554 367.24 339.961 362.38 345.514 357.665C351.286 352.769 357.204 348.036 363.214 343.432C368.986 339.01 375.051 334.972 380.805 330.532C386.467 326.165 393.701 323.735 397.719 316.828C385.152 319.459 373.023 323.077 360.858 326.548C345.222 331.007 332.764 339.814 322.023 352.074C291.116 387.321 266.639 427.098 240.664 465.853C239.604 467.388 239.476 469.544 238.928 471.407ZM754.173 814.589C748.62 812.579 746.556 816.142 744.145 818.517C728.235 834.176 709.895 845.468 687.92 850.328C682.66 851.498 678.513 854.202 675.061 858.295C669.964 864.306 664.795 870.263 659.425 876.019C645.798 890.618 629.248 900.339 609.685 904.45C599.912 906.496 589.975 907.739 580.111 909.42C578.357 909.712 576.677 910.424 574.942 910.954C609.319 917.24 639.478 905.418 669.38 891.33C705.365 874.356 730.883 846.345 754.173 814.589ZM287.061 1118.92C286.677 1119.45 286.312 1119.98 285.928 1120.5C286.842 1121.65 287.609 1122.94 288.668 1123.95C305.802 1140.19 322.845 1156.49 340.216 1172.48C343.212 1175.24 347.359 1177.14 351.286 1178.44C363.927 1182.62 376.603 1186.84 389.5 1190.09C408.57 1194.9 427.823 1199.03 447.076 1203.08C453.378 1204.42 459.917 1204.66 466.347 1203.03C435.824 1190.35 405.008 1178.93 374.777 1166.14C344.144 1153.18 315.301 1136.56 287.061 1118.92ZM1082.28 440.071C1081.86 440.4 1081.42 440.711 1081 441.04C1083.87 451.838 1086.46 462.728 1089.77 473.381C1090.99 477.309 1093.84 480.726 1096.09 484.307C1100.89 492 1106.08 499.473 1110.55 507.348C1114.59 514.438 1117.51 522.185 1121.62 529.22C1129.84 543.252 1135.25 558.253 1138.48 574.113C1143.32 597.867 1148.06 621.62 1152.86 645.374C1153.08 646.452 1153.55 647.493 1154.54 650.38C1155.58 646.707 1156.37 644.862 1156.6 642.962C1158.32 629.349 1157.92 615.755 1155.85 602.197C1152.11 577.421 1142.89 554.325 1134.15 531.065C1122.68 500.478 1106.72 472.412 1087.54 446.083C1085.99 443.945 1084.05 442.063 1082.28 440.071ZM878.386 345.551C878.112 345.99 877.838 346.428 877.564 346.867C880.779 349.388 884.085 351.818 887.209 354.45C903.868 368.482 920.801 382.241 937.021 396.767C947.196 405.885 953.26 417.67 954.977 431.593C955.471 435.649 957.133 439.852 959.307 443.342C962.978 449.244 967.271 454.78 971.71 460.134C973.609 462.436 976.514 463.934 979.272 466.036C981.683 459.147 981.628 459.165 979.564 452.843C971.819 428.999 958.338 408.004 946.63 386.133C943.195 379.701 938.464 375.06 931.98 371.844C917.878 364.828 903.922 357.538 889.839 350.485C886.149 348.603 882.222 347.177 878.386 345.551ZM478.951 880.806C477.124 873.113 474.622 866.152 474.019 859.044C473.471 852.521 471.06 848.666 465.361 845.596C447.88 836.168 432.737 823.761 419.621 808.778C416.315 804.996 411.84 802.164 407.657 799.259C402.944 795.988 397.975 793.065 393.062 790.105C391.801 789.337 390.303 788.99 388.093 788.131C400.788 812.086 462.73 875.105 478.951 880.806ZM359.214 743.457C359.415 741.008 359.707 740.095 359.506 739.309C353.277 714.861 353.441 690.249 357.095 665.436C357.825 660.521 357.022 655.167 355.944 650.234C353.405 638.723 350.281 627.339 347.322 615.938C346.957 614.549 346.044 613.325 344.491 610.237C334.408 657.287 335.76 700.81 359.214 743.457ZM459.954 395.945C464.685 395.196 467.881 394.794 471.042 394.154C501.291 387.942 531.577 382.058 562.685 382.351C565.26 382.369 568.366 381.729 570.32 380.213C576.914 375.115 583.107 369.506 589.5 364.024C573.371 357.611 485.582 378.879 459.954 395.945ZM542.318 1220.7C533.531 1217.46 524.818 1215.31 515.685 1217.94C486.568 1226.36 457.232 1227.48 427.659 1220.44C425.978 1220.04 424.115 1220.37 420.389 1220.37C462.511 1242.92 502.46 1239.76 542.318 1220.7ZM309.821 831.837C309.894 832.678 309.748 833.646 310.095 834.359C316.945 848.52 323.503 862.845 330.937 876.695C333.056 880.66 337.239 884.131 341.294 886.342C357.661 895.277 371.927 906.77 384.969 920.017C391.326 926.467 398.286 932.314 405.136 938.252C407.2 940.043 409.794 941.194 412.15 942.638C374.576 908.725 341.477 871.14 309.821 831.837ZM804.79 696.937C806.215 674.937 791.528 601.466 783.107 591.106C790.542 626.279 790.998 660.32 788.953 694.981C794.78 695.694 799.492 696.279 804.79 696.937ZM686.642 144.981C656.867 124.316 564.767 121.027 538.811 138.568C562.849 137.508 587.6 135.827 612.37 135.48C637.468 135.133 662.11 139.884 686.642 144.981ZM730.737 457.704C726.865 450.395 723.759 444.31 720.38 438.372C719.722 437.203 718.152 436.052 716.818 435.814C708.269 434.206 699.666 433.658 688.998 434.773C694.167 440.144 698.826 443.671 701.748 448.294C708.452 458.836 718.06 459.275 730.737 457.704ZM367.744 549.647C375.416 545.262 382.394 534.482 386.723 520.76C378.85 528.744 372.658 537.862 367.744 549.647ZM877.326 786.267C885.199 786.669 886.916 784.824 888.469 775.195C880.194 775.469 880.048 775.615 877.326 786.267ZM772.403 562.913C771.179 553.21 770.504 552.333 763.124 550.342C766.649 555.129 769.535 559.021 772.403 562.913ZM988.899 1007.76C988.351 1007.41 987.802 1007.08 987.254 1006.74C986.652 1007.8 986.031 1008.84 985.428 1009.88C985.811 1010.13 986.177 1010.39 986.56 1010.65C987.346 1009.7 988.131 1008.73 988.899 1007.76Z" fill="black"/>
<path d="M1070.62 1122.68C1059.81 1129.68 1048.67 1129.73 1040.1 1123.78C1031.63 1117.86 1027.92 1107.28 1030.49 1096.32C1032.5 1087.76 1037.23 1080.64 1043.28 1074.61C1059.59 1058.33 1076.1 1042.25 1092.78 1026.35C1107.27 1012.54 1122.81 999.785 1136.58 985.314C1163.36 957.157 1181.37 924.45 1185.17 884.874C1186.62 869.799 1189.23 854.816 1191.62 839.834C1193.63 827.299 1198.56 815.751 1206.89 806.232C1225.36 785.091 1236.08 759.511 1248.5 734.935C1252.16 727.699 1254.08 719.568 1256.74 711.84C1257.44 709.83 1257.78 707.674 1258.7 705.792C1262.24 698.592 1270.28 697.752 1274.63 704.458C1276.69 707.637 1277.93 711.693 1278.46 715.494C1283.45 751.983 1280.36 787.229 1258.93 818.529C1248.65 833.548 1242.28 849.244 1242.15 867.534C1242.09 874.477 1240.58 881.402 1240.27 888.382C1238.49 926.826 1224.41 960.939 1204.06 992.933C1191.22 1013.11 1174.82 1030.02 1156.79 1045.54C1135.64 1063.74 1114.54 1082.01 1093.59 1100.43C1088.12 1105.21 1083.28 1110.69 1078.08 1115.79C1075.26 1118.53 1072.31 1121.13 1070.62 1122.68Z" fill="black"/>
<path d="M63.3506 1053.15C35.8046 1010.1 17.0996 963.784 9.55548 913.19C6.77896 894.625 4.86122 875.952 2.50483 857.333C2.2491 855.25 2.37694 852.746 1.28095 851.175C-1.1485 847.703 0.367471 844.981 1.81053 841.911C6.7425 831.441 15.0539 830.144 21.9039 839.499C32.4619 853.898 43.0015 868.405 52.4271 883.534C57.3043 891.373 61.0857 900.381 63.168 909.371C76.0094 964.497 103.665 1011.58 140.107 1054.08C144.637 1059.36 149.204 1064.68 153.204 1070.38C159.104 1078.77 161.004 1088.09 157.551 1098.03C151.615 1115.15 131.905 1122.22 115.629 1113.03C106.222 1107.71 98.9522 1099.91 92.3763 1091.58C82.4575 1078.95 73.0136 1065.98 63.3506 1053.15Z" fill="black"/>
<path d="M591.575 1305.76C569.253 1319.64 545.488 1328.54 519.385 1331.99C484.642 1336.56 450.466 1335.52 416.691 1325.71C392.542 1318.67 368.284 1312 344.191 1304.75C339.113 1303.22 334.144 1300.4 329.888 1297.19C323.495 1292.34 321.522 1285.33 323.86 1277.64C326.089 1270.27 331.605 1265.72 339.058 1265.05C344.647 1264.55 350.566 1265.32 356.046 1266.67C377.527 1271.97 398.917 1277.62 420.307 1283.32C455.945 1292.82 492.004 1294.7 528.537 1290.11C537.25 1289.02 546.036 1288.58 554.804 1288.07C573.747 1286.95 592.123 1283.76 608.983 1274.42C610.042 1273.83 611.138 1273.27 612.307 1272.98C617.257 1271.71 620.217 1274.57 618.5 1279.5C617.44 1282.51 615.504 1285.6 613.129 1287.74C606.17 1293.97 598.79 1299.76 591.575 1305.76Z" fill="black"/>
<path d="M1000.3 258.758C994.745 255.012 990.946 249.732 989.667 243.135C988.535 237.234 990.891 231.825 996.572 229.633C1001.8 227.623 1007.7 226.143 1013.23 226.325C1030.82 226.947 1047.23 232.245 1062.24 241.436C1085.26 255.542 1104.34 274.106 1121.62 294.625C1149.08 327.241 1172.11 362.889 1193.38 399.707C1197.89 407.527 1201.14 416.151 1204.3 424.648C1206.56 430.714 1206.51 437.182 1203.81 443.34C1198.87 454.54 1187.31 456.039 1180.1 446.227C1178.16 443.596 1177.08 440.325 1175.6 437.347C1170.21 426.511 1165.81 415.037 1159.25 404.969C1138.89 373.724 1118.19 342.662 1096.65 312.203C1079.54 288.011 1058.42 267.474 1033.11 251.742C1026.22 247.466 1018.47 244.561 1010.98 241.308C1008.83 240.376 1006.25 240.121 1003.86 240.029C997.029 239.773 994.946 243.062 998.015 249.019C999.458 251.815 1001.08 254.519 1002.62 257.278C1001.81 257.808 1001.05 258.283 1000.3 258.758Z" fill="black"/>
<path d="M214.015 222.987C223.349 217.925 232.519 212.553 242.054 207.931C247.461 205.318 253.361 203.6 259.206 202.138C262.001 201.444 265.27 201.846 268.138 202.504C271.646 203.326 274.203 205.939 273.929 209.703C273.673 213.339 272.121 215.806 267.755 217.359C262.896 219.076 258.238 222.676 254.731 226.55C247.424 234.626 240.885 243.415 234.126 251.984C230.18 256.99 226.801 262.49 222.472 267.113C212.297 277.966 205.923 290.939 200.278 304.442C197.593 310.874 194.944 317.342 191.802 323.573C188.88 329.383 184.587 334.006 178.066 336.126C167.855 339.433 157.717 334.701 155.16 324.34C153.991 319.571 153.826 313.834 155.379 309.266C160.055 295.507 165.115 281.767 171.289 268.63C182.085 245.662 191.218 236.636 214.015 222.987Z" fill="black"/>
<path d="M768.707 21.4177C761.967 11.1307 766.917 0.533003 777.42 0.0213917C781.183 -0.161326 785.33 0.843653 788.818 2.37849C828.256 19.7002 867.62 37.168 906.93 54.782C912.922 57.4679 919.333 60.0261 920.667 68.0292C920.941 69.6371 923.534 70.8978 925.16 72.1951C928.941 75.2282 933.161 77.8228 936.503 81.2762C939.39 84.2545 941.892 87.9089 943.5 91.7094C945.984 97.5747 943.408 101.996 936.997 102.91C933.216 103.44 929.105 103.02 925.361 102.088C921.908 101.229 918.529 99.4932 915.497 97.5564C875.201 71.8479 831.672 52.4615 788.471 32.3808C784.069 30.3343 779.521 28.562 775.283 26.2415C772.433 24.6884 769.986 22.3861 768.707 21.4177Z" fill="black"/>
<path d="M763.368 1366.37C744.17 1380.15 705.645 1374.32 703.143 1337.32C702.412 1326.67 705.901 1317.68 713.555 1310.33C726.086 1298.29 749.284 1292.87 764.025 1306.11C766.637 1308.47 771.186 1308.78 774.912 1309.75C781.707 1311.52 782.402 1313.11 779.497 1319.74C778.748 1321.44 778.638 1323.75 779.04 1325.57C783.114 1343.59 778.237 1356.47 763.368 1366.37Z" fill="black"/>
<path d="M1282.15 1020.96C1275.21 1024.05 1268.89 1025.49 1262.07 1023.12C1252.06 1019.63 1248.47 1009.21 1254.16 1000.24C1255.28 998.471 1256.63 996.625 1258.33 995.492C1273.6 985.187 1281.51 969.4 1289.75 953.833C1291.17 951.147 1292.2 948.223 1293.97 945.793C1297.69 940.658 1303.69 941.463 1305.99 947.346C1306.74 949.265 1307.01 951.512 1306.94 953.577C1306.21 971.026 1303.3 988.074 1294.81 1003.53C1291.37 1009.76 1286.42 1015.17 1282.15 1020.96Z" fill="black"/>
<path d="M430.245 26.9894C419.486 30.9361 408.672 28.1405 400.087 34.901C400.708 37.2581 401.512 39.7796 402.041 42.3559C403.229 48.3308 402.06 53.7759 397.877 58.3621C389.693 67.3336 370.586 66.9316 362.713 57.6312C356.028 49.7378 357.873 39.5238 367.39 33.7682C378.971 26.7518 391.867 23.3715 405.201 22.3118C411.704 21.8002 418.354 23.134 424.911 23.8648C426.135 24.011 427.267 25.217 430.245 26.9894Z" fill="black"/>
<path d="M224.462 1221.23C222.544 1221.44 219.256 1222.26 216.059 1221.97C211.273 1221.54 207.748 1217.65 207.912 1213.67C208.095 1209.21 211.164 1207.49 215 1206.64C217.064 1206.16 219.11 1205.41 221.192 1205.23C225.521 1204.84 229.284 1207.46 230.161 1211.31C231.129 1215.46 229.046 1218.24 224.462 1221.23Z" fill="black"/>
<path d="M607.919 1013.94C423.727 1013.94 274.419 864.627 274.419 680.436C274.419 496.244 423.727 346.936 607.919 346.936C792.111 346.936 941.419 496.244 941.419 680.436C941.419 864.613 792.111 1013.94 607.919 1013.94Z" fill="white"/>
<path fill-rule="evenodd" clip-rule="evenodd" d="M758.073 745.07C749.751 740.994 709.423 721.217 701.89 718.551C694.344 715.73 688.857 714.475 683.37 722.628C677.883 730.781 662.028 749.147 657.316 754.479C652.45 759.966 647.753 760.6 639.431 756.524C631.264 752.447 604.745 743.97 573.36 716.027C549.027 694.529 532.397 667.856 527.686 659.688C522.989 651.521 527.22 647.134 531.297 643.044C535.063 639.278 539.464 633.466 543.696 628.769C544.796 627.358 545.741 626.103 546.672 624.847C548.562 621.871 549.973 619.036 551.849 615.115C554.684 609.627 553.273 604.916 551.228 600.84C549.183 596.763 532.707 556.576 525.796 540.256C519.053 523.936 512.155 526.757 507.275 526.757C502.563 526.757 497.076 525.981 491.575 525.981C486.088 525.981 477.131 528.026 469.599 536.179C462.066 544.347 440.879 564.123 440.879 604.296C440.879 613.718 442.601 623.127 445.111 632.084C453.434 660.803 471.32 684.5 474.465 688.591C478.542 693.923 531.283 778.98 614.774 811.79C698.42 844.275 698.42 833.442 713.499 832.031C728.564 830.762 762.15 812.41 768.892 793.269C775.804 774.283 775.804 757.949 773.759 754.507C771.727 751.192 766.226 749.147 758.073 745.07Z" fill="#141613"/>
</svg>
