<svg width="1744" height="1799" viewBox="0 0 1744 1799" fill="none" xmlns="http://www.w3.org/2000/svg">
<path d="M1584.9 763.929C1585.63 775.302 1587.07 791.907 1587.63 808.536C1587.93 817.066 1589.68 824.926 1593.42 832.596C1600.02 846.215 1606.27 859.977 1612.62 873.715C1625 900.474 1630.13 928.883 1632.5 957.912C1635.7 997.191 1634.23 1036.37 1630.77 1075.53C1625.39 1136.2 1601.24 1188.86 1559.55 1233.85C1536.05 1259.2 1510.82 1282.75 1480.54 1300.39C1474.94 1303.66 1473.18 1308.37 1471.6 1313.79C1462.54 1344.95 1449.93 1374.57 1429.49 1400.33C1392 1447.56 1345.4 1483.74 1289.76 1508.66C1250.3 1526.36 1209 1537.3 1165.62 1540.07C1153.95 1540.82 1143.81 1544.04 1133.87 1550.28C1089.83 1577.97 1041.57 1596.65 991.774 1611.39C903.922 1637.41 814.825 1641.59 724.922 1622.96C676.491 1612.9 633.432 1591.2 593.842 1562.53C581.459 1553.57 568.954 1544.73 556.84 1535.44C549.269 1529.63 541.624 1527.94 531.977 1530.04C494.78 1538.16 457.803 1535.46 421.168 1526.22C389.808 1518.31 362.649 1503.11 339.691 1480.82C299.026 1441.38 265.199 1397.15 240.922 1346.16C236.673 1337.2 231.983 1328.32 226.464 1320.07C196.545 1275.42 178.716 1226.56 172.854 1173.59C170.754 1154.71 170.778 1135.6 169.117 1116.65C168.458 1109.29 166.48 1101.89 163.891 1094.91C156.466 1074.79 147.771 1055.08 140.786 1034.82C130.113 1003.9 127.5 971.961 131.31 939.61C136.292 897.416 141.861 855.342 154.365 814.438C156.881 806.195 157.589 797.283 158.053 788.61C160.154 748.949 163.475 709.454 172.341 670.581C183.405 622.008 204.556 577.903 231.153 535.541C281.856 454.785 350.608 393.095 433.624 345.668C457.803 331.858 483.619 325.097 511.754 329.589C517.885 330.568 522.769 328.394 527.776 325.527C549.098 313.27 570.615 301.276 591.888 288.948C670.409 243.385 756.16 217.437 845.135 201.047C870.877 196.293 897.548 196.436 923.779 194.118C935.844 193.043 948.349 193.067 959.803 189.77C1011.09 174.981 1062.16 177.681 1113.84 187.668C1192.02 202.791 1254.57 242.62 1306.37 300.416C1326.47 322.827 1344.91 346.457 1360.47 372.141C1366.94 382.821 1375.08 391.972 1383.75 400.955C1399.89 417.656 1416.38 434.285 1430.52 452.563C1455.97 485.439 1481.68 518.363 1503.89 553.341C1544.01 616.465 1572.83 684.415 1584.9 763.929ZM971.38 307.273C970.745 308.444 970.085 309.638 969.45 310.809C971.746 311.574 974.286 311.932 976.313 313.127C1010.26 333.316 1044.09 353.672 1078.06 373.79C1082.51 376.418 1087.51 378.449 1092.52 379.763C1164.01 398.399 1226.73 432.708 1282.29 480.183C1314.11 507.372 1344.06 536.282 1371.29 567.916C1374.66 571.834 1377.59 576.469 1383.31 578.118C1381.21 572.813 1378.54 568.035 1375.42 563.519C1349.87 526.606 1321.78 491.699 1287.1 462.574C1259.72 439.589 1231.49 417.608 1203.26 395.627C1138.24 345.047 1062.55 319.936 981.613 307.727C978.243 307.225 974.775 307.416 971.38 307.273ZM1064.7 1545.24C1063.63 1544.21 1063.09 1543.2 1062.53 1543.18C1041.16 1542.54 1019.84 1539.74 998.514 1544.97C959.144 1554.63 919.309 1562.32 878.644 1563.18C842.644 1563.97 806.57 1563.56 770.57 1562.53C745.487 1561.82 720.477 1559.09 695.419 1557.35C692.488 1557.16 689.509 1557.49 683.72 1557.66C688.19 1560.34 690.021 1561.96 692.146 1562.63C710.22 1568.41 728.024 1575.29 746.488 1579.4C801.148 1591.61 856.565 1591.63 912.08 1586.31C962.539 1581.46 1010.26 1566.31 1057.4 1549.03C1059.91 1548.15 1062.16 1546.6 1064.7 1545.24ZM229.517 636.105C230.298 636.559 231.055 637.012 231.837 637.466C233.937 634.145 235.793 630.657 238.138 627.527C248.201 614.1 258.41 600.792 268.521 587.388C281.514 570.185 294.776 553.198 307.305 535.685C321.715 515.543 335.148 494.733 349.607 474.64C384.142 426.64 428.519 388.699 477.781 355.823C481.445 353.386 486.11 351.761 488.552 346.672C460.661 351.187 388.806 402.389 343.672 449.314C294.581 500.372 233.18 600.839 229.517 636.105ZM1259.06 908.359C1258.11 908.455 1257.16 908.55 1256.18 908.646C1255.47 911.632 1254.62 914.595 1254.08 917.605C1245.53 967.851 1231.93 1016.78 1214.34 1064.66C1209.41 1078.07 1204.67 1091.9 1197.27 1104.01C1189.82 1116.18 1194.12 1125.11 1199.81 1135.24C1201.25 1134.43 1202.13 1134.19 1202.6 1133.64C1230.15 1100.31 1252.05 1063.92 1264.56 1022.61C1266.59 1015.87 1267.78 1008.49 1267.39 1001.52C1265.95 974.589 1263.78 947.71 1261.68 920.831C1261.36 916.626 1259.97 912.516 1259.06 908.359ZM1427.32 1341.72C1426.32 1341.03 1425.31 1340.36 1424.31 1339.67C1417.82 1345.54 1411.05 1351.13 1404.85 1357.3C1365.99 1395.96 1320.86 1425.61 1270.4 1447.78C1265.22 1450.05 1260.11 1452.49 1255.06 1454.97C1243.8 1460.44 1218.81 1482.42 1211.63 1493.08C1212.34 1493.37 1213.07 1493.94 1213.73 1493.87C1215.74 1493.63 1217.72 1493.22 1219.69 1492.74C1285.25 1477.12 1341.08 1445.05 1387.85 1397.65C1401.14 1384.18 1412.81 1369.51 1421.99 1353.04C1424 1349.41 1425.53 1345.49 1427.32 1341.72ZM548.585 446.351C549.147 447.139 549.708 447.904 550.246 448.692C560.65 447.808 567.635 439.733 576.55 435.743C585.391 431.8 593.842 427.046 602.634 423.008C611.793 418.803 621.147 414.956 630.477 411.157C639.44 407.502 648.502 404.037 657.538 400.549C666.941 396.894 676.344 393.19 685.821 389.678C695.297 386.166 704.773 382.678 714.372 379.548C723.604 376.537 732.909 373.813 742.312 371.352C752.082 368.772 761.949 366.502 771.84 364.4C781.341 362.393 790.988 361.007 800.464 358.952C809.819 356.945 819.954 358.116 828.722 352.191C812.017 348.273 795.287 345.811 778.605 343.112C757.162 339.647 737.061 343.136 717.107 351.617C659.639 376.059 607.323 409.437 553.836 440.736C551.711 441.979 550.319 444.439 548.585 446.351ZM975.849 1139.8C970.256 1134.33 965.763 1137.39 961.488 1138.85C933.328 1148.48 904.704 1151.61 875.347 1145.09C868.313 1143.53 861.767 1144.42 855.246 1147.31C845.648 1151.56 836.001 1155.74 826.207 1159.54C801.392 1169.19 775.846 1171.44 749.835 1165.39C736.841 1162.36 724.117 1158.27 711.245 1154.76C708.95 1154.14 706.507 1154.04 704.138 1153.69C742.117 1180.3 785.322 1183.17 829.528 1183.19C882.723 1183.22 929.567 1164.34 975.849 1139.8ZM237.405 1238.93C236.648 1239.34 235.891 1239.77 235.134 1240.18C235.574 1242.04 235.769 1244 236.477 1245.79C247.932 1274.56 259.24 1303.37 271.11 1331.95C273.161 1336.89 277.069 1341.43 281.099 1345.18C294.019 1357.18 306.915 1369.27 320.665 1380.31C340.985 1396.62 361.916 1412.27 382.872 1427.8C389.735 1432.89 397.501 1436.84 406.196 1438.51C376.522 1406.49 345.797 1375.77 316.513 1343.75C286.887 1311.3 261.487 1275.56 237.405 1238.93ZM1586.22 880.07C1585.51 880.214 1584.82 880.357 1584.12 880.5C1581.43 894.884 1578.35 909.195 1576.28 923.65C1575.52 928.954 1577.01 934.617 1577.67 940.088C1579.11 951.867 1581.09 963.598 1582.02 975.401C1582.85 986.057 1581.97 996.833 1582.92 1007.46C1584.85 1028.66 1582.85 1049.42 1577.69 1069.97C1570 1100.74 1562.16 1131.49 1554.42 1162.26C1554.08 1163.67 1554.05 1165.15 1553.61 1169.12C1556.96 1165.37 1558.96 1163.63 1560.33 1161.5C1570.17 1146.35 1577.42 1130.06 1582.68 1112.88C1592.27 1081.48 1594.3 1049.04 1597.04 1016.64C1600.6 974.063 1597.33 931.965 1589.15 890.129C1588.51 886.712 1587.22 883.415 1586.22 880.07ZM1393.61 654.478C1393.03 654.86 1392.44 655.219 1391.88 655.577C1394.35 660.355 1396.93 665.062 1399.23 669.936C1411.37 695.836 1424 721.544 1435.33 747.802C1442.44 764.264 1443.02 781.586 1437.18 799.003C1435.47 804.068 1435.08 809.97 1435.72 815.322C1436.79 824.329 1438.85 833.289 1441.14 842.105C1442.12 845.904 1444.78 849.273 1446.93 853.311C1453.77 846.525 1453.69 846.501 1454.82 837.876C1459.04 805.359 1454.75 773.008 1453.06 740.61C1452.57 731.101 1449.49 722.954 1443.51 715.523C1430.47 699.348 1417.74 682.934 1404.75 666.735C1401.26 662.41 1397.33 658.54 1393.61 654.478ZM605.272 1064.47C607.446 1054.34 608.398 1044.74 611.72 1035.99C614.773 1027.96 614.064 1022.09 608.911 1015.25C593.133 994.348 581.923 971.22 574.62 946.181C572.789 939.873 568.979 934.019 565.584 928.261C561.749 921.763 557.426 915.527 553.152 909.291C552.053 907.69 550.466 906.448 548.268 904.178C549.953 939.586 588.933 1048.66 605.272 1064.47ZM538.84 835.2C540.476 832.429 541.356 831.521 541.575 830.47C547.999 798.071 562.238 769.066 580.799 741.781C584.487 736.381 586.564 729.596 588.078 723.169C591.57 708.14 594.306 692.945 597.212 677.797C597.554 675.957 597.163 673.998 597.041 669.459C558.012 719.441 534.81 771.67 538.84 835.2ZM858.885 480.493C865.04 482.237 869.143 483.575 873.32 484.555C913.447 494.088 953.429 504.051 990.87 521.756C993.972 523.213 998.099 524.192 1001.32 523.5C1012.19 521.158 1022.89 517.956 1033.76 515.065C1017.91 498.46 899.648 474.616 858.885 480.493ZM487.99 1501.78C479.198 1493.05 469.917 1485.62 457.363 1483.66C417.333 1477.36 381.235 1462.33 349.485 1437.48C347.677 1436.07 345.235 1435.43 340.741 1433.32C378.817 1483.5 428.934 1502.09 487.99 1501.78ZM428.715 912.134C428.324 913.185 427.591 914.236 427.591 915.264C427.786 935.835 427.567 956.43 428.641 976.954C428.959 982.832 432.036 989.259 435.651 994.133C450.354 1013.84 461.051 1035.4 469.258 1058.33C473.263 1069.49 478.343 1080.31 483.252 1091.14C484.718 1094.39 487.209 1097.2 489.236 1100.24C463.152 1039.19 444.565 976.285 428.715 912.134ZM1104.17 1028.92C1118.43 1003.69 1142.61 908.622 1138.34 891.658C1127.28 937.412 1108.4 977.91 1086.15 1017.76C1092.79 1021.87 1098.14 1025.17 1104.17 1028.92ZM1276.18 310.26C1251.96 269.212 1142.49 213.901 1101.09 220.137C1130.77 232.299 1161.64 244.125 1191.8 257.553C1222.33 271.172 1249.42 290.524 1276.18 310.26ZM1151.09 704.676C1150.58 693.877 1150.28 684.941 1149.6 676.029C1149.45 674.261 1148.21 672.039 1146.76 671.011C1137.34 664.345 1127.25 658.898 1113.72 654.263C1116.92 663.509 1120.51 670.271 1121.41 677.367C1123.49 693.59 1134.87 699.444 1151.09 704.676ZM659.736 610.779C671.508 609.871 686.114 601.031 699.18 587.197C685.063 592.262 672.388 599.573 659.736 610.779ZM1140.93 1175.05C1150.21 1179.92 1153.36 1178.7 1160.71 1168.19C1150.53 1163.89 1150.28 1163.96 1140.93 1175.05ZM1141.47 852.355C1145.52 840.194 1145.2 838.784 1137.41 832.309C1138.95 839.931 1140.2 846.143 1141.47 852.355ZM1149.48 1499.27C1149.01 1498.57 1148.55 1497.86 1148.06 1497.16C1146.72 1498.07 1145.4 1498.96 1144.05 1499.86C1144.37 1500.39 1144.66 1500.89 1144.98 1501.42C1146.5 1500.68 1147.99 1499.96 1149.48 1499.27Z" fill="black"/>
<path d="M1182.76 1680.76C1165.68 1683.01 1152.15 1676.84 1145.22 1665.02C1138.33 1653.29 1139.89 1638.69 1149.27 1627.2C1156.6 1618.21 1166.37 1612.41 1177.12 1608.66C1206.13 1598.53 1235.27 1588.73 1264.5 1579.22C1289.9 1570.98 1315.99 1564.55 1340.87 1555.14C1389.33 1536.81 1429.75 1508.16 1456.91 1463.49C1467.27 1446.45 1478.96 1430.2 1490.4 1413.81C1499.97 1400.1 1512.52 1389.23 1528.03 1382.61C1562.42 1367.94 1589.97 1343.66 1619.01 1321.54C1627.56 1315.02 1634.49 1306.49 1642.16 1298.84C1644.14 1296.86 1645.78 1294.49 1647.98 1292.8C1656.38 1286.27 1666.56 1289.76 1668 1300.11C1668.69 1305.03 1667.88 1310.5 1666.34 1315.3C1651.57 1361.25 1627.7 1401.2 1583.96 1426.24C1562.98 1438.25 1546.3 1453.26 1535.7 1474.81C1531.67 1483.01 1525.88 1490.34 1521.54 1498.39C1497.45 1542.88 1460.96 1575.35 1418.1 1601.82C1391.06 1618.52 1361.59 1629.37 1330.93 1637.64C1294.98 1647.34 1259.06 1657.18 1223.2 1667.26C1213.87 1669.89 1204.88 1673.67 1195.7 1676.77C1190.74 1678.42 1185.69 1679.86 1182.76 1680.76Z" fill="black"/>
<path d="M4.43423 1036.23C-4.30938 969.956 -0.499344 904.73 19.2348 840.698C26.4642 817.212 34.7926 794.036 42.5837 770.717C43.463 768.089 45.0505 765.222 44.6109 762.761C43.6583 757.289 47.0288 754.924 50.5458 752.105C62.4888 742.476 73.2596 745.582 76.2148 760.467C80.782 783.404 85.227 806.412 88.0113 829.588C89.4523 841.582 88.8661 854.34 86.2773 866.143C70.3531 938.513 76.9475 1009.62 96.755 1080.22C99.2217 1089.01 101.689 1097.83 103.3 1106.79C105.67 1120 102.641 1132.07 92.774 1141.91C75.8241 1158.85 47.9568 1156.2 33.5225 1136.25C25.1697 1124.71 20.8224 1111.42 17.6473 1097.9C12.8359 1077.45 8.80603 1056.8 4.43423 1036.23Z" fill="black"/>
<path d="M499.061 1629.86C464.136 1633.83 430.334 1631.08 396.8 1620.59C352.178 1606.62 311.44 1586.28 276.221 1555.82C251.016 1534.03 225.494 1512.6 200.509 1490.57C195.233 1485.91 190.837 1479.84 187.54 1473.66C182.582 1464.36 184.194 1454.97 191.399 1447.16C198.31 1439.68 207.567 1437.39 216.97 1440.76C224.004 1443.29 230.72 1447.49 236.582 1452.18C259.54 1470.43 282.181 1489.07 304.797 1507.75C342.458 1538.86 385.004 1561.22 431.774 1576.2C442.936 1579.76 453.829 1584.16 464.722 1588.43C488.266 1597.71 512.299 1604.16 538.017 1602.53C539.629 1602.44 541.289 1602.36 542.853 1602.67C549.569 1603.94 551.523 1608.96 546.638 1613.83C543.634 1616.82 539.531 1619.38 535.452 1620.57C523.436 1624.06 511.2 1626.81 499.061 1629.86Z" fill="black"/>
<path d="M1590.55 619.84C1585.96 612.314 1584.39 603.952 1586.62 595.422C1588.62 587.825 1594.55 582.735 1602.66 583.309C1610.14 583.834 1618.1 585.387 1624.69 588.709C1645.6 599.245 1662.4 614.68 1675.32 633.937C1695.1 663.468 1707.59 696.081 1716.77 729.985C1731.35 783.862 1738.87 838.91 1743.59 894.317C1744.59 906.072 1743.59 918.09 1742.56 929.893C1741.83 938.327 1738.07 945.948 1731.3 951.706C1718.94 962.219 1704.12 957.512 1700.99 941.887C1700.16 937.682 1700.7 933.238 1700.6 928.889C1700.26 913.072 1701.48 897.041 1699.31 881.487C1692.49 833.176 1685.19 784.866 1676.52 736.842C1669.63 698.685 1655.81 662.608 1634.17 629.875C1628.28 620.987 1620.56 613.222 1613.38 605.194C1611.31 602.877 1608.35 601.157 1605.5 599.723C1597.39 595.614 1592.99 598.313 1593.31 607.106C1593.45 611.215 1593.87 615.325 1594.16 619.434C1592.94 619.578 1591.74 619.721 1590.55 619.84Z" fill="black"/>
<path d="M660.18 138.671C674.346 137.906 688.511 136.664 702.677 136.52C710.688 136.449 718.821 137.715 726.734 139.268C730.495 140.009 734.232 142.302 737.334 144.692C741.095 147.606 742.707 152.146 740.24 156.423C737.847 160.556 734.574 162.635 728.419 162.014C721.556 161.345 713.887 162.969 707.415 165.621C693.982 171.093 681.062 177.83 667.996 184.186C660.375 187.889 653.146 192.524 645.282 195.583C626.769 202.726 611.651 214.529 597.143 227.336C590.207 233.452 583.319 239.616 575.992 245.231C569.129 250.463 561.314 253.546 552.228 252.399C537.989 250.607 528.44 239.353 531.248 225.687C532.543 219.403 535.645 212.498 540.114 207.983C553.621 194.316 567.566 180.913 582.538 168.799C608.647 147.654 624.839 142.063 660.18 138.671Z" fill="black"/>
<path d="M1445.92 209.92C1443.62 193.984 1455.66 184.236 1468.66 189.492C1473.32 191.38 1477.74 194.868 1481.09 198.643C1518.9 241.148 1556.53 283.772 1594.02 326.539C1599.74 333.062 1606.01 339.656 1603.06 349.882C1602.47 351.913 1604.89 354.876 1606.11 357.337C1608.97 363.023 1612.58 368.447 1614.64 374.396C1616.42 379.509 1617.37 385.243 1617.15 390.643C1616.81 398.981 1611.17 402.756 1602.91 400.272C1598.03 398.79 1593.31 395.995 1589.31 392.817C1585.62 389.878 1582.54 385.936 1579.98 381.946C1545.91 329.048 1504.34 281.813 1463.58 233.98C1459.42 229.106 1454.93 224.471 1451.12 219.358C1448.56 215.87 1446.92 211.784 1445.92 209.92Z" fill="black"/>
<path d="M672.201 1797.42C641.11 1802.98 597.88 1774.6 615.953 1729.44C621.155 1716.45 630.51 1707.75 643.943 1703.33C665.948 1696.09 697.113 1702.64 707.37 1726.53C709.202 1730.76 714.502 1733.67 718.459 1736.9C725.664 1742.78 725.59 1745.05 718.312 1751.28C716.456 1752.88 714.99 1755.51 714.429 1757.92C709.08 1781.48 695.818 1794 672.201 1797.42Z" fill="black"/>
<path d="M1496.55 1678.54C1486.41 1678.33 1477.94 1676.51 1471.05 1669.87C1460.96 1660.15 1462.55 1645.83 1474.54 1638.4C1476.91 1636.95 1479.57 1635.51 1482.28 1635.11C1506.63 1631.45 1525.2 1617.19 1544.03 1603.38C1547.28 1601.01 1550.21 1598.1 1553.7 1596.23C1561.12 1592.24 1567.91 1596.54 1567.35 1604.76C1567.18 1607.44 1566.23 1610.26 1564.93 1612.65C1554.09 1632.86 1540.88 1651.4 1521.78 1664.97C1514.11 1670.44 1505.02 1674.08 1496.55 1678.54Z" fill="black"/>
<path d="M1033.47 27.5778C1018.2 26.2398 1006.72 16.8979 992.483 20.0995C991.897 23.2294 991.433 26.6698 990.578 29.9909C988.599 37.732 984.081 43.5141 976.412 46.5962C961.416 52.641 938.531 41.4832 934.306 26.1203C930.716 13.0512 938.8 2.01291 953.576 0.507685C971.576 -1.30814 989.112 1.8695 1005.82 8.08153C1013.98 11.092 1021.25 16.42 1028.75 20.9357C1030.19 21.7719 1030.88 23.8028 1033.47 27.5778Z" fill="black"/>
<path d="M103.376 1324.95C100.934 1324.12 96.4886 1323.26 92.8007 1321.13C87.2565 1317.95 85.2293 1311.38 87.6717 1306.77C90.4315 1301.61 95.1209 1301.3 100.25 1302.4C103.01 1302.99 105.916 1303.23 108.554 1304.19C114.025 1306.15 117.078 1311.36 115.954 1316.37C114.708 1321.85 110.605 1323.97 103.376 1324.95Z" fill="black"/>
<path d="M466.931 1127.64C489.56 1153.35 514.843 1176.21 542.274 1196.74C585.24 1228.89 632.26 1253.52 682.947 1271.35C686.493 1272.6 686.541 1273.44 684.37 1276.26C671.704 1292.75 659.184 1309.34 646.783 1326C645.022 1328.37 643.213 1329.11 640.342 1328.97C611.609 1327.68 583.334 1323.25 555.374 1316.83C496.026 1303.21 440.369 1280.81 389.658 1246.99C359.574 1226.9 332.482 1203.42 308.478 1176.42C307.103 1174.87 306.91 1173.36 307.03 1171.51C308.791 1145.04 311.035 1118.64 313.882 1092.26C316.897 1064.49 320.564 1036.82 325.124 1009.25C339.285 923.292 360.106 839.036 390.768 757.316C408.717 709.443 429.368 662.79 455.616 618.699C460.055 611.231 465.556 605.271 472.745 600.268C524.927 564.1 581.501 537.052 642.73 519.721C667.579 512.684 692.862 507.801 718.579 505.072C721.257 504.785 722.753 505.359 723.935 507.992C726.806 514.311 729.99 520.487 733.296 526.615C734.647 529.152 734.767 530.037 731.462 530.78C700.485 537.865 670.257 547.249 640.945 559.552C595.324 578.701 553.974 604.672 515.929 635.981C508.74 641.894 501.719 648.021 494.651 654.077C493.903 654.723 492.865 655.202 492.745 656.471C494.482 656.997 495.64 655.729 496.943 655.083C533.347 636.795 569.945 618.938 608.015 604.241C652.212 587.174 697.615 574.56 744.442 566.781C799.181 557.685 854.331 555.1 909.674 556.871C983.882 559.241 1056.31 571.448 1126.41 596.247C1172.27 612.452 1215.99 633.348 1259.29 655.226C1260.57 655.872 1261.87 656.447 1263.15 657.046C1263.56 657.213 1264.02 657.716 1264.36 657.022C1264.41 656.926 1263.93 656.566 1263.66 656.351C1251.57 644.861 1238.52 634.473 1225.49 624.061C1180.53 588.132 1129.98 562.711 1075.2 545.166C1058.31 539.756 1041.23 534.968 1024.03 530.684C1021.52 530.061 1021.2 529.415 1022.36 527.189C1025.57 521.157 1028.8 515.149 1031.53 508.901C1033.07 505.383 1035.15 504.713 1038.67 505.096C1058.81 507.178 1078.72 510.458 1098.38 515.389C1167.98 532.839 1231.12 563.812 1289.47 604.887C1292.18 606.778 1294.25 609.077 1296.01 611.853C1315.94 643.45 1332.1 676.913 1346.72 711.142C1368.92 763.013 1386.87 816.367 1401.32 870.847C1414.92 922.119 1425.52 973.99 1433.48 1026.41C1439.44 1065.76 1443.8 1105.26 1447.11 1144.9C1447.83 1153.63 1448.24 1162.37 1448.96 1171.11C1449.18 1173.65 1448.39 1175.42 1446.72 1177.28C1402.31 1227 1348.51 1263.55 1287.04 1289.31C1248.44 1305.46 1208.39 1316.67 1167.06 1323.42C1149.79 1326.24 1132.42 1328.35 1114.88 1328.99C1112.59 1329.07 1111.12 1328.52 1109.69 1326.62C1096.93 1309.58 1084.12 1292.56 1071.14 1275.69C1068.95 1272.84 1070.18 1272.43 1072.66 1271.55C1121.08 1254.5 1166.24 1231.26 1207.74 1201.15C1237.48 1179.56 1264.72 1155.24 1289.02 1127.69C1289.35 1127.28 1289.72 1126.85 1290.05 1126.42C1290.42 1126.3 1290.8 1126.2 1291.19 1126.08C1290.9 1125.96 1290.58 1125.77 1290.32 1125.8C1289.62 1125.87 1290.27 1126.3 1290.17 1126.54C1289.21 1125.48 1288.85 1126.49 1288.34 1127.04C1278.11 1134.05 1268 1141.26 1257.63 1148.03C1211.38 1178.24 1161.85 1201.67 1109.09 1218.36C1073.36 1229.66 1036.88 1237.8 999.78 1243.2C945.403 1251.15 890.783 1253.19 835.971 1250.77C763.934 1247.59 693.537 1235.47 625.553 1211.23C570.838 1191.69 520.03 1164.76 473.083 1130.7C471.322 1129.41 469.464 1128.24 467.654 1127.02C467.148 1126.47 466.762 1125.44 465.797 1126.54C465.725 1126.27 466.4 1125.87 465.676 1125.8C465.411 1125.77 465.098 1125.99 464.808 1126.11C465.17 1126.23 465.532 1126.32 465.893 1126.47C466.231 1126.85 466.593 1127.26 466.931 1127.64ZM618.388 967.073C618.629 973.105 618.678 978.107 619.353 983.11C623.069 1010.25 634.359 1033.42 655.517 1051.45C688.954 1079.96 738.217 1077.56 768.856 1046.13C785.647 1028.9 795.683 1008.46 798.746 984.785C803.427 948.474 794.139 916.399 767.939 890.021C735.202 857.036 681.885 857.635 649.461 890.954C628.472 912.497 618.991 938.516 618.388 967.073ZM1137.53 972.506C1137.51 941.867 1129.36 917.883 1112.47 897.561C1095.61 877.263 1073.84 865.653 1047.07 865.557C1020.26 865.462 998.55 876.999 981.397 897.058C967.622 913.167 959.516 931.957 957.104 952.878C952.616 991.607 963.062 1025.36 993.243 1051.5C1026.17 1080.01 1075.36 1077.56 1105.98 1046.57C1127.4 1024.86 1137.05 998.525 1137.53 972.506ZM492.31 656.806C492.214 656.71 492.118 656.615 492.045 656.543C491.949 656.711 491.852 656.878 491.804 657.046C491.78 657.118 491.949 657.213 492.045 657.285C492.142 657.141 492.238 656.974 492.31 656.806Z" fill="white"/>
</svg>
