<svg width="1823" height="1722" viewBox="0 0 1823 1722" fill="none" xmlns="http://www.w3.org/2000/svg">
<path d="M1029.21 4.47009C1029.21 8.29159 1025.76 10.7986 1018.51 12.2175C1012.58 13.3753 1004.42 15.952 1000.23 17.989C990.675 22.62 990.267 35.3206 999.57 38.202C1006.48 40.3434 1008.91 46.2628 1002.87 46.2628C1000.89 46.2628 1000.22 47.8732 1001.38 49.8144C1002.54 51.7382 1007.15 52.4347 1011.42 51.3291C1022.91 48.3694 1031.28 54.0102 1033.61 66.2669C1036.12 79.4201 1038.14 135.315 1040.71 262.443C1041.81 316.649 1043.4 376.069 1044.24 394.733C1049.97 521.538 1050.82 661.358 1045.96 678.028C1042.85 688.657 1043.79 695.778 1052.98 731.59C1055.55 741.592 1055.2 745.17 1051.28 749.009C1047.47 752.735 1047.14 755.781 1049.79 762.24C1054.45 773.531 1053.16 789.269 1047.32 792.473C1041.73 795.537 1040.58 809.604 1045.68 812.66C1047.7 813.87 1048.43 817.413 1047.32 820.642C1046.12 824.194 1047.39 827.206 1050.62 828.39C1054.95 829.983 1055.75 834.683 1055.06 854.688C1054.6 868.241 1053.07 879.758 1051.61 880.646C1047 883.431 1048.97 891.632 1054.24 891.632C1058.16 891.632 1058.87 893.085 1057.04 897.281C1055.67 900.406 1054.27 913.899 1053.91 927.453C1053.54 941.006 1052.51 953.272 1051.61 954.882C1050.71 956.466 1048.99 961.82 1047.82 966.66C1046.19 973.432 1046.84 975.53 1050.62 975.53C1056.22 975.53 1057.57 990.024 1052.26 993.228C1050.52 994.281 1048.97 997.798 1048.97 1000.71C1048.97 1003.68 1044.52 1008.63 1039.26 1011.52C1032.34 1015.3 1030.06 1018.7 1031.35 1023.29C1032.35 1026.86 1031.46 1033.13 1029.37 1037.33C1025.99 1044.1 1026.08 1044.31 1030.2 1039.26C1032.83 1036.03 1036.3 1033.61 1038.27 1033.61C1040.21 1033.61 1042.61 1031.35 1043.72 1028.45C1046.07 1022.4 1049.95 1024.9 1050.74 1032.97C1051.04 1035.93 1052.42 1044.74 1053.75 1052.16C1055.55 1062.16 1055.15 1065.87 1052.26 1065.87C1050.03 1065.87 1049.03 1063.13 1049.96 1059.58C1051.14 1055.06 1050.31 1053.79 1046.99 1055.06C1044.48 1056.03 1042.38 1060.06 1042.38 1063.93C1042.38 1067.8 1040.59 1072.79 1038.43 1074.9C1035.46 1077.81 1035.46 1078.77 1038.43 1078.77C1040.53 1078.77 1042.38 1081.03 1042.38 1083.61C1042.38 1086.19 1044.69 1088.45 1047.32 1088.45C1052.8 1088.45 1053.81 1097.17 1049.17 1104.26C1046.38 1108.53 1045.75 1108.46 1043.87 1103.62C1040.02 1093.76 1035.8 1097.81 1035.8 1111.36V1124.59L1042.21 1116.85C1050.65 1106.66 1053.22 1111.04 1047.14 1125.24C1041.75 1137.83 1037.01 1140.16 1034.7 1131.37C1033.54 1126.98 1033.09 1127.34 1032.84 1132.82C1032.66 1136.69 1034.05 1140.08 1035.81 1140.08C1037.72 1140.08 1039.1 1142.18 1039.1 1145.08C1039.1 1149.08 1041.08 1148.63 1048.99 1142.82C1054.58 1138.71 1059.93 1136.76 1061.34 1138.31C1062.72 1139.84 1061.99 1141.69 1059.69 1142.5C1057.46 1143.28 1055.58 1147.51 1055.58 1151.7C1055.58 1155.9 1054.07 1159.44 1052.28 1159.44C1050.31 1159.44 1048.99 1160.67 1048.99 1162.5C1048.99 1164.14 1051.3 1164.72 1053.93 1163.76C1061.9 1160.83 1060.6 1188.8 1052.08 1203.64C1046.95 1212.58 1044.91 1222.04 1044.54 1238.49C1044.25 1251.72 1042.36 1262.81 1039.97 1265.28C1034.33 1271.08 1034.44 1277.45 1040.1 1272.88C1044.99 1268.92 1044.53 1265.28 1047.67 1333.68C1049.39 1371.11 1048.92 1377.44 1044.21 1380.79C1041.25 1382.91 1039.14 1385.98 1039.57 1387.56C1040.96 1392.73 1032.04 1425.64 1027.31 1432.73C1022.16 1440.48 1025.37 1454.49 1032.86 1456.93C1035.83 1457.9 1035.71 1460.16 1032.42 1465.97C1026.01 1477.26 1025.3 1483.28 1030.88 1478.78C1033.28 1476.84 1038.78 1476.25 1043.4 1477.43C1049.65 1479.02 1051.91 1478.09 1052.78 1473.55C1053.67 1468.96 1055.69 1470.49 1061.58 1480.17C1070 1494.04 1069.03 1499.1 1059.53 1490.8C1056.24 1487.92 1052.18 1485.33 1050.97 1485.33C1046.95 1485.33 1048.99 1494.14 1053.93 1498.14C1061.3 1504.12 1060.19 1512.22 1052.29 1510.23C1046.71 1508.82 1045.71 1510.01 1045.71 1518.08C1045.71 1523.56 1043.55 1528.35 1040.61 1529.37C1036.65 1530.74 1036.36 1532.16 1039.29 1535.66C1042.13 1539.05 1041.76 1540.67 1037.81 1542.11C1034.84 1543.2 1032.54 1545.18 1032.54 1546.63C1032.54 1551.28 1066.79 1571.61 1078.65 1573.99C1084.9 1575.25 1093.34 1578.28 1097.09 1580.61C1107.3 1586.96 1134.34 1589.47 1140.24 1584.62C1142.76 1582.55 1151.44 1581.2 1159.35 1581.63C1175.82 1582.56 1180.52 1577.87 1172.18 1568.89C1164.75 1560.9 1168.24 1557.92 1185.05 1557.92C1196.24 1557.92 1199.51 1556.51 1202.17 1550.5C1204.32 1545.66 1207.47 1543.58 1211.23 1544.52C1215.9 1545.7 1216.37 1544.85 1213.7 1540.01C1211.55 1536.13 1211.62 1533.3 1213.86 1531.94C1215.68 1530.83 1216.38 1526.93 1215.34 1523.71C1214.1 1519.84 1215.24 1516.98 1218.47 1515.96C1221.17 1515.11 1226.21 1513.52 1229.18 1512.58C1232.47 1511.53 1233.42 1509.83 1231.49 1508.46C1224.91 1503.77 1219.53 1489.83 1218.45 1474.67C1217.83 1465.95 1216.58 1458.14 1215.68 1457.24C1214.77 1456.36 1216.71 1450.3 1219.96 1443.85C1223.27 1437.3 1225.67 1426.42 1225.4 1419.33C1225.13 1412.36 1227.66 1394.81 1231 1380.61C1234.33 1366.41 1237.99 1348.78 1239.07 1341.73C1240.15 1334.63 1242.11 1327.38 1243.42 1325.6C1245.77 1322.42 1250.8 1301.4 1251.54 1291.72C1251.74 1289.15 1252.76 1284.63 1253.74 1282.04C1257.63 1271.72 1263.11 1246.26 1263.11 1238.48C1263.11 1233.96 1264.51 1228 1266.28 1224.93C1270.56 1217.54 1287.03 1160.08 1287.47 1151.04C1287.65 1147.19 1291.09 1140.39 1294.97 1136.2C1301.21 1129.44 1304.58 1120.39 1307.08 1103.61C1307.51 1100.68 1311.05 1094.74 1314.65 1090.86C1318.4 1086.83 1323.89 1077.15 1327 1069.08C1330.11 1061.01 1336.19 1048.54 1340.67 1041.01C1345.08 1033.59 1348.74 1024.69 1348.74 1021.33C1348.74 1017.9 1352.36 1011.93 1356.97 1007.77C1361.59 1003.62 1365.21 997.084 1365.21 992.932C1365.21 988.736 1366.5 984.74 1368.18 983.739C1373.12 980.788 1381.89 962.273 1379.87 959.052C1378.87 957.441 1381.52 954.847 1385.8 953.245C1390.12 951.626 1397.78 944.21 1403.12 936.471C1414.93 919.366 1430.1 900.006 1440 889.36L1447.22 881.612L1451.24 889.037C1455.89 897.647 1457.07 971.639 1453.37 1022.29C1449.97 1068.76 1449.47 1099.72 1452.07 1103.93C1453.47 1106.19 1453.23 1107.8 1451.5 1107.8C1447.88 1107.8 1442.4 1154.26 1443.51 1175.56C1443.91 1183.48 1442.69 1198.15 1440.8 1207.83C1438.92 1217.51 1436.52 1232.18 1435.54 1240.1C1434.53 1248.17 1432.04 1256.63 1429.94 1259.14C1426.96 1262.69 1426.96 1263.94 1429.94 1264.95C1432.5 1265.82 1432.83 1269.3 1430.92 1275.76C1429.4 1280.92 1428.12 1286.39 1428.12 1287.7C1428.12 1289.01 1427.08 1300.93 1425.82 1313.83L1423.51 1337.55L1393.54 1366.91C1356.32 1403.36 1330.73 1432.34 1316.31 1454.35C1299.19 1480.48 1267.08 1544.02 1257.94 1569.86C1253.37 1582.77 1247.45 1597.28 1244.83 1601.97C1242.13 1606.81 1240.06 1613.53 1240.06 1617.45C1240.06 1621.33 1238.76 1626.81 1237.12 1629.88C1232.4 1638.66 1258.84 1672.1 1284.86 1690.26C1327.34 1719.93 1352.17 1728.16 1366.86 1717.46C1368.69 1716.13 1379.87 1714.13 1392.06 1712.96C1413.8 1710.88 1414.12 1710.7 1434.06 1689.89C1445.19 1678.28 1454.15 1667.55 1454.15 1665.85C1454.15 1664.19 1457.78 1661.9 1462.06 1660.86C1467 1659.65 1471.51 1655.05 1474.11 1648.59C1478.64 1637.3 1492.87 1620.88 1498.29 1620.69C1504.07 1620.48 1515.59 1609.87 1518.08 1602.45C1519.37 1598.57 1522.4 1594.91 1525.12 1593.9C1527.83 1592.9 1529.9 1587.93 1529.9 1582.44C1529.9 1568.24 1533.12 1562.76 1541.43 1562.76C1551.83 1562.76 1559.14 1550.5 1555.86 1538.56C1554.35 1533.08 1554.65 1527.6 1556.58 1525.33C1558.78 1522.75 1558.22 1520.85 1554.94 1519.63C1549.34 1517.56 1547.71 1507.91 1552.96 1507.91C1554.89 1507.91 1556.13 1504.52 1555.6 1500.65C1554.92 1495.6 1556.92 1492.41 1562.19 1490.16C1567.46 1487.92 1569.26 1485.07 1568.11 1480.8C1567.04 1476.8 1569.27 1472.54 1574.54 1468.54C1578.82 1465.28 1582.61 1459.46 1582.61 1456.12C1582.61 1452.56 1583.75 1449.82 1585.25 1449.82C1586.71 1449.82 1587.81 1442.4 1587.72 1433.04C1587.57 1418.84 1588.57 1416.06 1594.14 1414.97C1602.73 1413.29 1605.67 1408.52 1605.67 1396.25C1605.67 1390.77 1606.71 1385.23 1607.97 1383.99C1609.24 1382.74 1609.83 1376.73 1609.28 1370.6C1608.71 1364.15 1609.82 1359.46 1611.91 1359.46C1613.91 1359.46 1615.54 1357.37 1615.54 1354.79C1615.54 1352.24 1618.01 1347.76 1620.98 1344.94C1623.92 1342.15 1626.98 1334.3 1627.66 1327.85C1629 1314.94 1633.7 1303.39 1641.32 1294.29C1644.04 1291.03 1646.61 1283.16 1647.16 1276.38C1647.72 1269.61 1648.37 1263.58 1648.65 1262.67C1648.91 1261.81 1648.91 1257.67 1648.65 1253.8C1648.38 1249.93 1650.38 1245.72 1652.93 1244.77C1655.96 1243.64 1657.05 1240.57 1655.89 1236.38C1654.83 1232.5 1655.99 1228.62 1658.69 1227.02C1661.41 1225.4 1662.83 1220.25 1662.15 1214.43C1661.51 1208.95 1662.6 1204.58 1664.62 1204.58C1666.69 1204.58 1668.24 1202.65 1668.24 1200.07C1668.24 1192.79 1687.68 1178.71 1714.35 1166.68C1727.86 1160.59 1741.74 1154.17 1744.98 1152.5C1754.86 1147.45 1804.38 1132.33 1812.17 1131.99C1822.05 1131.57 1825.1 1127.86 1820.92 1121.34C1812.86 1108.73 1779.23 1113.59 1724.55 1135.26L1689.64 1149.09L1688.65 1141.34C1688.09 1136.99 1690.32 1129.09 1693.74 1123.27C1699.8 1112.95 1701.09 1093.06 1696.21 1085.2C1694.71 1082.8 1695.57 1079.49 1698.21 1077.47C1709.03 1069.2 1716.93 1031.3 1710.99 1016.14C1709.22 1011.62 1709.37 1007.45 1711.38 1005.49C1715.17 1001.78 1718.38 966.451 1715.36 961.611C1714.26 959.835 1713.73 945.159 1714.18 929.02C1714.64 912.889 1715.01 896.019 1715.01 891.588C1715.01 879.967 1706.91 849.639 1703.81 849.639C1702.28 849.639 1701.17 847.541 1701.17 844.642C1701.17 841.917 1697.43 834.797 1692.94 828.99C1688.45 823.184 1684.7 817.465 1684.7 816.403C1684.7 813.635 1636.28 767.873 1621.13 756.321C1617.65 753.675 1609.6 751.054 1603.01 750.445C1580.28 748.321 1515.03 747.999 1498.6 749.94C1489.38 751.028 1479.09 750.785 1475.21 749.392C1460.26 744.012 1422.7 771.886 1413.18 795.441C1410.17 802.884 1402.05 815.611 1395.17 823.672C1388.26 831.785 1372.71 853.521 1360.43 872.228C1348.15 890.944 1332.67 914.056 1325.86 923.857C1309.06 947.996 1291.47 978.708 1259.86 1039.05C1251.75 1054.54 1243.27 1067.45 1241.2 1067.45C1239.23 1067.45 1236.23 1068.6 1234.94 1069.87C1233.5 1071.28 1234.12 1072.29 1236.43 1072.29C1243.12 1072.29 1240.33 1081.64 1225.19 1110.04C1217.11 1125.2 1210.4 1138.96 1210.4 1140.37C1210.4 1145.21 1195.35 1175.54 1192.95 1175.54C1189.74 1175.54 1189.98 1169.85 1193.28 1167.89C1197.58 1165.33 1196.04 1144.88 1191.11 1139.07C1184.9 1131.76 1188.66 1123.81 1197.89 1124.77C1201.84 1125.18 1205.36 1124.05 1205.63 1122.3C1205.9 1120.51 1207.88 1114.87 1210.04 1109.71C1215.05 1097.77 1213.36 1096.46 1203.16 1104.36C1198.55 1107.94 1193.68 1111 1192.62 1111C1189.6 1111 1190.33 1101.96 1193.88 1095.51C1195.6 1092.38 1197.67 1087.61 1198.71 1084.38C1199.67 1081.37 1203.97 1077.3 1207.93 1075.66C1214.75 1072.84 1214.51 1072.58 1204.96 1072.43C1198.71 1072.34 1193.84 1070.35 1192.7 1067.43C1190.68 1062.27 1198.21 1057.62 1203.48 1060.77C1208.18 1063.58 1212.94 1055.82 1215.23 1041.62C1216.84 1031.62 1216.5 1029.95 1213.69 1034.19C1211.77 1037.1 1207.74 1038.81 1205.12 1037.83C1199.85 1035.86 1198.74 1041.76 1203.81 1044.81C1207.76 1047.2 1208.28 1056.13 1204.46 1056.13C1200.7 1056.13 1193.92 1041.61 1193.92 1033.54C1193.92 1029.99 1195.2 1024.62 1196.76 1021.6C1206.92 1001.92 1207.9 997.493 1206.23 978.682C1204.49 959 1204.61 958.625 1214.02 955.448C1219.29 953.672 1223.64 950.556 1223.74 948.51C1223.83 946.395 1225.74 947.222 1228.18 950.443C1231.74 955.152 1231.72 959.313 1228.02 975.452C1223.8 993.846 1223.91 995.169 1230.16 1001.91L1236.75 1009L1234.76 989.807C1233.17 974.32 1234.16 967.644 1239.87 955.282C1243.74 946.891 1248.36 939.953 1250.08 939.953C1251.72 939.953 1253.2 937.046 1253.2 933.825C1253.2 930.595 1256.01 927.009 1259.13 926.243C1266.95 924.328 1269.49 911.566 1265.9 892.197C1264.17 882.839 1264.35 873.508 1266.38 867.841C1268.23 862.679 1268.81 857.299 1267.7 855.584C1266.65 853.956 1269.2 848.812 1273.13 844.616L1280.55 836.712H1271.82C1265.24 836.712 1263.09 835.171 1263.09 830.418C1263.09 826.866 1261.65 823.262 1259.8 822.131C1253.94 818.588 1256.5 810.806 1264.74 807.141C1273.96 803.032 1275.84 795.676 1268.36 792.917C1265.04 791.689 1263.98 786.693 1264.58 775.08C1265.04 766.044 1264.46 758.375 1263.26 757.653C1262.1 756.956 1261.73 750.393 1262.44 743.298C1263.35 734.262 1265.28 730.232 1268.69 730.232C1271.78 730.232 1272.89 728.3 1271.66 725.07C1270.55 722.171 1269.68 715.878 1269.68 710.707C1269.68 705.545 1267.51 699.434 1264.74 696.77C1259.42 691.678 1261.44 681.876 1268.69 677.602C1273.96 674.494 1274.19 663.465 1269.02 661.802C1266.19 660.897 1266.99 656.657 1271.82 646.977C1275.52 639.552 1277.38 633.424 1275.93 633.424C1271.65 633.424 1269.16 622.952 1272.64 619.548C1274.77 617.459 1274.77 614.229 1272.64 610.356C1269.85 605.307 1270.66 604.384 1277.91 604.384C1285.16 604.384 1285.99 603.487 1283.34 598.578C1278.66 589.864 1279.4 507.584 1284.16 507.584C1286.36 507.584 1288.34 504.999 1288.62 501.778C1289.56 491.132 1292.13 479.928 1295.68 471.128C1297.62 466.288 1299.31 458.793 1299.31 454.997C1299.31 451.08 1301.55 443.707 1304.31 438.545C1310.34 427.255 1310.33 426.932 1304.25 426.932C1301.62 426.932 1299.31 425.427 1299.31 423.703C1299.31 421.945 1300.96 420.473 1302.94 420.473C1304.91 420.473 1305.67 418.053 1304.58 415.146C1303.51 412.238 1304.7 407.477 1307.22 404.656C1310.7 400.757 1311.18 395.943 1309.19 384.974C1307.38 374.972 1307.75 369.044 1310.37 365.937C1315.81 359.486 1315.64 254.478 1310.18 249.133C1307.78 246.783 1307.33 243.161 1309.03 239.94C1310.54 237.059 1311.29 229.129 1310.67 222.678C1310.05 216.228 1310.73 206.661 1312.15 201.865C1313.6 196.981 1313.38 184.281 1311.66 173.634C1309.93 162.988 1308.21 150.645 1307.82 146.205C1306.71 133.618 1286.29 94.9586 1274.75 83.6073C1252.79 61.9841 1233.94 46.7329 1226.51 44.5914C1222.23 43.3553 1216.34 40.4566 1213.67 38.2716C1210.93 36.0345 1199.18 32.3696 1187.32 30.0454C1175.47 27.7212 1161.51 22.6896 1156.03 18.755C1142.86 9.30136 1133.92 6.82917 1124.75 10.111C1119.7 11.9129 1111.24 11.4776 1101.36 8.90096C1092.79 6.67248 1083.97 6.08923 1081.6 7.6126C1079.18 9.16209 1074.51 8.87485 1070.89 6.96845C1067.41 5.1317 1056.4 2.46797 1046.84 1.16222C1031.36 -0.883456 1029.21 -0.491755 1029.21 4.47009ZM1230.14 734.167C1230.14 736.343 1228.78 740.46 1227.34 742.715C1225.15 746.119 1224.14 745.622 1222.72 740.46C1221.76 736.909 1221.83 732.948 1222.89 731.912C1226.14 728.726 1230.14 729.971 1230.14 734.167ZM1055.07 1278.99C1054.41 1280.92 1052.58 1282.37 1050.79 1282.37C1049 1282.37 1047.09 1280.92 1046.35 1278.99C1045.64 1277.19 1047.66 1275.6 1050.63 1275.6C1053.6 1275.6 1055.69 1277.19 1055.07 1278.99ZM1406.67 1437.74C1405.58 1443.55 1402.62 1464.04 1400.04 1483.72C1393.96 1530.19 1391.98 1536.75 1372.21 1576.32C1357.05 1606.65 1353.53 1611.31 1338.49 1620.79C1316.31 1634.77 1313.63 1631.82 1318.83 1599.23C1323.87 1567.6 1329.21 1545.79 1332.87 1541.79C1334.29 1540.23 1335.52 1535.82 1335.52 1532.27C1335.52 1528.66 1342.26 1514.36 1350.34 1500.81C1358.43 1487.25 1365.17 1474.64 1365.17 1473.06C1365.17 1470.15 1404.64 1427.27 1407.33 1427.25C1408.07 1427.25 1407.78 1431.92 1406.67 1437.74ZM1052.27 1444.67C1052.27 1453.7 1039.83 1458.88 1036.78 1451.12C1033.99 1444.02 1038.45 1436.92 1045.69 1436.92C1050.35 1436.93 1052.27 1439.18 1052.27 1444.67ZM1052.27 1548.25C1052.27 1550.83 1050.74 1553.09 1048.98 1553.09C1047.22 1553.09 1045.68 1550.83 1045.68 1548.25C1045.68 1545.66 1047.22 1543.41 1048.98 1543.41C1050.74 1543.41 1052.27 1545.66 1052.27 1548.25Z" fill="#ADADAD"/>
<path d="M1276.24 692.062C1272.55 699.165 1272.67 699.287 1278.22 693.994C1281.51 690.86 1283.26 687.491 1282.17 686.412C1281.08 685.341 1278.43 687.866 1276.24 692.062Z" fill="#ADADAD"/>
<path d="M1217.61 1011.66C1213 1016.17 1212.38 1023.92 1216.63 1023.92C1219.27 1023.92 1224.43 1010.66 1222.54 1008.76C1221.97 1008.19 1219.92 1009.4 1217.61 1011.66Z" fill="#ADADAD"/>
<path d="M1227.9 1038.44C1226.75 1041.34 1227.73 1045.3 1230.14 1047.48C1233.57 1050.58 1234.02 1050.22 1232.45 1045.7C1231.32 1042.47 1231.81 1040.05 1233.6 1040.05C1235.48 1040.05 1236.73 1038.76 1236.73 1036.82C1236.72 1031.74 1230.07 1032.96 1227.9 1038.44Z" fill="#ADADAD"/>
<path d="M1045.69 1172.51C1045.69 1174.44 1047.1 1175.07 1048.98 1173.96C1050.96 1172.8 1052.28 1171.45 1052.28 1170.57C1052.28 1169.7 1050.97 1169.12 1048.98 1169.12C1047.09 1169.12 1045.69 1170.57 1045.69 1172.51Z" fill="#ADADAD"/>
<path d="M1046.02 1190.41C1046.22 1194.29 1046.95 1195 1047.99 1192.35C1048.88 1190.09 1048.73 1187.25 1047.66 1186.22C1046.62 1185.2 1045.84 1187.19 1046.02 1190.41Z" fill="#ADADAD"/>
<path d="M1032.46 1489.53C1032.48 1491.74 1033.76 1495.33 1035.43 1497.92C1039.13 1503.63 1043.08 1497.6 1040.3 1490.49C1037.88 1484.36 1032.38 1483.68 1032.46 1489.53Z" fill="#ADADAD"/>
<path d="M359.901 688.622C358.986 689.518 351.175 691.094 342.28 692.173C333.385 693.253 323.389 695.612 319.719 697.501C314.449 700.208 312.539 699.86 310.184 695.725C306.061 688.508 264.714 688.613 248.577 695.873C240.544 699.485 226.114 714.119 203.836 741.217C172.806 778.971 143.651 818.465 143.1 823.497C142.958 824.742 137.893 834.143 131.789 844.467C94.5919 907.387 59.4033 984.626 44.6259 1035.8C5.96289 1169.71 -5.92656 1255.99 2.63066 1340.4C4.8255 1362.01 20.5892 1387.65 39.0988 1399.7C48.3224 1405.7 59.19 1411.2 63.8018 1412.19C68.4137 1413.18 74.936 1415.05 78.6237 1416.44C102.34 1425.34 109.725 1427.28 121.445 1427.69C128.687 1427.95 137.884 1429.25 141.865 1430.58C145.82 1431.91 152.031 1431.46 155.532 1429.62C160.775 1426.85 162.925 1427.68 167.226 1434.14C171.314 1440.27 174.966 1441.9 183.532 1441.4C189.459 1441.05 197.003 1438.73 199.838 1436.39C202.663 1434.06 208.235 1433 211.86 1434.14C215.992 1435.42 224.87 1433.14 234.751 1428.27C252.869 1419.32 261.809 1411.59 269.566 1398.17C277.777 1383.97 282.486 1376.91 290.208 1367.19C294.314 1362.03 297.655 1356.1 297.655 1353.96C297.655 1348.34 315.107 1332.67 321.372 1332.67C329.227 1332.67 340.476 1315.56 340.476 1303.63C340.476 1297.19 345.168 1286.86 353.654 1274.59C360.799 1264.27 366.832 1254.66 366.832 1253.62C366.832 1250.88 386.861 1226.19 406.89 1204.25C415.43 1194.9 424.431 1183.79 426.768 1179.73C434.748 1165.86 448.415 1147.16 453.791 1142.75C456.759 1140.32 459.06 1136.95 459.06 1135.05C459.06 1133.21 463.13 1126.5 467.955 1120.37C472.78 1114.24 477.019 1106.72 477.223 1103.92C477.685 1097.47 497.634 1068.11 501.553 1068.11C503.215 1068.11 507.853 1062.78 512.092 1056.01C516.33 1049.23 520.827 1043.43 522.302 1042.82C525.723 1041.41 527.722 1039.39 557.668 1007.12C571.139 992.6 583.677 980.988 585.872 980.988C588.049 980.988 592.492 978.089 595.753 974.537C599.015 970.986 602.569 968.957 603.662 970.019C604.746 971.081 605.715 1046.97 605.804 1138.61C605.91 1248.96 607.252 1313.44 609.758 1329.47C611.837 1342.78 615.063 1365.28 616.911 1379.48C620.234 1404.96 631.964 1447.47 637.304 1453.36C638.975 1455.21 640.228 1458.53 640.228 1461.11C640.228 1466.92 658.577 1504.99 664.176 1510.8C666.379 1513.08 674.572 1523.38 682.143 1533.39C698.511 1555 712.862 1566.36 732.118 1572.94C748.913 1578.66 789.006 1581.42 802.273 1577.74C814.855 1574.26 844.952 1542.1 862.795 1513.06C864.582 1510.16 867.869 1505.52 869.789 1503.22C871.815 1500.78 877.324 1491.76 882.3 1482.73C887.17 1473.9 899.095 1459.14 908.647 1450.14C918.2 1441.13 927.148 1430.32 928.41 1426.26C929.672 1422.21 937.305 1412.75 945.204 1405.44C953.113 1398.14 959.697 1390.88 959.697 1389.47C959.697 1388.07 970.583 1376.08 983.574 1363.17C996.565 1350.26 1017.59 1329.09 1029.68 1316.7C1041.98 1304.12 1052.58 1293.96 1053.4 1293.96C1054.23 1293.96 1060.15 1289.2 1066.74 1283.25C1081.34 1270.07 1080.9 1261.48 1065.42 1257.11C1055.91 1254.42 1051.59 1255.31 1036.77 1262.98C1027.21 1267.92 1012.05 1279.61 1003.29 1288.79C968.797 1324.93 807.942 1481.1 805.214 1481.1C801.873 1481.1 798.505 1469.81 798.39 1458.19C798.336 1453.48 796.204 1443.99 793.529 1436.57C790.383 1427.86 789.877 1422.63 792.045 1421.24C793.956 1420.02 794.507 1417.05 793.36 1414.15C792.267 1411.38 793.734 1403.18 796.657 1395.75C800.798 1385.22 801.224 1379.3 798.63 1368C796.559 1358.97 796.497 1352.51 798.461 1350.58C800.22 1348.85 801.589 1343.48 801.589 1338.32C801.589 1333.14 803.748 1324.12 806.529 1317.67C809.311 1311.22 810.652 1304.94 809.604 1303.31C805.25 1296.53 805.534 1246.19 810.039 1226.51C812.767 1214.58 813.585 1204.37 811.968 1202.31C807.649 1196.83 805.259 1184.41 808.173 1182.63C809.639 1181.73 811.825 1171.02 813.114 1158.43C814.402 1145.85 816.73 1135.06 818.383 1134.07C820.045 1133.07 821.351 1128.74 821.351 1124.23C821.351 1119.75 824.355 1109.71 828.105 1101.64C831.854 1093.57 833.907 1085.68 832.716 1083.89C831.517 1082.08 832.094 1078.89 834.031 1076.63C835.933 1074.41 839.701 1063.89 842.402 1053.24C847.556 1032.91 853.456 1015.19 858.077 1006.13C860.743 1000.9 867.087 976.766 869.353 963.212C869.94 959.695 871.148 953.532 872.01 949.658C874.17 939.979 863.569 912.949 855.935 908.658C852.497 906.717 843.753 899.544 836.502 892.71C825.847 882.665 816.082 877.964 785.452 868.145C699.817 840.698 674.901 835.762 650.74 841.464C642.174 843.484 629.813 846.052 623.069 847.218C616.484 848.35 608.46 851.98 605.617 855.122C601.129 860.067 600.987 862.06 604.631 868.51C607.003 872.706 611.046 877.755 613.685 879.801C617.737 882.943 616.982 884.937 608.745 892.867C603.307 898.107 591.781 907.004 582.558 913.08C530.264 947.56 427.577 1044.52 317.248 1163.58C296.917 1185.51 281.527 1198.66 279.101 1196.17C278.061 1195.09 281.749 1185.52 287.436 1174.55C293.123 1163.58 297.646 1152.44 297.646 1149.39C297.646 1146.31 299.69 1140.35 302.293 1135.83C312.148 1118.74 320.696 1099.09 320.696 1093.56C320.696 1090.33 322.011 1086.96 323.664 1085.98C325.272 1085.02 327.61 1079.85 328.765 1074.69C329.929 1069.53 333.092 1063.4 335.678 1061.3C338.335 1059.15 342.867 1052.26 345.888 1045.81C348.909 1039.36 353.814 1031.33 356.924 1027.74C359.963 1024.24 363.429 1013.38 364.504 1004.03C365.721 993.384 369.445 982.877 374.217 976.6C378.393 971.116 382.943 963.839 384.098 960.792C385.324 957.563 387.581 955.143 389.367 955.143C391.109 955.143 396.227 947.395 400.892 937.715C405.557 928.035 412.142 919.356 415.714 918.19C419.171 917.058 426.244 910.286 431.034 903.505C435.85 896.689 447.171 886.338 455.737 880.915C464.303 875.501 473.358 868.772 475.499 866.238C477.756 863.566 482.412 861.564 486.367 861.564C490.259 861.564 498.39 858.117 504.974 853.66C511.408 849.307 525.563 844.154 536.43 842.204C547.298 840.254 563.604 837.277 572.659 835.588C581.882 833.873 595.647 831.653 603.946 830.548C622.394 828.093 630.293 821.521 630.293 808.646C630.293 801.221 627.699 796.981 620.243 792.194C614.645 788.599 609.411 782.74 608.407 778.962C602.667 757.182 556.175 735.698 462.304 711.429C443.199 706.493 416.07 699.102 401.701 694.924C376.376 687.551 363.047 685.54 359.901 688.622Z" fill="#ADADAD"/>
</svg>
