<svg width="1305" height="1376" viewBox="0 0 1305 1376" fill="none" xmlns="http://www.w3.org/2000/svg">
<path d="M1185.36 584.218C1185.91 592.916 1186.99 605.615 1187.41 618.332C1187.62 624.855 1188.94 630.866 1191.73 636.731C1196.67 647.146 1201.34 657.671 1206.09 668.177C1215.35 688.642 1219.19 710.367 1220.96 732.567C1223.35 762.606 1222.26 792.572 1219.66 822.519C1215.65 868.911 1197.58 909.183 1166.4 943.588C1148.83 962.975 1129.96 980.991 1107.31 994.475C1103.12 996.979 1101.81 1000.58 1100.62 1004.73C1093.84 1028.55 1084.42 1051.21 1069.13 1070.91C1041.09 1107.03 1006.24 1134.69 964.626 1153.75C935.108 1167.29 904.219 1175.66 871.777 1177.78C863.046 1178.34 855.466 1180.81 848.031 1185.58C815.096 1206.76 779.002 1221.05 741.756 1232.32C676.051 1252.22 609.415 1255.42 542.176 1241.16C505.953 1233.47 473.749 1216.88 444.139 1194.95C434.878 1188.1 425.526 1181.34 416.465 1174.23C410.803 1169.79 405.085 1168.5 397.87 1170.1C370.05 1176.32 342.394 1174.25 314.995 1167.18C291.54 1161.13 271.228 1149.51 254.057 1132.46C223.644 1102.3 198.344 1068.48 180.188 1029.48C177.009 1022.63 173.502 1015.84 169.374 1009.53C146.997 975.381 133.663 938.016 129.279 897.507C127.708 883.072 127.726 868.455 126.484 853.965C125.991 848.337 124.511 842.673 122.575 837.338C117.022 821.953 110.519 806.879 105.295 791.384C97.3121 767.741 95.3576 743.311 98.2072 718.571C101.934 686.303 106.098 654.126 115.451 622.845C117.332 616.541 117.862 609.726 118.209 603.093C119.78 572.762 122.264 542.559 128.895 512.83C137.17 475.684 152.989 441.954 172.881 409.558C210.802 347.799 262.223 300.621 324.311 264.352C342.395 253.791 361.702 248.62 382.745 252.055C387.33 252.804 390.983 251.141 394.728 248.949C410.675 239.575 426.768 230.403 442.678 220.975C501.405 186.13 565.539 166.287 632.084 153.752C651.337 150.116 671.284 150.226 690.902 148.454C699.926 147.631 709.278 147.65 717.845 145.128C756.205 133.818 794.4 135.883 833.052 143.52C891.524 155.086 938.304 185.546 977.048 229.745C992.081 246.884 1005.87 264.955 1017.51 284.597C1022.35 292.765 1028.43 299.763 1034.92 306.633C1046.99 319.405 1059.32 332.122 1069.9 346.1C1088.93 371.242 1108.17 396.421 1124.77 423.171C1154.78 471.445 1176.34 523.41 1185.36 584.218ZM726.504 234.989C726.029 235.884 725.535 236.798 725.061 237.693C726.778 238.278 728.677 238.552 730.193 239.466C755.584 254.905 780.883 270.473 806.292 285.858C809.616 287.868 813.361 289.421 817.106 290.426C870.572 304.678 917.48 330.916 959.037 367.222C982.838 388.015 1005.23 410.124 1025.6 434.316C1028.12 437.313 1030.31 440.858 1034.59 442.118C1033.02 438.062 1031.03 434.408 1028.69 430.954C1009.58 402.724 988.574 376.029 962.635 353.756C942.159 336.178 921.042 319.368 899.926 302.558C851.301 263.877 794.693 244.673 734.157 235.336C731.637 234.953 729.043 235.099 726.504 234.989ZM796.3 1181.73C795.496 1180.94 795.095 1180.17 794.674 1180.15C778.691 1179.66 762.744 1177.52 746.798 1181.52C717.352 1188.91 687.559 1194.79 657.145 1195.45C630.221 1196.05 603.241 1195.74 576.316 1194.95C557.556 1194.41 538.851 1192.32 520.11 1190.99C517.918 1190.84 515.689 1191.1 511.36 1191.23C514.703 1193.27 516.073 1194.52 517.662 1195.03C531.179 1199.45 544.496 1204.71 558.305 1207.85C599.186 1217.19 640.633 1217.21 682.152 1213.13C719.891 1209.43 755.584 1197.84 790.838 1184.63C792.72 1183.95 794.4 1182.77 796.3 1181.73ZM171.657 486.464C172.242 486.811 172.808 487.158 173.392 487.506C174.963 484.966 176.351 482.298 178.105 479.904C185.631 469.636 193.266 459.458 200.829 449.208C210.546 436.052 220.465 423.061 229.836 409.668C240.613 394.265 250.66 378.35 261.474 362.983C287.303 326.275 320.493 297.259 357.337 272.117C360.077 270.254 363.565 269.011 365.392 265.119C344.532 268.573 290.791 307.729 257.035 343.615C220.319 382.662 174.397 459.495 171.657 486.464ZM941.665 694.672C940.953 694.745 940.241 694.818 939.51 694.891C938.98 697.175 938.341 699.44 937.939 701.743C931.546 740.168 921.371 777.589 908.219 814.206C904.529 824.456 900.986 835.036 895.451 844.299C889.88 853.6 893.095 860.433 897.351 868.181C898.428 867.559 899.086 867.377 899.433 866.957C920.038 841.467 936.423 813.639 945.775 782.047C947.291 776.895 948.187 771.249 947.894 765.913C946.817 745.321 945.191 724.765 943.62 704.209C943.382 700.993 942.341 697.851 941.665 694.672ZM1067.5 1026.09C1066.75 1025.56 1066.01 1025.04 1065.26 1024.51C1060.4 1029.01 1055.34 1033.28 1050.7 1038C1021.64 1067.56 987.88 1090.24 950.141 1107.19C946.269 1108.93 942.451 1110.79 938.67 1112.69C930.249 1116.88 911.562 1133.69 906.192 1141.84C906.721 1142.06 907.269 1142.5 907.763 1142.44C909.26 1142.26 910.74 1141.95 912.22 1141.58C961.247 1129.63 1003 1105.11 1037.98 1068.86C1047.92 1058.55 1056.65 1047.34 1063.52 1034.75C1065.02 1031.97 1066.17 1028.97 1067.5 1026.09ZM410.291 341.349C410.711 341.952 411.131 342.537 411.533 343.14C419.315 342.464 424.539 336.288 431.206 333.237C437.819 330.222 444.139 326.586 450.715 323.498C457.565 320.282 464.561 317.34 471.539 314.435C478.243 311.639 485.02 308.99 491.778 306.322C498.811 303.527 505.844 300.695 512.931 298.009C520.018 295.323 527.106 292.655 534.285 290.261C541.189 287.959 548.149 285.876 555.182 283.994C562.488 282.021 569.868 280.285 577.266 278.677C584.372 277.142 591.587 276.082 598.674 274.511C605.67 272.976 613.251 273.872 619.809 269.34C607.314 266.344 594.802 264.461 582.326 262.397C566.288 259.747 551.254 262.415 536.33 268.902C493.349 287.594 454.222 313.119 414.219 337.055C412.629 338.005 411.588 339.887 410.291 341.349ZM729.846 871.671C725.663 867.486 722.302 869.825 719.106 870.94C698.044 878.303 676.636 880.697 654.68 875.709C649.419 874.521 644.523 875.197 639.646 877.408C632.467 880.66 625.252 883.858 617.927 886.763C599.368 894.145 580.262 895.862 560.808 891.24C551.09 888.919 541.573 885.795 531.947 883.109C530.229 882.634 528.403 882.561 526.631 882.287C555.035 902.641 587.349 904.834 620.411 904.852C660.196 904.871 695.231 890.436 729.846 871.671ZM177.557 947.48C176.991 947.791 176.424 948.12 175.858 948.431C176.187 949.856 176.333 951.354 176.863 952.724C185.43 974.724 193.887 996.759 202.765 1018.61C204.299 1022.39 207.222 1025.87 210.236 1028.74C219.899 1037.91 229.544 1047.15 239.828 1055.59C255.026 1068.07 270.68 1080.04 286.353 1091.92C291.486 1095.81 297.294 1098.83 303.797 1100.1C281.603 1075.62 258.624 1052.12 236.722 1027.64C214.565 1002.83 195.568 975.491 177.557 947.48ZM1186.35 673.038C1185.82 673.147 1185.3 673.257 1184.77 673.367C1182.77 684.366 1180.46 695.311 1178.91 706.365C1178.35 710.422 1179.46 714.752 1179.95 718.936C1181.03 727.944 1182.51 736.916 1183.2 745.942C1183.83 754.091 1183.17 762.332 1183.88 770.463C1185.32 786.67 1183.83 802.548 1179.97 818.262C1174.22 841.796 1168.35 865.312 1162.56 888.846C1162.31 889.924 1162.29 891.057 1161.96 894.09C1164.46 891.221 1165.96 889.888 1166.98 888.261C1174.34 876.677 1179.77 864.216 1183.7 851.078C1190.88 827.069 1192.39 802.256 1194.44 777.479C1197.1 744.919 1194.66 712.724 1188.54 680.73C1188.06 678.117 1187.09 675.596 1186.35 673.038ZM1042.3 500.515C1041.86 500.808 1041.42 501.082 1041 501.356C1042.84 505.01 1044.78 508.61 1046.5 512.337C1055.58 532.144 1065.02 551.804 1073.5 571.885C1078.81 584.474 1079.25 597.721 1074.88 611.041C1073.6 614.915 1073.31 619.428 1073.79 623.521C1074.59 630.409 1076.13 637.261 1077.84 644.004C1078.57 646.909 1080.56 649.485 1082.17 652.573C1087.29 647.384 1087.23 647.366 1088.07 640.77C1091.23 615.902 1088.02 591.162 1086.76 566.385C1086.39 559.113 1084.09 552.882 1079.61 547.2C1069.86 534.83 1060.34 522.277 1050.63 509.888C1048.01 506.581 1045.07 503.621 1042.3 500.515ZM452.688 814.06C454.314 806.312 455.026 798.967 457.51 792.28C459.794 786.14 459.264 781.645 455.41 776.42C443.609 760.432 435.225 742.745 429.763 723.596C428.393 718.772 425.544 714.295 423.005 709.892C420.137 704.922 416.904 700.153 413.707 695.384C412.885 694.16 411.698 693.21 410.054 691.474C411.314 718.553 440.468 801.964 452.688 814.06ZM403.003 638.723C404.227 636.604 404.884 635.909 405.049 635.105C409.853 610.329 420.502 588.147 434.385 567.28C437.143 563.151 438.696 557.962 439.828 553.047C442.44 541.554 444.486 529.933 446.66 518.348C446.916 516.942 446.623 515.443 446.532 511.972C417.342 550.196 399.989 590.138 403.003 638.723ZM642.368 367.46C646.971 368.794 650.04 369.817 653.163 370.566C683.175 377.856 713.078 385.476 741.08 399.015C743.4 400.13 746.487 400.879 748.898 400.349C757.027 398.558 765.028 396.11 773.156 393.899C761.301 381.2 672.855 362.965 642.368 367.46ZM364.972 1148.49C358.396 1141.82 351.455 1136.14 342.066 1134.64C312.127 1129.81 285.129 1118.32 261.382 1099.32C260.031 1098.24 258.204 1097.75 254.843 1096.14C283.32 1134.51 320.803 1148.73 364.972 1148.49ZM320.639 697.558C320.347 698.362 319.799 699.166 319.799 699.952C319.945 715.684 319.78 731.434 320.584 747.13C320.822 751.625 323.123 756.54 325.827 760.267C336.823 775.342 344.824 791.823 350.962 809.364C353.957 817.897 357.757 826.174 361.428 834.451C362.524 836.936 364.387 839.092 365.904 841.412C346.395 794.728 332.494 746.618 320.639 697.558ZM825.819 786.871C836.487 767.576 854.57 694.872 851.374 681.899C843.099 716.89 828.979 747.861 812.338 778.338C817.307 781.481 821.307 784.002 825.819 786.871ZM954.47 237.273C936.35 205.882 854.479 163.583 823.517 168.352C845.711 177.652 868.8 186.697 891.359 196.965C914.193 207.38 934.45 222.18 954.47 237.273ZM860.909 538.904C860.525 530.645 860.306 523.812 859.795 516.996C859.685 515.644 858.754 513.945 857.676 513.159C850.625 508.061 843.081 503.895 832.961 500.351C835.354 507.422 838.039 512.593 838.715 518.02C840.268 530.426 848.78 534.903 860.909 538.904ZM493.422 467.096C502.227 466.402 513.15 459.641 522.923 449.062C512.365 452.935 502.884 458.526 493.422 467.096ZM853.31 898.621C860.251 902.349 862.608 901.417 868.106 893.378C860.489 890.089 860.306 890.143 853.31 898.621ZM853.712 651.842C856.744 642.542 856.507 641.464 850.68 636.512C851.83 642.341 852.762 647.092 853.712 651.842ZM859.703 1146.57C859.356 1146.04 859.009 1145.49 858.644 1144.96C857.639 1145.66 856.653 1146.33 855.648 1147.03C855.886 1147.43 856.105 1147.81 856.342 1148.21C857.475 1147.65 858.589 1147.1 859.703 1146.57Z" fill="black"/>
<path d="M884.595 1285.37C871.826 1287.09 861.707 1282.37 856.519 1273.33C851.368 1264.36 852.537 1253.19 859.551 1244.4C865.031 1237.53 872.338 1233.09 880.375 1230.23C902.076 1222.48 923.868 1214.99 945.733 1207.71C964.73 1201.41 984.239 1196.5 1002.85 1189.3C1039.09 1175.28 1069.32 1153.37 1089.64 1119.21C1097.38 1106.18 1106.13 1093.75 1114.68 1081.22C1121.84 1070.73 1131.23 1062.42 1142.83 1057.36C1168.55 1046.14 1189.15 1027.57 1210.87 1010.65C1217.27 1005.66 1222.45 999.141 1228.19 993.294C1229.67 991.778 1230.89 989.969 1232.54 988.672C1238.82 983.683 1246.44 986.351 1247.51 994.263C1248.03 998.027 1247.42 1002.21 1246.27 1005.88C1235.22 1041.02 1217.37 1071.57 1184.66 1090.72C1168.97 1099.91 1156.49 1111.39 1148.56 1127.87C1145.55 1134.13 1141.22 1139.74 1137.97 1145.9C1119.96 1179.92 1092.67 1204.75 1060.61 1225C1040.39 1237.77 1018.34 1246.07 995.418 1252.39C968.53 1259.81 941.659 1267.34 914.844 1275.05C907.866 1277.06 901.144 1279.94 894.276 1282.32C890.568 1283.58 886.787 1284.68 884.595 1285.37Z" fill="black"/>
<path d="M3.3164 792.463C-3.22303 741.777 -0.373464 691.895 14.3859 642.927C19.7928 624.966 26.0217 607.242 31.8488 589.409C32.5064 587.399 33.6937 585.206 33.3649 583.324C32.6525 579.14 35.1733 577.331 37.8037 575.175C46.736 567.811 54.7915 570.187 57.0018 581.57C60.4176 599.111 63.7421 616.707 65.8245 634.43C66.9022 643.603 66.4638 653.36 64.5276 662.386C52.6178 717.732 57.5498 772.109 72.3639 826.102C74.2089 832.826 76.0538 839.568 77.2594 846.42C79.0313 856.524 76.7662 865.752 69.3865 873.28C56.7095 886.234 35.8674 884.206 25.0718 868.949C18.8247 860.124 15.5733 849.965 13.1986 839.623C9.6001 823.982 6.58611 808.195 3.3164 792.463Z" fill="black"/>
<path d="M373.253 1246.44C347.131 1249.48 321.851 1247.38 296.771 1239.35C263.398 1228.67 232.929 1213.12 206.589 1189.82C187.738 1173.16 168.649 1156.77 149.962 1139.92C146.017 1136.36 142.729 1131.72 140.263 1126.98C136.555 1119.88 137.76 1112.69 143.149 1106.72C148.318 1101 155.241 1099.25 162.274 1101.82C167.535 1103.76 172.558 1106.98 176.942 1110.56C194.113 1124.52 211.046 1138.77 227.961 1153.06C256.128 1176.85 287.948 1193.95 322.928 1205.41C331.276 1208.13 339.423 1211.49 347.57 1214.76C365.179 1221.85 383.153 1226.78 402.388 1225.54C403.593 1225.47 404.836 1225.41 406.005 1225.65C411.028 1226.62 412.489 1230.46 408.836 1234.18C406.589 1236.47 403.52 1238.42 400.47 1239.34C391.483 1242 382.331 1244.11 373.253 1246.44Z" fill="black"/>
<path d="M1189.59 474.025C1186.15 468.269 1184.98 461.874 1186.65 455.351C1188.14 449.541 1192.58 445.649 1198.65 446.087C1204.24 446.489 1210.19 447.677 1215.12 450.217C1230.76 458.275 1243.33 470.078 1252.99 484.805C1267.79 507.389 1277.12 532.33 1283.99 558.258C1294.89 599.461 1300.52 641.559 1304.05 683.932C1304.79 692.921 1304.05 702.112 1303.28 711.138C1302.73 717.588 1299.92 723.417 1294.86 727.821C1285.61 735.86 1274.53 732.261 1272.19 720.311C1271.57 717.095 1271.97 713.697 1271.9 710.371C1271.64 698.275 1272.55 686.015 1270.93 674.12C1265.83 637.174 1260.37 600.228 1253.89 563.502C1248.73 534.322 1238.4 506.731 1222.21 481.699C1217.81 474.902 1212.04 468.964 1206.67 462.824C1205.11 461.052 1202.9 459.736 1200.77 458.64C1194.7 455.497 1191.41 457.562 1191.65 464.286C1191.76 467.429 1192.07 470.572 1192.29 473.714C1191.38 473.824 1190.48 473.934 1189.59 474.025Z" fill="black"/>
<path d="M493.755 106.05C504.35 105.465 514.944 104.515 525.539 104.406C531.53 104.351 537.613 105.319 543.532 106.507C546.345 107.073 549.139 108.827 551.459 110.654C554.272 112.884 555.478 116.355 553.633 119.626C551.843 122.787 549.395 124.377 544.792 123.902C539.659 123.39 533.923 124.632 529.083 126.661C519.036 130.845 509.373 135.997 499.6 140.858C493.901 143.69 488.494 147.235 482.613 149.573C468.767 155.037 457.46 164.063 446.609 173.857C441.422 178.534 436.27 183.248 430.79 187.542C425.657 191.544 419.812 193.901 413.017 193.024C402.368 191.653 395.225 183.047 397.326 172.596C398.294 167.79 400.614 162.51 403.957 159.056C414.058 148.605 424.488 138.355 435.686 129.091C455.213 112.92 467.323 108.645 493.755 106.05Z" fill="black"/>
<path d="M1081.42 160.537C1079.7 148.35 1088.71 140.895 1098.42 144.915C1101.91 146.358 1105.22 149.026 1107.72 151.913C1136 184.419 1164.15 217.015 1192.19 249.722C1196.46 254.71 1201.15 259.753 1198.94 267.574C1198.51 269.127 1200.31 271.392 1201.23 273.274C1203.36 277.623 1206.07 281.771 1207.6 286.321C1208.94 290.231 1209.65 294.616 1209.48 298.745C1209.23 305.122 1205.01 308.009 1198.83 306.109C1195.18 304.976 1191.66 302.838 1188.66 300.408C1185.9 298.161 1183.6 295.146 1181.68 292.094C1156.2 251.641 1125.11 215.517 1094.62 178.937C1091.52 175.21 1088.16 171.665 1085.31 167.755C1083.39 165.087 1082.17 161.963 1081.42 160.537Z" fill="black"/>
<path d="M502.746 1374.58C479.492 1378.84 447.16 1357.13 460.678 1322.6C464.568 1312.66 471.565 1306.01 481.611 1302.63C498.069 1297.09 521.378 1302.1 529.049 1320.37C530.419 1323.6 534.383 1325.83 537.342 1328.3C542.731 1332.79 542.676 1334.53 537.233 1339.3C535.845 1340.52 534.749 1342.53 534.328 1344.38C530.328 1362.39 520.409 1371.97 502.746 1374.58Z" fill="black"/>
<path d="M1119.28 1283.67C1111.7 1283.51 1105.36 1282.12 1100.21 1277.04C1092.67 1269.6 1093.86 1258.66 1102.82 1252.98C1104.6 1251.86 1106.59 1250.77 1108.61 1250.45C1126.83 1247.66 1140.71 1236.75 1154.79 1226.19C1157.22 1224.38 1159.41 1222.15 1162.03 1220.73C1167.58 1217.67 1172.66 1220.96 1172.24 1227.25C1172.11 1229.3 1171.4 1231.45 1170.43 1233.28C1162.32 1248.74 1152.44 1262.92 1138.15 1273.29C1132.42 1277.48 1125.62 1280.26 1119.28 1283.67Z" fill="black"/>
<path d="M772.939 21.0902C761.522 20.067 752.937 12.9227 742.288 15.3711C741.849 17.7647 741.502 20.3958 740.863 22.9356C739.383 28.8557 736.004 33.2775 730.268 35.6346C719.053 40.2574 701.937 31.7244 698.777 19.9756C696.091 9.98093 702.138 1.53938 713.189 0.388254C726.651 -1.0004 739.767 1.4297 752.261 6.18038C758.362 8.48263 763.806 12.5573 769.413 16.0107C770.491 16.6502 771.003 18.2033 772.939 21.0902Z" fill="black"/>
<path d="M77.3169 1013.26C75.4902 1012.62 72.1657 1011.96 69.4075 1010.34C65.261 1007.91 63.7448 1002.88 65.5714 999.357C67.6356 995.41 71.1428 995.173 74.9788 996.013C77.0429 996.47 79.2166 996.653 81.1894 997.384C85.2811 998.882 87.5644 1002.87 86.7241 1006.7C85.7925 1010.89 82.7238 1012.51 77.3169 1013.26Z" fill="black"/>
<path d="M717.567 475.234C717.567 444.171 719.723 427.526 764.312 427.526H823.952V308.266H728.6C614.124 308.266 587.765 367.43 587.765 464.709L587.911 534.891L501.474 534.964V654.151H587.911V1000.02H717.513L717.586 654.151L812.024 654.078L824.628 534.891H717.44L717.567 475.234Z" fill="white"/>
</svg>
