<svg width="1317" height="1343" viewBox="0 0 1317 1343" fill="none" xmlns="http://www.w3.org/2000/svg">
<path d="M682.334 1233.97C673.767 1233.31 661.181 1232.65 648.687 1231.32C642.257 1230.62 636.229 1231.15 630.11 1233.16C619.26 1236.74 608.336 1240.05 597.431 1243.45C576.169 1250.05 554.414 1250.94 532.439 1249.66C502.738 1247.93 473.547 1242.66 444.595 1235.85C399.75 1225.31 362.742 1201.3 333.242 1164.74C316.601 1144.12 301.513 1122.4 291.339 1097.42C289.457 1092.8 286.096 1090.95 282.205 1089.18C259.792 1078.97 238.895 1066.2 221.652 1047.89C190.05 1014.29 167.637 974.928 154.522 929.851C145.206 897.875 141.133 865.224 143.398 831.859C144.001 822.888 142.612 814.794 138.922 806.571C122.592 770.064 113.44 731.273 107.376 691.733C96.6716 621.989 102.426 553.616 125.35 487.052C137.698 451.184 158.23 420.67 183.639 393.518C191.585 385.022 199.439 376.434 207.604 368.175C212.701 363.004 214.747 357.377 214.125 349.794C211.751 320.559 217.469 292.658 228.045 265.707C237.087 242.63 251.17 223.554 270.149 208.388C303.723 181.565 340.183 160.461 380.772 147.397C387.896 145.095 395.019 142.482 401.741 139.138C438.128 121.067 476.488 112.662 516.693 113.813C531.032 114.234 545.317 116.28 559.674 117.011C565.227 117.303 570.981 116.554 576.461 115.348C592.261 111.822 607.88 107.29 623.735 104.111C647.938 99.269 672.105 100.658 695.924 106.998C726.996 115.275 757.921 123.991 787.275 137.877C793.194 140.673 799.788 142.153 806.236 143.432C835.7 149.243 864.926 155.985 893.13 166.875C928.384 180.487 959.255 201.28 988.299 226.057C1043.66 273.308 1082.97 332.271 1110.19 400.608C1118.12 420.506 1120.59 440.916 1114.43 461.873C1113.08 466.441 1114.23 470.406 1115.87 474.517C1122.9 492.095 1129.74 509.746 1136.86 527.286C1163.11 591.987 1173.98 660.141 1177.38 729.702C1178.36 749.837 1175.6 770.155 1174.73 790.401C1174.33 799.719 1173.06 809.257 1174.4 818.338C1180.35 859.011 1173.25 897.656 1160.61 936.027C1141.48 994.04 1105.44 1037.49 1057.04 1070.85C1038.26 1083.79 1018.73 1095.36 997.98 1104.48C989.34 1108.28 981.686 1113.5 974.087 1119.17C959.967 1129.69 945.902 1140.49 930.814 1149.35C903.67 1165.27 876.471 1181.36 848.085 1194.57C796.738 1218.45 743.034 1233.22 682.334 1233.97ZM376.077 526.866C375.017 527.908 373.502 528.73 372.99 530.009C363.656 553.324 354.322 576.639 345.28 600.063C341.645 609.51 341.133 619.449 342.595 629.535C352.458 698.146 369.72 764.4 399.824 826.615C400.828 828.698 402.253 830.562 403.605 832.718C409.213 828.753 406.546 824.715 404.92 820.878C390.562 786.856 378.488 751.993 368.478 716.29C350.486 652.138 356.806 589.173 375.894 526.61C386.069 500.372 400.299 476.765 418.255 455.515C433.873 437.024 450.075 419.154 468.524 403.623C470.387 402.051 471.977 400.133 473.694 398.379C456.943 404.372 443.389 415.079 429.525 425.403C415.496 435.836 405.011 448.48 398.837 465.564C392.645 482.721 384.662 499.184 377.776 516.086C376.461 519.356 376.606 523.248 376.077 526.866ZM1085.22 814.684C1084.4 814.063 1083.58 813.441 1082.77 812.82C1081.99 814.501 1081.46 816.401 1080.34 817.808C1061.86 841.543 1043.24 865.169 1024.8 888.941C1022.38 892.047 1020.36 895.646 1018.9 899.337C997.834 951.869 965.904 996.032 924.823 1033.36C901.295 1054.74 876.672 1074.51 850.313 1091.9C847.043 1094.06 843.281 1095.81 841.473 1099.98C845.656 1098.96 849.491 1097.42 853.181 1095.52C883.339 1079.95 912.273 1062.25 937.536 1038.9C957.465 1020.48 976.736 1001.28 995.989 982.09C1040.32 937.891 1066.64 882.856 1083.87 822.431C1084.56 819.928 1084.78 817.26 1085.22 814.684ZM149.572 754.368C150.448 753.674 151.252 753.364 151.325 752.925C153.937 736.7 158.157 720.73 156.367 703.938C153.079 672.895 151.289 641.723 154.686 610.606C157.7 583.07 161.591 555.608 165.957 528.273C169.007 509.234 173.538 490.432 177.337 471.521C177.775 469.31 177.83 467.008 178.269 462.568C175.821 465.692 174.433 466.916 173.702 468.47C167.583 481.625 160.659 494.489 155.727 508.119C141.132 548.5 135.598 590.744 134.045 633.647C132.638 672.639 139.214 710.644 147.434 748.412C147.873 750.404 148.823 752.286 149.572 754.368ZM913.169 214.107C912.748 214.656 912.328 215.186 911.908 215.734C914.191 217.689 916.602 219.479 918.721 221.599C927.763 230.68 936.714 239.889 945.72 249.025C957.282 260.755 968.68 272.669 980.535 284.089C994.162 297.226 1008.41 309.651 1022 322.825C1054.48 354.252 1078.44 392.13 1098.12 433.187C1099.58 436.238 1100.33 439.966 1103.89 442.359C1103.29 420.616 1072.14 360.373 1041.53 320.979C1008.25 278.132 939.198 220.649 913.169 214.107ZM606.747 970.195C606.765 969.465 606.802 968.715 606.82 967.985C604.665 967.126 602.527 966.157 600.317 965.445C563.583 953.586 528.311 938.019 494.244 919.509C484.708 914.32 474.826 909.24 466.515 902.315C458.149 895.336 451.043 897.675 442.896 900.927C443.353 902.115 443.444 902.809 443.828 903.229C466.022 927.768 491.047 948.342 520.73 962.265C525.57 964.531 530.977 966.212 536.22 966.669C556.514 968.423 576.845 969.629 597.175 970.871C600.335 971.054 603.551 970.451 606.747 970.195ZM265.71 1052.46C266.313 1051.76 266.934 1051.07 267.537 1050.37C263.792 1044.8 260.267 1039.04 256.285 1033.65C231.242 999.924 213.541 962.357 201.996 921.537C200.809 917.353 199.494 913.206 198.142 909.076C195.165 899.904 181.21 878.525 173.958 871.911C173.684 872.404 173.172 872.916 173.172 873.428C173.154 874.981 173.263 876.534 173.409 878.087C178.56 929.723 196.992 975.695 227.808 1016.39C236.557 1027.95 246.366 1038.4 257.783 1047.16C260.285 1049.11 263.043 1050.7 265.71 1052.46ZM1023.33 477.551C1022.69 477.898 1022.06 478.227 1021.42 478.574C1021.05 486.595 1026.38 492.771 1028.49 500.007C1030.55 507.169 1033.27 514.112 1035.41 521.257C1037.64 528.693 1039.59 536.221 1041.51 543.749C1043.35 550.985 1045.03 558.257 1046.75 565.511C1048.54 573.076 1050.39 580.64 1052.07 588.223C1053.75 595.806 1055.41 603.425 1056.8 611.063C1058.13 618.408 1059.25 625.808 1060.16 633.227C1061.11 640.956 1061.84 648.721 1062.41 656.486C1062.95 663.941 1063.05 671.433 1063.61 678.888C1064.18 686.233 1062.3 693.834 1065.84 701.161C1070.43 688.846 1073.95 676.348 1077.64 663.905C1082.35 647.917 1081.77 632.24 1077.4 616.106C1064.85 569.695 1045.09 526.263 1027.01 482.137C1026.29 480.401 1024.58 479.067 1023.33 477.551ZM461.82 729.665C466.478 725.993 464.633 722.228 463.976 718.812C459.573 696.319 460.103 674.155 467.903 652.467C469.784 647.259 469.766 642.18 468.232 636.899C466.003 629.133 463.848 621.332 461.984 613.456C457.253 593.522 458.094 573.806 465.236 554.603C468.798 545.01 473.127 535.746 477.036 526.3C477.73 524.619 478.059 522.755 478.552 520.983C454.842 547.111 448.394 579.763 443.974 613.456C438.622 654.056 448.065 691.788 461.82 729.665ZM461.309 156.113C461.071 155.492 460.834 154.87 460.615 154.249C459.172 154.377 457.674 154.34 456.286 154.688C433.635 160.37 410.948 165.925 388.37 171.954C384.461 172.996 380.662 175.499 377.465 178.167C367.2 186.736 356.879 195.287 347.253 204.606C333.005 218.365 319.232 232.653 305.495 246.997C301.001 251.693 297.293 257.192 295.174 263.642C322.099 244.42 348.147 224.248 375.018 205.319C402.216 186.152 431.498 170.584 461.309 156.113ZM595.294 1222.66C595.257 1222.11 595.221 1221.56 595.185 1221.01C584.7 1217.45 574.288 1213.58 563.693 1210.45C559.784 1209.3 555.418 1209.85 551.254 1209.78C542.303 1209.61 533.316 1209.88 524.383 1209.36C516.328 1208.86 508.345 1207.03 500.308 1206.65C484.27 1205.88 468.926 1202.14 454.075 1196.04C431.808 1186.9 409.578 1177.65 387.329 1168.5C386.307 1168.08 385.192 1167.91 382.288 1167.15C384.772 1170.11 385.868 1171.81 387.311 1173.09C397.668 1182.18 409.121 1189.46 421.451 1195.29C443.992 1205.94 468.068 1210.93 492.033 1216.44C523.525 1223.68 555.363 1225.67 587.476 1223.86C590.088 1223.68 592.7 1223.06 595.294 1222.66ZM783.311 1099.74C783.092 1099.27 782.873 1098.77 782.654 1098.3C778.836 1099.67 775.055 1101.15 771.182 1102.37C750.596 1108.88 730.101 1115.77 709.332 1121.61C696.29 1125.29 683.284 1123.9 670.845 1117.58C667.21 1115.73 662.844 1114.82 658.789 1114.73C651.939 1114.58 645.034 1115.2 638.202 1116C635.261 1116.35 632.485 1118.01 629.233 1119.22C633.635 1125.16 633.654 1125.1 640.01 1126.88C663.921 1133.55 688.563 1133.71 712.967 1135.87C720.146 1136.51 726.521 1135.03 732.676 1131.24C746.084 1123.02 759.62 1115.05 773.046 1106.87C776.608 1104.73 779.914 1102.14 783.311 1099.74ZM555.162 455.131C562.524 457.872 569.611 459.607 575.822 463.079C581.521 466.258 585.996 466.35 591.622 463.134C608.83 453.34 627.26 447.219 646.733 444.314C651.628 443.583 656.396 441.318 661.054 439.326C666.296 437.097 671.392 434.447 676.489 431.871C677.786 431.213 678.9 430.117 680.8 428.692C654.13 426.207 568.607 444.332 555.162 455.131ZM733.334 428.819C735.252 430.354 735.837 431.14 736.604 431.396C760.204 439.728 780.48 453.669 799.057 470.735C802.747 474.115 807.588 476.436 812.264 478.263C823.151 482.521 834.257 486.212 845.308 490.049C846.642 490.505 848.158 490.414 851.555 490.798C818.036 455.734 781.284 432.492 733.334 428.819ZM966.835 710.516C964.917 715.029 963.511 718.008 962.36 721.077C951.218 750.659 939.783 780.095 922.795 806.754C921.389 808.965 920.256 811.998 920.457 814.538C921.114 823.071 922.448 831.567 923.525 840.155C937.536 829.85 967.164 742.218 966.835 710.516ZM239.644 319.262C247.06 313.488 253.527 307.184 256.267 297.829C264.961 267.991 279.831 242.063 301.586 220.484C302.828 219.26 303.54 217.469 305.568 214.254C264.194 237.952 245.307 274.204 239.644 319.262ZM686.755 336.675C686.006 336.273 685.293 335.597 684.526 335.487C669.109 333.441 653.729 331.102 638.257 329.732C633.837 329.348 628.703 331.01 624.685 333.258C608.464 342.376 591.276 348.241 573.301 352.06C564.552 353.923 555.948 356.664 547.344 359.24C544.769 360.026 542.394 361.616 539.946 362.84C588.243 349.429 637.179 341.955 686.755 336.675ZM532 839.296C549.463 852.854 618.182 881.376 631.297 879.914C598.162 866.612 569.739 847.939 542.138 826.725C538.412 831.348 535.398 835.075 532 839.296ZM1052.58 1046.77C1085.71 1032.67 1138.01 955.066 1137.48 922.835C1125.43 944.158 1113.48 966.45 1100.44 988.01C1087.21 1009.86 1070.02 1028.46 1052.58 1046.77ZM769.94 909.496C778.087 910.245 784.791 910.976 791.532 911.397C792.865 911.488 794.655 910.757 795.569 909.77C801.505 903.302 806.583 896.176 811.405 886.364C804.172 887.808 798.747 889.854 793.358 889.781C780.992 889.635 775.457 897.693 769.94 909.496ZM889.221 544.827C888.728 553.908 893.897 565.968 902.921 577.406C900.546 566.114 896.327 555.662 889.221 544.827ZM418.985 851.794C414.418 858.353 415.021 860.875 422.145 867.599C426.383 860.309 426.346 860.108 418.985 851.794ZM660.396 886.474C669.091 890.859 670.187 890.768 675.795 885.505C669.931 885.871 665.163 886.163 660.396 886.474ZM175.529 823.893C176.095 823.619 176.679 823.326 177.246 823.052C176.698 821.938 176.168 820.823 175.62 819.709C175.199 819.891 174.779 820.074 174.378 820.257C174.761 821.463 175.145 822.669 175.529 823.893Z" fill="black"/>
<path d="M36.3906 829.974C36.4272 816.727 42.3633 807.061 51.9167 803.023C61.3788 799.022 72.138 801.762 79.8099 810.131C85.8014 816.672 89.1624 824.73 90.916 833.318C95.6105 856.523 100.031 879.783 104.232 903.08C107.867 923.307 110.078 943.881 114.644 963.87C123.54 1002.75 140.93 1036.63 171.654 1062.08C183.363 1071.78 194.36 1082.44 205.484 1092.89C214.782 1101.64 221.686 1112.37 225.084 1124.9C232.628 1152.69 248.063 1176.26 261.708 1200.76C265.727 1207.98 271.426 1214.18 276.394 1220.83C277.673 1222.54 279.281 1224.04 280.34 1225.91C284.395 1233 280.76 1240.41 272.869 1240.4C269.124 1240.4 265.106 1239.19 261.672 1237.51C228.774 1221.36 201.264 1198.94 186.87 1162.91C179.965 1145.62 170.412 1131.31 155.342 1120.95C149.607 1117.02 144.693 1111.82 139.103 1107.65C108.233 1084.57 87.555 1053.29 72.0285 1017.81C62.2376 995.425 57.0682 971.8 53.9264 947.553C50.2548 919.104 46.4736 890.673 42.5098 862.26C41.4868 854.86 39.5508 847.607 38.126 840.28C37.3405 836.296 36.7742 832.276 36.3906 829.974Z" fill="black"/>
<path d="M636.188 0C686.659 0.365436 735.083 10.1956 781.023 32.0487C797.883 40.0701 814.397 48.8587 831.074 57.282C832.956 58.2322 834.946 59.7307 836.828 59.6759C841.011 59.5297 842.436 62.3617 844.208 65.3217C850.217 75.4443 846.82 83.3379 835.403 84.014C817.794 85.0554 800.13 86.0055 782.503 85.6583C773.388 85.4756 763.89 83.6849 755.323 80.4508C702.77 60.6259 648.884 58.086 594.084 65.7053C587.27 66.6555 580.402 67.6058 573.552 67.8616C563.432 68.2636 554.701 64.6639 548.326 56.1127C537.348 41.3857 542.115 20.428 558.464 11.5479C567.926 6.41348 578.301 4.51301 588.75 3.52634C604.532 2.00978 620.369 1.13285 636.188 0Z" fill="black"/>
<path d="M142.672 314.096C143.183 287.054 148.608 261.564 159.824 237.098C174.73 204.575 194 175.669 220.323 152.043C239.137 135.142 257.733 117.948 276.694 101.248C280.694 97.7211 285.699 95.017 290.649 93.1533C298.102 90.3577 304.97 92.5866 310.084 98.9087C314.98 104.957 315.784 112.284 312.332 119.081C309.738 124.179 305.92 128.856 301.846 132.821C285.9 148.389 269.697 163.664 253.476 178.921C226.442 204.337 205.454 234.394 189.599 268.471C185.817 276.602 181.452 284.441 177.159 292.279C167.88 309.236 160.646 326.886 159.295 346.675C159.203 347.917 159.093 349.196 158.71 350.347C157.084 355.335 153.138 356.286 149.978 352.047C148.042 349.434 146.544 346.035 146.051 342.801C144.59 333.281 143.75 323.67 142.672 314.096Z" fill="black"/>
<path d="M789.551 1253.57C795.634 1250.88 802.063 1250.55 808.219 1253.17C813.718 1255.49 816.914 1260.57 815.672 1266.69C814.521 1272.33 812.585 1278.23 809.443 1282.91C799.469 1297.73 786.244 1308.91 770.553 1316.72C746.478 1328.66 720.832 1334.71 694.547 1338.11C652.771 1343.52 610.849 1343.39 568.909 1341.11C560.013 1340.61 551.117 1338.59 542.386 1336.54C536.139 1335.08 530.823 1331.41 527.17 1325.63C520.539 1315.11 525.544 1304.29 537.546 1303.56C540.779 1303.36 544.048 1304.25 547.318 1304.66C559.191 1306.08 571.046 1308.71 582.919 1308.69C619.763 1308.64 656.625 1308.2 693.432 1306.68C722.677 1305.48 751.045 1298.77 777.696 1285.74C784.947 1282.2 791.524 1277.14 798.228 1272.52C800.164 1271.18 801.753 1269.1 803.123 1267.07C807.013 1261.33 805.424 1257.68 798.812 1256.98C795.725 1256.66 792.602 1256.53 789.496 1256.33C789.514 1255.41 789.533 1254.5 789.551 1253.57Z" fill="black"/>
<path d="M1242.41 595.306C1241.57 606.196 1241.08 617.123 1239.78 627.94C1239.03 634.061 1237.26 640.127 1235.34 645.992C1234.41 648.788 1232.33 651.382 1230.23 653.484C1227.65 656.042 1224.13 656.791 1221.15 654.452C1218.28 652.186 1217.08 649.464 1218.14 644.841C1219.32 639.689 1218.87 633.659 1217.53 628.433C1214.78 617.598 1211.01 607.037 1207.56 596.403C1205.55 590.19 1202.79 584.197 1201.31 577.875C1197.81 563.002 1190.5 550.23 1182.35 537.805C1178.48 531.885 1174.53 525.965 1171.08 519.771C1167.85 513.997 1166.33 507.693 1168.09 500.896C1170.84 490.225 1180.23 484.14 1190.17 487.74C1194.76 489.403 1199.6 492.491 1202.54 496.383C1211.41 508.132 1220.05 520.191 1227.62 532.89C1240.82 555.053 1243.4 567.99 1242.41 595.306Z" fill="black"/>
<path d="M1110.72 1186.83C1122.87 1186.78 1128.97 1196.99 1123.74 1206.34C1121.86 1209.71 1118.81 1212.7 1115.67 1214.86C1080.1 1239.16 1044.43 1263.33 1008.7 1287.38C1003.26 1291.05 997.686 1295.13 990.343 1291.8C988.882 1291.14 986.415 1292.66 984.461 1293.34C979.913 1294.91 975.492 1297.08 970.852 1298.03C966.834 1298.85 962.468 1298.96 958.45 1298.23C952.257 1297.08 949.974 1292.39 952.677 1286.34C954.266 1282.78 956.842 1279.47 959.619 1276.76C962.194 1274.26 965.446 1272.32 968.679 1270.79C1011.66 1250.42 1051.15 1223.76 1091.01 1197.74C1095.07 1195.09 1098.99 1192.17 1103.19 1189.79C1106.01 1188.22 1109.24 1187.41 1110.72 1186.83Z" fill="black"/>
<path d="M0.0328554 428.317C-1.04487 404.034 24.5285 374.068 56.5132 392.632C65.7196 397.968 71.2907 406.025 73.2635 416.751C76.4784 434.31 68.4777 457.369 49.5719 462.65C46.2108 463.582 43.5076 467.327 40.7128 469.995C35.5799 474.874 33.8992 474.563 29.9719 468.351C28.9672 466.761 27.1404 465.372 25.3868 464.696C8.27108 458.118 0.233787 446.68 0.0328554 428.317Z" fill="black"/>
<path d="M6.74316 1069.47C7.93049 1061.76 10.1228 1055.49 15.7672 1050.94C24.0419 1044.27 34.5998 1047.01 38.9655 1056.95C39.824 1058.91 40.6275 1061.1 40.6641 1063.2C40.9746 1082.15 49.7976 1097.83 58.255 1113.65C59.7163 1116.37 61.5793 1118.91 62.6388 1121.8C64.8856 1127.89 60.9951 1132.6 54.8941 1131.3C52.9031 1130.88 50.8938 1129.86 49.2315 1128.63C35.1845 1118.22 22.6169 1106.18 14.397 1090.17C11.0725 1083.7 9.24568 1076.4 6.74316 1069.47Z" fill="black"/>
<path d="M1288.3 891.716C1290.84 880.223 1298.95 872.458 1297.98 861.257C1295.69 860.472 1293.17 859.759 1290.76 858.754C1285.17 856.433 1281.3 852.377 1279.75 846.183C1276.73 834.106 1287.35 817.844 1299.27 816.254C1309.41 814.902 1316.87 822.229 1316.52 833.667C1316.08 847.59 1311.95 860.618 1305.65 872.695C1302.58 878.579 1297.89 883.567 1293.74 888.83C1292.97 889.853 1291.38 890.145 1288.3 891.716Z" fill="black"/>
<path d="M410.284 44.7706C411.161 43.0165 412.239 39.7095 414.193 37.1149C417.116 33.223 422.23 32.3641 425.445 34.7394C429.044 37.3889 428.807 40.9885 427.473 44.789C426.761 46.8354 426.286 49.028 425.299 50.9283C423.29 54.875 419.088 56.6655 415.435 55.2768C411.489 53.742 410.302 50.3983 410.284 44.7706Z" fill="black"/>
<path d="M756.829 359.815H545.138C447.723 359.815 368.72 438.841 368.72 536.285V748.037C368.72 845.48 447.723 924.506 545.138 924.506H756.829C854.245 924.506 933.248 845.48 933.248 748.037V536.285C933.23 438.841 854.227 359.815 756.829 359.815ZM880.311 748.037C880.311 816.154 824.909 871.554 756.829 871.554H545.138C477.041 871.554 421.656 816.136 421.656 748.037V536.285C421.656 468.167 477.041 412.767 545.138 412.767H756.829C824.927 412.767 880.311 468.186 880.311 536.285V748.037Z" fill="white"/>
<path d="M650.968 500.977C573.025 500.977 509.84 564.179 509.84 642.145C509.84 720.11 573.025 783.313 650.968 783.313C728.911 783.313 792.095 720.11 792.095 642.145C792.095 564.197 728.911 500.977 650.968 500.977ZM650.968 730.379C602.342 730.379 562.759 690.784 562.759 642.145C562.759 593.468 602.342 553.91 650.968 553.91C699.594 553.91 739.177 593.468 739.177 642.145C739.177 690.784 699.594 730.379 650.968 730.379Z" fill="white"/>
<path d="M802.67 471.588C813.064 471.588 821.485 480.011 821.485 490.408C821.485 500.805 813.064 509.209 802.67 509.209C792.295 509.209 783.874 500.786 783.874 490.408C783.874 480.011 792.295 471.588 802.67 471.588Z" fill="white"/>
</svg>
