<svg width="1357" height="1345" viewBox="0 0 1357 1345" fill="none" xmlns="http://www.w3.org/2000/svg">
<path d="M178.956 566.676C182.956 558.947 188.564 547.509 194.757 536.382C197.935 530.663 199.871 524.852 200.511 518.384C201.643 506.909 203.05 495.471 204.365 484.033C206.959 461.723 214.85 441.131 224.75 421.178C238.158 394.191 254.506 369.048 272.152 344.71C299.479 307.015 335.683 281.782 380.107 268.334C405.151 260.751 430.596 255.032 456.955 255.142C461.832 255.16 464.827 252.73 467.951 249.806C486.017 232.868 505.763 218.306 528.998 209.298C571.614 192.762 615.727 186.988 661.229 192.068C693.506 195.667 724.286 204.383 753.201 219.274C760.983 223.276 768.746 225.085 777.569 224.811C816.696 223.623 855.001 229.945 892.74 239.465C959.303 256.238 1018.08 287.794 1068.39 334.642C1095.5 359.876 1114.57 390.7 1128.67 424.722C1133.09 435.375 1137.62 445.973 1141.73 456.735C1144.31 463.459 1148.54 467.515 1155.54 469.854C1182.59 478.844 1205.23 494.868 1225.1 515.04C1242.09 532.289 1253.52 552.717 1259.5 576.178C1270.05 617.691 1274.35 659.716 1269.83 702.509C1269.05 710.019 1268.54 717.656 1268.85 725.203C1270.46 766.004 1262.67 804.905 1245.59 841.887C1239.51 855.079 1231.97 867.595 1225.59 880.659C1223.13 885.72 1221.48 891.367 1220.39 896.921C1217.23 912.982 1215.05 929.244 1211.56 945.232C1206.23 969.607 1195.34 991.569 1180.16 1011.32C1160.36 1037.07 1140.25 1062.52 1116.12 1084.52C1111.26 1088.94 1107.3 1094.53 1103.61 1100.03C1086.66 1125.23 1068.98 1149.84 1048.01 1171.91C1021.79 1199.5 990.886 1220.28 957.166 1237.8C892.867 1271.22 824.514 1285.2 752.617 1284.34C731.683 1284.08 712.467 1278.56 696.191 1264.79C692.648 1261.79 688.648 1261.32 684.318 1261.28C665.814 1261.1 647.31 1260.68 628.806 1260.59C560.526 1260.22 495.333 1244.21 431.82 1220.7C413.444 1213.9 396.401 1203.54 378.664 1194.97C370.499 1191.02 362.498 1186.2 353.84 1183.95C315.133 1173.9 283.44 1152.47 254.232 1126.01C210.045 1086 185.623 1035.79 175.138 977.938C171.083 955.501 168.544 932.899 168.672 910.077C168.727 900.594 167.101 891.458 165.073 882.213C161.292 865.037 157.274 847.807 155.392 830.375C152.013 799.021 148.487 767.538 148.012 736.056C147.154 679.121 155.392 623.465 178.956 566.676ZM932.78 552.68C932.268 551.31 932.141 549.574 931.209 548.606C914.111 530.992 897.014 513.359 879.697 495.965C872.719 488.966 864.043 484.691 854.435 482.169C789.223 465.049 723.135 455.73 655.548 459.878C653.283 460.024 651.055 460.627 648.589 461.065C649.904 467.808 654.562 466.876 658.635 466.839C694.767 466.529 730.715 468.648 766.591 473.015C831.072 480.872 884.794 510.874 933.054 552.607C952.435 572.14 967.834 594.431 979.652 619.263C989.936 640.896 999.416 662.823 1005.94 685.937C1006.6 688.275 1007.67 690.486 1008.55 692.752C1009.88 674.864 1005.72 658.145 1002.05 641.299C998.32 624.251 991.215 609.652 978.41 597.355C965.55 585.003 954.042 571.281 941.694 558.399C939.338 555.914 935.776 554.562 932.78 552.68ZM392.674 1102.33C393.551 1101.8 394.428 1101.29 395.323 1100.76C394.136 1099.37 392.656 1098.17 391.834 1096.6C378.025 1070.28 364.343 1043.92 350.46 1017.64C348.652 1014.21 346.241 1010.96 343.537 1008.16C305.032 968.419 278.308 921.771 261.375 869.239C251.675 839.164 243.839 808.669 238.815 777.46C238.194 773.605 238.14 769.421 235.144 766.132C234.395 770.407 234.231 774.573 234.45 778.739C236.313 812.779 240.569 846.491 251.365 878.942C259.877 904.54 269.32 929.847 278.782 955.117C300.556 1013.31 339.227 1058.92 386.318 1098.09C388.236 1099.72 390.537 1100.94 392.674 1102.33ZM819.966 254.685C820.24 255.781 820.185 256.64 820.55 256.86C833.995 265.502 846.58 275.552 862.289 280.339C891.333 289.182 919.902 299.469 946.315 314.562C969.715 327.918 992.676 342.061 1015.36 356.605C1031.16 366.746 1046.14 378.148 1061.52 388.947C1063.33 390.207 1065.38 391.139 1069.14 393.24C1067.33 389.769 1066.8 387.996 1065.69 386.736C1056.37 375.992 1047.66 364.627 1037.45 354.815C1007.2 325.744 971.688 304.403 933.967 286.533C899.699 270.289 863.13 261.829 826.103 255.014C824.167 254.63 822.121 254.776 819.966 254.685ZM997.772 1172.39C997.462 1171.78 997.133 1171.2 996.823 1170.6C994.174 1171.97 991.598 1173.54 988.858 1174.69C977.131 1179.62 965.331 1184.43 953.586 1189.31C938.497 1195.57 923.3 1201.62 908.376 1208.27C891.205 1215.91 874.418 1224.41 857.23 1232.01C816.203 1250.19 772.801 1257.97 728.286 1260.55C724.979 1260.73 721.345 1260 717.783 1262.41C737.438 1270.2 803.672 1264.28 851.092 1250.9C902.64 1236.34 981.534 1194.11 997.772 1172.39ZM444.716 597.446C445.373 597.757 446.013 598.068 446.67 598.378C448.296 596.697 450.013 595.089 451.529 593.298C476.773 563.643 504.776 536.802 534.88 512.19C543.319 505.283 551.794 498.066 561.311 492.968C570.883 487.852 571.632 480.342 571.979 471.535C570.737 471.517 570.08 471.316 569.55 471.517C538.771 482.754 510.402 498.175 486.126 520.449C482.162 524.085 478.509 528.47 476.007 533.184C466.344 551.401 457.155 569.856 447.931 588.292C446.506 591.143 445.775 594.376 444.716 597.446ZM507.352 248.528C507.735 249.368 508.101 250.19 508.484 251.031C514.969 249.679 521.508 248.619 527.902 246.956C568.033 236.578 608.64 234.513 649.721 239.392C653.941 239.885 658.16 240.25 662.398 240.597C671.769 241.347 696.447 236.559 705.252 232.32C704.905 231.863 704.667 231.206 704.21 231.005C702.84 230.384 701.397 229.89 699.954 229.452C651.785 214.469 603.361 213.994 554.717 227.058C540.889 230.767 527.646 235.902 515.261 243.156C512.503 244.745 509.982 246.719 507.352 248.528ZM718.495 1173.96C718.44 1173.23 718.386 1172.5 718.349 1171.78C711.335 1168.37 703.681 1170.96 696.374 1170.14C689.159 1169.34 681.871 1169.19 674.637 1168.44C667.111 1167.65 659.604 1166.6 652.114 1165.5C644.917 1164.44 637.757 1163.21 630.578 1162.03C623.107 1160.8 615.618 1159.62 608.165 1158.26C600.712 1156.91 593.259 1155.56 585.861 1153.91C578.774 1152.32 571.705 1150.53 564.727 1148.54C557.457 1146.46 550.224 1144.16 543.063 1141.73C536.177 1139.39 529.454 1136.59 522.568 1134.27C515.791 1131.99 509.745 1127.33 501.78 1127.82C510.95 1136.81 520.705 1144.89 530.349 1153.07C542.734 1163.6 556.982 1169.06 573.148 1171.18C619.618 1177.28 666.289 1175.55 712.924 1175.62C714.769 1175.62 716.632 1174.52 718.495 1173.96ZM717.399 554.763C718.824 560.5 722.916 560.226 726.222 560.921C748.069 565.452 767.65 574.424 783.908 590.01C787.798 593.737 792.347 595.674 797.68 596.295C805.499 597.19 813.335 598.177 821.116 599.456C840.808 602.69 858.088 611.04 872.391 625.037C879.533 632.016 886.091 639.599 892.959 646.872C894.183 648.169 895.717 649.174 897.105 650.306C883.223 618.221 856.645 599.712 828.314 582.683C794.192 562.127 756.727 556.481 717.399 554.763ZM1229.92 774.098C1230.56 774.116 1231.22 774.135 1231.86 774.153C1232.32 772.764 1232.95 771.394 1233.19 769.95C1237.17 746.69 1241.25 723.43 1244.88 700.116C1245.5 696.078 1244.79 691.601 1243.68 687.599C1240.11 674.754 1236.59 661.873 1232.11 649.338C1225.5 630.811 1218.25 612.502 1210.93 594.23C1208.53 588.255 1205.1 582.682 1200.17 578.242C1206.6 610.657 1214.21 642.632 1220.39 674.9C1226.67 707.589 1228.88 740.807 1229.92 774.098ZM223.8 490.026C224.312 490.19 224.805 490.374 225.317 490.556C232.696 482.17 240.295 473.965 247.327 465.286C249.903 462.088 251.182 457.813 252.899 453.957C256.625 445.68 259.95 437.221 264.005 429.126C267.658 421.818 272.481 415.094 276.025 407.767C283.112 393.131 292.574 380.286 303.954 368.793C320.997 351.581 338.131 334.423 355.191 317.229C355.977 316.444 356.561 315.475 358.406 313.045C354.771 314.214 352.817 314.599 351.1 315.457C338.825 321.597 327.773 329.49 317.635 338.717C299.131 355.601 285.048 376.101 270.563 396.291C251.529 422.822 237.044 451.692 225.846 482.279C224.951 484.782 224.476 487.45 223.8 490.026ZM258.525 712.102C259.036 712.084 259.566 712.065 260.078 712.047C260.388 707.972 260.571 703.88 261.009 699.805C263.42 678.135 265.43 656.427 268.498 634.848C270.416 621.309 276.864 609.743 287.459 600.571C290.546 597.903 293.122 594.175 294.821 590.43C297.689 584.107 299.899 577.457 301.89 570.788C302.748 567.919 302.383 564.685 302.584 561.213C295.515 563.04 295.57 563.077 291.441 568.302C275.933 587.999 265.959 610.858 254.305 632.766C250.871 639.197 249.647 645.702 250.561 652.883C252.552 668.506 254.269 684.164 256.223 699.805C256.753 703.953 257.758 708.009 258.525 712.102ZM925.382 746.837C920.012 752.629 915.609 758.567 910.038 763.025C904.923 767.118 903.06 771.247 903.681 777.716C905.563 797.486 903.663 816.982 898.494 836.222C897.197 841.065 897.325 846.363 897.233 851.461C897.124 857.198 897.47 862.954 897.726 868.691C897.799 870.153 898.329 871.597 898.841 873.917C911.7 850.017 929.638 763.501 925.382 746.837ZM877.761 922.739C875.624 923.927 874.692 924.183 874.144 924.786C857.284 943.551 836.735 957.091 814.084 967.834C809.59 969.972 805.59 973.59 802.101 977.244C793.954 985.759 786.209 994.657 778.391 1003.48C777.441 1004.54 776.93 1006 775.231 1009.02C819.911 991.259 855.348 965.952 877.761 922.739ZM532.961 1032.08C529.692 1028.55 527.591 1026.12 525.308 1023.86C503.333 1002.15 481.614 980.241 464.572 954.185C463.165 952.029 460.9 949.8 458.562 949.014C450.671 946.365 442.56 944.337 434.45 942.053C438.067 959.064 504.502 1020.24 532.961 1032.08ZM1172.66 505.265C1174.85 514.383 1177.9 522.824 1185.17 528.945C1208.35 548.478 1225.57 572.249 1236.17 600.753C1236.77 602.379 1238.09 603.732 1240.15 606.838C1235.49 559.295 1210.65 527.812 1172.66 505.265ZM978.647 914.7C979.305 914.17 980.2 913.768 980.602 913.074C988.566 899.516 996.822 886.086 1004.2 872.218C1006.32 868.253 1006.89 862.844 1006.47 858.24C1004.8 839.657 1006.41 821.404 1010.18 803.205C1012 794.343 1012.99 785.299 1014.12 776.309C1014.45 773.605 1013.97 770.791 1013.86 768.032C1006.58 818.133 993.736 866.535 978.647 914.7ZM591.469 578.042C572.399 589.096 519.481 642.121 515.553 654.893C540.652 629.148 568.691 609.853 598.648 592.294C596.018 587.05 593.881 582.829 591.469 578.042ZM198.392 983.018C197.771 1019.27 246.213 1097.67 275.202 1109.53C260.973 1090.13 245.812 1070.49 231.765 1050.08C217.535 1029.39 207.781 1006.24 198.392 983.018ZM433.81 772.582C429.883 779.872 426.559 785.829 423.49 791.931C422.888 793.137 422.814 795.074 423.344 796.316C426.76 804.319 431.089 811.774 437.939 820.033C439.528 812.743 439.875 806.914 442.085 801.926C447.127 790.488 442.14 782.248 433.81 772.582ZM711.937 1023.34C704.028 1019.4 691.186 1019.58 677.377 1023.62C688.392 1025.74 699.406 1025.81 711.937 1023.34ZM625.427 468.082C621.39 461.321 618.887 460.901 610.046 464.975C614.85 471.699 615.052 471.736 625.427 468.082ZM498.091 679.45C490.711 685.863 490.346 686.923 492.812 694.159C494.821 688.568 496.447 684.018 498.091 679.45ZM747.502 252.2C747.52 252.84 747.557 253.479 747.575 254.119C748.781 254.046 750.005 253.973 751.21 253.881C751.21 253.425 751.21 252.968 751.229 252.511C749.987 252.419 748.744 252.31 747.502 252.2Z" fill="black"/>
<path d="M797.583 120.399C809.402 125.497 815.667 134.742 815.448 145.176C815.247 155.518 808.506 164.489 797.967 168.417C789.728 171.487 781.18 171.524 772.814 169.861C750.218 165.348 727.677 160.542 705.191 155.518C685.664 151.151 666.411 145.304 646.738 141.905C608.451 135.273 571.261 138.488 536.262 157.327C522.927 164.507 509.026 170.665 495.254 177.005C483.709 182.304 471.379 184.606 458.848 182.98C431.01 179.362 403.811 184.68 376.466 187.987C368.411 188.955 360.611 191.897 352.683 193.962C350.637 194.492 348.646 195.423 346.564 195.698C338.6 196.739 333.448 190.526 336.609 183.199C338.106 179.709 340.773 176.439 343.659 173.881C371.223 149.452 402.222 132.44 440.143 132.86C458.337 133.061 474.923 129.663 490.212 119.595C496.021 115.776 502.615 113.182 508.588 109.582C541.523 89.6842 577.709 82.4483 615.612 81.5895C639.523 81.0597 662.685 85.2988 685.591 91.6756C712.461 99.1488 739.386 106.531 766.329 113.73C773.343 115.612 780.595 116.599 787.719 118.079C791.573 118.846 795.373 119.869 797.583 120.399Z" fill="black"/>
<path d="M1299.56 996.702C1279.08 1043.53 1250.98 1084.83 1213.12 1119.21C1199.24 1131.82 1184.79 1143.81 1170.61 1156.12C1169.02 1157.51 1166.87 1158.77 1166.17 1160.56C1164.64 1164.51 1161.53 1164.77 1158.17 1165.26C1146.74 1166.98 1141.04 1160.78 1145 1149.89C1151.1 1133.1 1157.3 1116.29 1164.64 1100.03C1168.44 1091.62 1173.83 1083.47 1180.15 1076.73C1218.84 1035.42 1242.58 986.251 1257.67 932.33C1259.55 925.625 1261.43 918.882 1263.94 912.396C1267.63 902.821 1274.31 896.079 1284.5 893.411C1302.04 888.843 1318.86 901.305 1320.27 919.942C1321.09 930.722 1318.64 941.101 1315.36 951.205C1310.39 966.462 1304.85 981.554 1299.56 996.702Z" fill="black"/>
<path d="M1215.98 417.037C1239.92 427.872 1260.53 442.691 1277.9 462.498C1301.01 488.846 1319.13 517.861 1329.74 551.408C1337.32 575.399 1345.25 599.281 1352.61 623.345C1354.16 628.424 1354.58 634.106 1354.27 639.442C1353.8 647.445 1349.07 652.982 1341.38 655.32C1334.02 657.549 1327.17 655.503 1322.47 649.674C1318.95 645.307 1316.31 639.953 1314.38 634.636C1306.83 613.825 1299.66 592.885 1292.51 571.946C1280.6 537.028 1262.12 506.003 1238.02 478.175C1232.29 471.542 1227.03 464.471 1221.73 457.455C1210.28 442.326 1197.4 428.823 1180.28 419.979C1179.21 419.431 1178.13 418.828 1177.23 418.024C1173.43 414.607 1174.15 410.551 1179.21 409.254C1182.31 408.45 1185.95 408.358 1189.03 409.144C1198.08 411.446 1207.01 414.37 1215.98 417.037Z" fill="black"/>
<path d="M118.649 658.982C118.63 665.687 116.347 671.772 111.561 676.505C107.287 680.725 101.478 681.767 96.51 678.258C91.9251 675.024 87.4313 670.95 84.5086 666.236C75.2475 651.271 70.5345 634.68 69.8404 617.084C68.781 590.097 73.6036 563.913 81.0563 538.15C92.9113 497.203 109.753 458.23 128.513 420.078C132.495 411.984 137.865 404.492 143.181 397.147C146.98 391.885 152.369 388.339 158.981 387.17C171.037 385.032 178.691 393.84 174.563 405.278C173.448 408.348 171.329 411.07 169.685 413.957C163.676 424.463 156.588 434.494 151.875 445.549C137.226 479.863 122.905 514.324 109.571 549.168C98.9759 576.85 93.6422 605.829 94.6286 635.612C94.9026 643.707 96.8023 651.765 98.2453 659.804C98.6655 662.125 99.8893 664.391 101.15 666.437C104.73 672.266 108.62 672.174 111.872 666.29C113.388 663.531 114.758 660.681 116.183 657.885C117.005 658.233 117.827 658.616 118.649 658.982Z" fill="black"/>
<path d="M525.882 1332.73C516.493 1327.78 506.921 1323.14 497.788 1317.77C492.619 1314.74 487.906 1310.77 483.449 1306.72C481.312 1304.78 479.832 1301.84 478.791 1299.08C477.53 1295.7 478.279 1292.14 481.549 1290.27C484.709 1288.46 487.632 1288.39 491.34 1291.15C495.468 1294.22 501.04 1296.12 506.227 1296.87C517.005 1298.46 527.928 1299.01 538.815 1299.86C545.153 1300.38 551.62 1300.12 557.867 1301.14C572.553 1303.57 586.874 1301.67 601.231 1298.86C608.081 1297.53 614.932 1296.12 621.837 1295.28C628.303 1294.47 634.513 1295.48 639.902 1299.72C648.323 1306.37 650.022 1317.44 642.843 1325.32C639.537 1328.93 634.842 1332.26 630.184 1333.52C616.137 1337.29 601.926 1340.7 587.568 1342.88C562.47 1346.68 549.884 1344.1 525.882 1332.73Z" fill="black"/>
<path d="M50.0699 983.439C45.2658 994.767 33.7035 996.539 27.4564 988.08C25.2096 985.046 23.7479 981.063 23.072 977.299C15.5645 934.872 8.20334 892.427 0.988049 849.945C-0.107945 843.476 -1.53278 836.716 4.36732 831.162C5.55464 830.047 5.15294 827.178 5.33561 825.095C5.75574 820.272 5.57295 815.32 6.57761 810.624C7.45441 806.586 9.08001 802.456 11.3633 799.003C14.8705 793.668 19.9669 793.357 24.2778 798.181C26.8168 801.031 28.7533 804.686 30.0502 808.303C31.2558 811.647 31.6941 815.429 31.7672 819.029C32.8083 866.828 40.8637 913.805 48.1885 960.873C48.9375 965.679 49.9971 970.429 50.4172 975.253C50.7278 978.524 50.1613 981.831 50.0699 983.439Z" fill="black"/>
<path d="M1170.88 240.491C1193 248.804 1209.55 284.069 1180.21 306.726C1171.76 313.249 1162.35 315.35 1151.99 313.066C1135.02 309.339 1117.61 293.058 1120.45 273.434C1120.94 269.963 1118.69 265.998 1117.41 262.362C1115.11 255.729 1116.04 254.267 1123.17 252.988C1124.99 252.66 1126.97 251.49 1128.26 250.119C1140.98 236.726 1154.4 233.639 1170.88 240.491Z" fill="black"/>
<path d="M595.51 1.00729C601.922 5.06364 606.653 9.50382 608.443 16.5019C611.092 26.7707 604.442 35.5412 593.811 35.797C591.729 35.8518 589.427 35.7602 587.546 34.9745C570.503 27.9947 552.967 30.2056 535.468 31.9963C532.454 32.3069 529.44 33.0745 526.444 32.9649C520.124 32.7273 517.457 27.3007 521.055 22.1115C522.225 20.4305 523.942 18.9503 525.714 17.8723C540.619 8.79116 556.401 1.71993 573.974 0.185096C581.079 -0.436146 588.332 0.678401 595.51 1.00729Z" fill="black"/>
<path d="M242.799 1261.83C252.06 1268.59 255.749 1279.13 266.125 1282.51C267.732 1280.68 269.376 1278.6 271.239 1276.75C275.55 1272.44 280.72 1270.4 286.858 1271.33C298.859 1273.14 309.142 1289.27 305.8 1300.96C302.95 1310.9 293.433 1315.05 283.368 1310.34C271.093 1304.6 261.12 1295.76 252.845 1285.25C248.808 1280.13 246.233 1273.85 243.182 1267.98C242.598 1266.89 242.963 1265.3 242.799 1261.83Z" fill="black"/>
<path d="M1349.74 769.302C1350.96 770.782 1353.48 773.066 1355.02 775.88C1357.32 780.082 1356.04 785.18 1352.64 787.263C1348.84 789.583 1345.72 787.994 1342.85 785.289C1341.32 783.828 1339.55 782.549 1338.23 780.923C1335.51 777.524 1335.58 772.956 1338.29 770.069C1341.24 766.982 1344.72 767.164 1349.74 769.302Z" fill="black"/>
<path d="M541.448 607.342H409.856V1012.03H541.448V607.342Z" fill="white"/>
<path d="M899.918 612.075C898.529 611.636 897.196 611.161 895.735 610.759C893.963 610.357 892.209 610.028 890.401 609.718C883.405 608.311 875.769 607.324 866.782 607.324C790.063 607.324 741.4 663.126 725.362 684.687V607.324H593.77V1012.01H725.362V791.266C725.362 791.266 824.806 652.711 866.782 754.467C866.782 845.296 866.782 1011.99 866.782 1011.99H998.338V738.899C998.338 677.78 956.434 626.838 899.918 612.075Z" fill="white"/>
<path d="M474.226 423.375C509.773 423.375 538.579 452.207 538.579 487.746C538.579 523.303 509.773 552.136 474.226 552.136C438.68 552.136 409.874 523.303 409.874 487.746C409.855 452.207 438.68 423.375 474.226 423.375Z" fill="white"/>
</svg>
