<svg width="2341" height="3430" viewBox="0 0 2341 3430" fill="none" xmlns="http://www.w3.org/2000/svg">
<path d="M0 3429.34H2340.65V0.000743868L0 3429.34ZM958.17 2890.02L1938.43 1453.82V2890.02H958.17Z" fill="#ADADAD"/>
<path d="M0 3429.34H2340.65V0.000743868L0 3429.34ZM487.745 3188L2131.03 780.415V3188H487.745Z" fill="#ADADAD"/>
<path d="M2128.8 3292.75V3429.34H2139.88V3292.75H2128.8Z" fill="#6F7173"/>
<path d="M2229.17 3219.78V3429.34H2240.28V3219.78H2229.17Z" fill="#6F7173"/>
<path d="M2028.41 3219.78V3429.34H2039.49V3219.78H2028.41Z" fill="#6F7173"/>
<path d="M2204.23 3314.08V3429.34H2215.32V3314.08H2204.23Z" fill="#6F7173"/>
<path d="M2178.69 3314.08V3429.34H2189.76V3314.08H2178.69Z" fill="#6F7173"/>
<path d="M2153.12 3314.08V3429.34H2164.21V3314.08H2153.12Z" fill="#6F7173"/>
<path d="M2104.17 3314.08V3429.34H2115.26V3314.08H2104.17Z" fill="#6F7173"/>
<path d="M2078.63 3314.08V3429.34H2089.7V3314.08H2078.63Z" fill="#6F7173"/>
<path d="M2053.05 3314.08V3429.34H2064.15V3314.08H2053.05Z" fill="#6F7173"/>
<path d="M2329.56 3292.75V3429.34H2340.63V3292.75H2329.56Z" fill="#6F7173"/>
<path d="M2229.17 3219.78V3429.34H2240.28V3219.78H2229.17Z" fill="#6F7173"/>
<path d="M2304.92 3314.08V3429.34H2316.02V3314.08H2304.92Z" fill="#6F7173"/>
<path d="M2279.37 3314.08V3429.34H2290.44V3314.08H2279.37Z" fill="#6F7173"/>
<path d="M2253.81 3314.08V3429.34H2264.88V3314.08H2253.81Z" fill="#6F7173"/>
<path d="M1926.8 3292.75V3429.34H1937.89V3292.75H1926.8Z" fill="#6F7173"/>
<path d="M1826.43 3219.78V3429.34H1837.52V3219.78H1826.43Z" fill="#6F7173"/>
<path d="M2002.24 3314.08V3429.34H2013.32V3314.08H2002.24Z" fill="#6F7173"/>
<path d="M1976.69 3314.08V3429.34H1987.76V3314.08H1976.69Z" fill="#6F7173"/>
<path d="M1951.13 3314.08V3429.34H1962.2V3314.08H1951.13Z" fill="#6F7173"/>
<path d="M1902.16 3314.08V3429.34H1913.28V3314.08H1902.16Z" fill="#6F7173"/>
<path d="M1876.62 3314.08V3429.34H1887.7V3314.08H1876.62Z" fill="#6F7173"/>
<path d="M1851.05 3314.08V3429.34H1862.14V3314.08H1851.05Z" fill="#6F7173"/>
<path d="M1724.82 3292.75V3429.34H1735.91V3292.75H1724.82Z" fill="#6F7173"/>
<path d="M1624.45 3219.78V3429.34H1635.52V3219.78H1624.45Z" fill="#6F7173"/>
<path d="M1800.24 3314.08V3429.34H1811.33V3314.08H1800.24Z" fill="#6F7173"/>
<path d="M1774.71 3314.08V3429.34H1785.76V3314.08H1774.71Z" fill="#6F7173"/>
<path d="M1749.13 3314.08V3429.34H1760.2V3314.08H1749.13Z" fill="#6F7173"/>
<path d="M1700.18 3314.08V3429.34H1711.27V3314.08H1700.18Z" fill="#6F7173"/>
<path d="M1674.62 3314.08V3429.34H1685.72V3314.08H1674.62Z" fill="#6F7173"/>
<path d="M1649.09 3314.08V3429.34H1660.16V3314.08H1649.09Z" fill="#6F7173"/>
<path d="M1522.83 3292.75V3429.34H1533.91V3292.75H1522.83Z" fill="#6F7173"/>
<path d="M1422.43 3219.78V3429.34H1433.52V3219.78H1422.43Z" fill="#6F7173"/>
<path d="M1598.26 3314.08V3429.34H1609.33V3314.08H1598.26Z" fill="#6F7173"/>
<path d="M1572.7 3314.08V3429.34H1583.78V3314.08H1572.7Z" fill="#6F7173"/>
<path d="M1547.15 3314.08V3429.34H1558.22V3314.08H1547.15Z" fill="#6F7173"/>
<path d="M1498.2 3314.08V3429.34H1509.27V3314.08H1498.2Z" fill="#6F7173"/>
<path d="M1472.62 3314.08V3429.34H1483.71V3314.08H1472.62Z" fill="#6F7173"/>
<path d="M1447.08 3314.08V3429.34H1458.16V3314.08H1447.08Z" fill="#6F7173"/>
<path d="M1320.81 3292.75V3429.34H1331.91V3292.75H1320.81Z" fill="#6F7173"/>
<path d="M1220.44 3219.78V3429.34H1231.54V3219.78H1220.44Z" fill="#6F7173"/>
<path d="M1396.28 3314.08V3429.34H1407.37V3314.08H1396.28Z" fill="#6F7173"/>
<path d="M1370.72 3314.08V3429.34H1381.79V3314.08H1370.72Z" fill="#6F7173"/>
<path d="M1345.16 3314.08V3429.34H1356.24V3314.08H1345.16Z" fill="#6F7173"/>
<path d="M1296.2 3314.08V3429.34H1307.27V3314.08H1296.2Z" fill="#6F7173"/>
<path d="M1270.64 3314.08V3429.34H1281.73V3314.08H1270.64Z" fill="#6F7173"/>
<path d="M1245.08 3314.08V3429.34H1256.15V3314.08H1245.08Z" fill="#6F7173"/>
<path d="M1118.83 3292.75V3429.34H1129.9V3292.75H1118.83Z" fill="#6F7173"/>
<path d="M1018.46 3219.78V3429.34H1029.55V3219.78H1018.46Z" fill="#6F7173"/>
<path d="M1194.29 3314.08V3429.34H1205.37V3314.08H1194.29Z" fill="#6F7173"/>
<path d="M1168.72 3314.08V3429.34H1179.79V3314.08H1168.72Z" fill="#6F7173"/>
<path d="M1143.16 3314.08V3429.34H1154.25V3314.08H1143.16Z" fill="#6F7173"/>
<path d="M1094.19 3314.08V3429.34H1105.28V3314.08H1094.19Z" fill="#6F7173"/>
<path d="M1068.63 3314.08V3429.34H1079.73V3314.08H1068.63Z" fill="#6F7173"/>
<path d="M1043.1 3314.08V3429.34H1054.17V3314.08H1043.1Z" fill="#6F7173"/>
<path d="M916.846 3292.75V3429.34H927.919V3292.75H916.846Z" fill="#6F7173"/>
<path d="M816.457 3219.78V3429.34H827.53V3219.78H816.457Z" fill="#6F7173"/>
<path d="M992.291 3314.08V3429.34H1003.36V3314.08H992.291Z" fill="#6F7173"/>
<path d="M966.734 3314.08V3429.34H977.808V3314.08H966.734Z" fill="#6F7173"/>
<path d="M941.158 3314.08V3429.34H952.251V3314.08H941.158Z" fill="#6F7173"/>
<path d="M892.189 3314.08V3429.34H903.282V3314.08H892.189Z" fill="#6F7173"/>
<path d="M866.652 3314.08V3429.34H877.745V3314.08H866.652Z" fill="#6F7173"/>
<path d="M841.096 3314.08V3429.34H852.188V3314.08H841.096Z" fill="#6F7173"/>
<path d="M714.844 3292.75V3429.34H725.917V3292.75H714.844Z" fill="#6F7173"/>
<path d="M614.455 3219.78V3429.34H625.548V3219.78H614.455Z" fill="#6F7173"/>
<path d="M790.289 3314.08V3429.34H801.381V3314.08H790.289Z" fill="#6F7173"/>
<path d="M764.73 3314.08V3429.34H775.804V3314.08H764.73Z" fill="#6F7173"/>
<path d="M739.193 3314.08V3429.34H750.267V3314.08H739.193Z" fill="#6F7173"/>
<path d="M690.227 3314.08V3429.34H701.3V3314.08H690.227Z" fill="#6F7173"/>
<path d="M664.65 3314.08V3429.34H675.743V3314.08H664.65Z" fill="#6F7173"/>
<path d="M639.094 3314.08V3429.34H650.186V3314.08H639.094Z" fill="#6F7173"/>
<path d="M512.842 3292.75V3429.34H523.934V3292.75H512.842Z" fill="#6F7173"/>
<path d="M412.473 3219.78V3429.34H423.565V3219.78H412.473Z" fill="#6F7173"/>
<path d="M588.285 3314.08V3429.34H599.378V3314.08H588.285Z" fill="#6F7173"/>
<path d="M562.748 3314.08V3429.34H573.821V3314.08H562.748Z" fill="#6F7173"/>
<path d="M537.191 3314.08V3429.34H548.265V3314.08H537.191Z" fill="#6F7173"/>
<path d="M488.223 3314.08V3429.34H499.296V3314.08H488.223Z" fill="#6F7173"/>
<path d="M462.666 3314.08V3429.34H473.739V3314.08H462.666Z" fill="#6F7173"/>
<path d="M437.109 3314.08V3429.34H448.183V3314.08H437.109Z" fill="#6F7173"/>
<path d="M310.857 3292.75V3429.34H321.931V3292.75H310.857Z" fill="#6F7173"/>
<path d="M210.488 3219.78V3429.34H221.562V3219.78H210.488Z" fill="#6F7173"/>
<path d="M386.322 3314.08V3429.34H397.396V3314.08H386.322Z" fill="#6F7173"/>
<path d="M360.746 3314.08V3429.34H371.819V3314.08H360.746Z" fill="#6F7173"/>
<path d="M335.189 3314.08V3429.34H346.282V3314.08H335.189Z" fill="#6F7173"/>
<path d="M286.221 3314.08V3429.34H297.294V3314.08H286.221Z" fill="#6F7173"/>
<path d="M260.664 3314.08V3429.34H271.757V3314.08H260.664Z" fill="#6F7173"/>
<path d="M235.107 3314.08V3429.34H246.181V3314.08H235.107Z" fill="#6F7173"/>
<path d="M186.369 3314.08V3429.34H195.393V3314.08H186.369Z" fill="#6F7173"/>
</svg>
