<svg width="193" height="163" viewBox="0 0 193 163" fill="none" xmlns="http://www.w3.org/2000/svg">
<path fill-rule="evenodd" clip-rule="evenodd" d="M3.64457 8.72272C1.63008 8.72272 0 7.20608 0 4.17277C0 1.89778 1.63008 0 3.64457 0H188.526C190.545 0 192.154 1.89778 192.154 4.17277C192.154 7.20608 190.541 8.72272 188.526 8.72272H3.64457Z" fill="white"/>
<path fill-rule="evenodd" clip-rule="evenodd" d="M3.64457 85.7663C1.63008 85.7663 0 83.8645 0 81.2123C0 79.6877 1.63008 77.7939 3.64457 77.7939H188.526C190.545 77.7939 192.154 79.6877 192.154 81.2123C192.154 83.8685 190.541 85.7663 188.526 85.7663H3.64457Z" fill="white"/>
<path fill-rule="evenodd" clip-rule="evenodd" d="M3.64457 162.414C1.63008 162.414 0 160.897 0 159.015C0 156.347 1.63008 154.457 3.64457 154.457H188.526C190.545 154.457 192.154 156.351 192.154 159.015C192.154 160.901 190.541 162.414 188.526 162.414H3.64457Z" fill="white"/>
</svg>
