<svg width="4550" height="1820" viewBox="0 0 4550 1820" fill="none" xmlns="http://www.w3.org/2000/svg">
<path d="M4303.5 773.23C4305.67 784.741 4309.93 801.548 4311.59 818.38C4312.46 827.013 4317.66 834.97 4328.71 842.732C4348.21 856.517 4366.7 870.446 4385.48 884.352C4422.1 911.437 4437.26 940.191 4444.27 969.574C4453.73 1009.33 4449.4 1048.99 4439.14 1088.63C4423.25 1150.03 4351.82 1203.33 4228.53 1248.87C4159.05 1274.52 4084.44 1298.37 3994.88 1316.22C3978.34 1319.53 3973.14 1324.29 3968.44 1329.78C3941.65 1361.32 3904.38 1391.31 3843.93 1417.38C3733.06 1465.19 3595.25 1501.8 3430.72 1527.02C3314 1544.94 3191.87 1556.02 3063.6 1558.82C3029.07 1559.57 2999.1 1562.84 2969.7 1569.15C2839.48 1597.18 2696.76 1616.09 2549.49 1631.01C2289.69 1657.35 2026.21 1661.58 1760.35 1642.72C1617.12 1632.53 1489.79 1610.58 1372.71 1581.56C1336.09 1572.49 1299.11 1563.54 1263.29 1554.13C1240.9 1548.26 1218.29 1546.54 1189.76 1548.67C1079.76 1556.89 970.411 1554.16 862.072 1544.8C769.334 1536.79 689.019 1521.41 621.126 1498.85C500.87 1458.92 400.837 1414.16 329.044 1362.55C316.476 1353.48 302.609 1344.49 286.286 1336.14C197.809 1290.95 145.084 1241.49 127.749 1187.88C121.538 1168.77 121.61 1149.42 116.699 1130.25C114.749 1122.8 108.898 1115.3 101.242 1108.24C79.2854 1087.88 53.5733 1067.93 32.9166 1047.42C1.35381 1016.13 -6.37442 983.793 4.89285 951.049C19.627 908.342 36.0943 865.755 73.074 824.353C80.5133 816.01 82.6079 806.99 83.9802 798.211C90.1917 758.067 100.014 718.092 126.232 678.746C158.951 629.581 221.499 584.939 300.153 542.062C450.095 460.322 653.411 397.881 898.908 349.877C970.411 335.899 1046.75 329.056 1129.96 333.602C1148.09 334.594 1162.53 332.393 1177.34 329.491C1240.39 317.085 1304.02 304.945 1366.93 292.466C1599.14 246.349 1852.73 220.086 2115.85 203.496C2191.97 198.684 2270.84 198.829 2348.41 196.483C2384.09 195.395 2421.07 195.419 2454.95 192.081C2606.62 177.112 2757.65 179.845 2910.48 189.953C3141.67 205.261 3326.64 245.575 3479.83 304.074C3539.28 326.758 3593.81 350.675 3639.82 376.672C3658.96 387.482 3683.01 396.745 3708.65 405.838C3756.39 422.742 3805.14 439.573 3846.96 458.073C3922.22 491.349 3998.27 524.674 4063.93 560.078C4182.59 623.971 4267.82 692.748 4303.5 773.23ZM2489.18 311.015C2487.3 312.2 2485.35 313.409 2483.48 314.594C2490.27 315.368 2497.78 315.731 2503.77 316.94C2604.17 337.375 2704.2 357.979 2804.67 378.341C2817.81 381.001 2832.62 383.057 2847.42 384.387C3058.83 403.25 3244.31 437.977 3408.62 486.029C3502.73 513.55 3591.28 542.812 3671.81 574.83C3681.78 578.796 3690.45 583.488 3707.35 585.156C3701.14 579.788 3693.26 574.951 3684.02 570.38C3608.47 533.017 3525.41 497.685 3422.85 468.206C3341.88 444.942 3258.39 422.693 3174.9 400.445C2982.63 349.249 2758.8 323.832 2519.44 311.474C2509.48 310.967 2499.22 311.16 2489.18 311.015ZM2765.16 1564.05C2761.98 1563.01 2760.39 1561.99 2758.73 1561.97C2695.53 1561.31 2632.48 1558.48 2569.42 1563.78C2453 1573.55 2335.2 1581.34 2214.94 1582.21C2108.48 1583.01 2001.8 1582.6 1895.34 1581.56C1821.16 1580.83 1747.2 1578.07 1673.1 1576.31C1664.43 1576.11 1655.62 1576.45 1638.5 1576.62C1651.72 1579.33 1657.14 1580.98 1663.42 1581.65C1716.87 1587.5 1769.52 1594.47 1824.12 1598.63C1985.77 1610.99 2149.65 1611.01 2313.82 1605.62C2463.04 1600.71 2604.17 1585.38 2743.56 1567.89C2751 1567 2757.65 1565.43 2765.16 1564.05ZM295.314 643.849C297.625 644.309 299.864 644.768 302.176 645.228C308.387 641.866 313.876 638.335 320.81 635.167C350.567 621.576 380.757 608.106 410.659 594.539C449.083 577.127 488.302 559.933 525.354 542.207C567.967 521.82 607.692 500.757 650.45 480.419C752.577 431.835 883.812 393.432 1029.49 360.155C1040.33 357.689 1054.12 356.044 1061.34 350.893C978.862 355.464 766.372 407.288 632.898 454.784C487.724 506.464 306.148 608.155 295.314 643.849ZM3339.93 919.418C3337.12 919.514 3334.3 919.611 3331.41 919.708C3329.32 922.731 3326.79 925.729 3325.2 928.776C3299.92 979.634 3259.69 1029.16 3207.69 1077.62C3193.1 1091.19 3179.09 1105.19 3157.2 1117.45C3135.17 1129.76 3147.88 1138.81 3164.71 1149.06C3168.97 1148.24 3171.57 1148 3172.95 1147.44C3254.42 1113.71 3319.2 1076.87 3356.18 1035.06C3362.18 1028.24 3365.72 1020.77 3364.56 1013.71C3360.3 986.454 3353.87 959.247 3347.66 932.041C3346.72 927.785 3342.61 923.626 3339.93 919.418ZM3837.5 1358.05C3834.54 1357.35 3831.58 1356.68 3828.61 1355.97C3809.4 1361.92 3789.4 1367.58 3771.05 1373.82C3656.14 1412.95 3522.66 1442.96 3373.45 1465.4C3358.13 1467.7 3343.04 1470.17 3328.09 1472.68C3294.79 1478.22 3220.9 1500.47 3199.67 1511.25C3201.76 1511.55 3203.93 1512.13 3205.88 1512.05C3211.8 1511.81 3217.65 1511.4 3223.5 1510.92C3417.36 1495.1 3582.47 1462.65 3720.78 1414.67C3760.07 1401.03 3794.6 1386.18 3821.75 1369.52C3827.68 1365.84 3832.23 1361.87 3837.5 1358.05ZM1238.88 451.786C1240.54 452.584 1242.2 453.357 1243.79 454.156C1274.56 453.261 1295.21 445.087 1321.57 441.048C1347.72 437.058 1372.71 432.246 1398.71 428.159C1425.8 423.902 1453.46 420.009 1481.05 416.164C1507.56 412.464 1534.35 408.957 1561.08 405.426C1588.88 401.726 1616.69 397.978 1644.71 394.423C1672.74 390.868 1700.76 387.337 1729.15 384.169C1756.45 381.122 1783.97 378.365 1811.77 375.874C1840.66 373.263 1869.84 370.965 1899.09 368.837C1927.19 366.806 1955.72 365.403 1983.74 363.323C2011.41 361.292 2041.38 362.477 2067.31 356.479C2017.91 352.513 1968.43 350.022 1919.1 347.29C1855.69 343.783 1796.24 347.314 1737.24 355.899C1567.29 380.638 1412.58 414.422 1254.4 446.103C1248.12 447.36 1244 449.851 1238.88 451.786ZM2502.4 1153.68C2485.86 1148.14 2472.57 1151.24 2459.93 1152.71C2376.65 1162.46 2292 1165.63 2205.19 1159.03C2184.39 1157.45 2165.03 1158.35 2145.75 1161.27C2117.36 1165.58 2088.83 1169.81 2059.87 1173.66C1986.49 1183.43 1910.94 1185.7 1834.02 1179.58C1795.59 1176.51 1757.96 1172.37 1719.9 1168.82C1713.11 1168.19 1705.89 1168.09 1698.88 1167.73C1811.2 1194.67 1938.96 1197.57 2069.69 1197.6C2227 1197.62 2365.53 1178.52 2502.4 1153.68ZM318.643 1254.02C316.404 1254.43 314.165 1254.86 311.926 1255.27C313.226 1257.16 313.804 1259.14 315.898 1260.96C349.772 1290.07 383.213 1319.24 418.315 1348.16C424.382 1353.17 435.938 1357.76 447.855 1361.56C486.063 1373.7 524.199 1385.94 564.862 1397.11C624.954 1413.63 686.852 1429.47 748.822 1445.19C769.117 1450.34 792.085 1454.33 817.798 1456.02C730.043 1423.61 639.182 1392.51 552.583 1360.11C464.973 1327.27 389.858 1291.09 318.643 1254.02ZM4307.4 890.785C4305.31 890.93 4303.28 891.075 4301.19 891.22C4293.25 905.778 4284.14 920.264 4278.01 934.895C4275.77 940.264 4280.17 945.995 4282.12 951.533C4286.38 963.455 4292.23 975.329 4294.98 987.276C4297.43 998.062 4294.83 1008.97 4297.65 1019.73C4303.36 1041.18 4297.43 1062.2 4282.19 1082.99C4259.44 1114.14 4236.26 1145.27 4213.36 1176.41C4212.35 1177.84 4212.28 1179.34 4210.98 1183.35C4220.87 1179.56 4226.8 1177.79 4230.84 1175.64C4259.95 1160.31 4281.4 1143.81 4296.93 1126.43C4325.31 1094.65 4331.31 1061.81 4339.4 1029.02C4349.94 985.922 4340.26 943.311 4316.07 900.966C4314.19 897.508 4310.36 894.17 4307.4 890.785ZM3737.83 662.446C3736.09 662.833 3734.36 663.196 3732.7 663.559C3739.99 668.395 3747.65 673.159 3754.44 678.093C3790.33 704.307 3827.68 730.329 3861.19 756.906C3882.21 773.568 3883.94 791.101 3866.68 808.731C3861.62 813.858 3860.47 819.831 3862.34 825.248C3865.52 834.365 3871.59 843.434 3878.38 852.357C3881.27 856.203 3889.14 859.612 3895.5 863.699C3915.72 856.831 3915.5 856.807 3918.83 848.077C3931.32 815.163 3918.61 782.419 3913.62 749.627C3912.18 740.002 3903.08 731.755 3885.38 724.234C3846.82 707.862 3809.19 691.248 3770.76 674.852C3760.43 670.475 3748.81 666.557 3737.83 662.446ZM1406.51 1077.43C1412.94 1067.18 1415.76 1057.46 1425.58 1048.6C1434.61 1040.48 1432.51 1034.53 1417.27 1027.61C1370.62 1006.45 1337.46 983.044 1315.87 957.7C1310.45 951.315 1299.18 945.39 1289.15 939.562C1277.81 932.984 1265.02 926.672 1252.38 920.361C1249.13 918.74 1244.44 917.483 1237.94 915.186C1242.92 951.025 1358.19 1061.42 1406.51 1077.43ZM1210.06 845.368C1214.9 842.563 1217.5 841.644 1218.15 840.58C1237.14 807.788 1279.25 778.429 1334.14 750.812C1345.05 745.346 1351.19 738.478 1355.67 731.973C1365.99 716.762 1374.08 701.381 1382.68 686.049C1383.69 684.187 1382.53 682.204 1382.17 677.609C1266.75 728.201 1198.14 781.065 1210.06 845.368ZM2156.51 486.344C2174.71 488.109 2186.84 489.463 2199.19 490.455C2317.86 500.104 2436.1 510.188 2546.82 528.108C2555.99 529.583 2568.2 530.575 2577.73 529.873C2609.87 527.504 2641.51 524.263 2673.65 521.337C2626.77 504.529 2277.05 480.394 2156.51 486.344ZM1059.68 1520.06C1033.68 1511.23 1006.24 1503.71 969.111 1501.73C850.733 1495.34 743.983 1480.13 650.089 1454.98C644.744 1453.55 637.521 1452.9 624.232 1450.77C736.832 1501.56 885.04 1520.37 1059.68 1520.06ZM884.39 923.239C883.234 924.303 881.068 925.367 881.068 926.406C881.645 947.228 880.995 968.074 884.173 988.848C885.112 994.797 894.213 1001.3 904.902 1006.24C948.383 1026.19 980.018 1048 1004.29 1071.22C1016.13 1082.51 1031.15 1093.46 1045.67 1104.42C1050 1107.71 1057.37 1110.56 1063.37 1113.63C986.229 1051.85 931.265 988.171 884.39 923.239ZM2881.87 1041.45C2924.05 1015.91 2995.56 919.684 2982.92 902.513C2950.2 948.824 2894.37 989.815 2828.57 1030.15C2848.22 1034.31 2864.03 1037.65 2881.87 1041.45ZM3390.56 314.038C3318.91 272.491 2995.2 216.507 2872.77 222.819C2960.53 235.128 3051.82 247.098 3141.02 260.689C3231.31 274.474 3311.4 294.062 3390.56 314.038ZM3020.62 713.255C3019.1 702.324 3018.24 693.28 3016.22 684.26C3015.78 682.47 3012.1 680.221 3007.84 679.181C2979.96 672.434 2950.13 666.92 2910.12 662.229C2919.58 671.587 2930.19 678.431 2932.87 685.614C2939.01 702.034 2972.66 707.959 3020.62 713.255ZM1567.58 618.215C1602.39 617.296 1645.58 608.348 1684.22 594.346C1642.47 599.473 1604.99 606.873 1567.58 618.215ZM2990.58 1189.35C3018.02 1194.28 3027.34 1193.05 3049.08 1182.41C3018.96 1178.06 3018.24 1178.13 2990.58 1189.35ZM2992.16 862.732C3004.15 850.423 3003.21 848.996 2980.17 842.442C2984.72 850.157 2988.41 856.444 2992.16 862.732ZM3015.85 1517.52C3014.48 1516.82 3013.11 1516.09 3011.67 1515.39C3007.69 1516.31 3003.79 1517.2 2999.82 1518.12C3000.76 1518.65 3001.63 1519.16 3002.57 1519.69C3007.04 1518.95 3011.45 1518.22 3015.85 1517.52Z" fill="black"/>
<path d="M3114.28 1701.22C3063.79 1703.5 3023.78 1697.26 3003.27 1685.29C2982.9 1673.41 2987.52 1658.64 3015.26 1647C3036.93 1637.91 3065.82 1632.04 3097.6 1628.24C3183.4 1617.98 3269.57 1608.07 3356.02 1598.44C3431.14 1590.1 3508.28 1583.6 3581.87 1574.07C3725.17 1555.52 3844.71 1526.52 3925.02 1481.3C3955.65 1464.06 3990.24 1447.61 4024.04 1431.02C4052.36 1417.14 4089.48 1406.14 4135.34 1399.44C4237.04 1384.59 4318.51 1360.02 4404.39 1337.63C4429.67 1331.03 4450.18 1322.39 4472.86 1314.65C4478.71 1312.65 4483.55 1310.25 4490.05 1308.54C4514.89 1301.93 4545.01 1305.46 4549.27 1315.94C4551.3 1320.92 4548.91 1326.46 4544.36 1331.32C4500.67 1377.82 4430.1 1418.25 4300.74 1443.6C4238.7 1455.76 4189.37 1470.95 4158.02 1492.76C4146.11 1501.06 4128.99 1508.48 4116.13 1516.63C4044.92 1561.66 3937.01 1594.53 3810.25 1621.32C3730.3 1638.23 3643.12 1649.21 3552.48 1657.57C3446.16 1667.39 3339.92 1677.35 3233.89 1687.56C3206.3 1690.22 3179.72 1694.04 3152.56 1697.18C3137.9 1698.85 3122.95 1700.3 3114.28 1701.22Z" fill="black"/>
<path d="M1092.4 1649.7C989.119 1653.72 889.158 1650.94 789.992 1640.32C658.035 1626.17 537.562 1605.59 433.413 1574.76C358.875 1552.7 283.399 1531.01 209.512 1508.72C193.911 1504 180.91 1497.86 171.16 1491.59C156.498 1482.19 161.265 1472.68 182.571 1464.77C203.011 1457.2 230.385 1454.88 258.192 1458.29C278.993 1460.86 298.856 1465.11 316.19 1469.85C384.082 1488.33 451.036 1507.19 517.917 1526.1C629.289 1557.59 755.107 1580.23 893.419 1595.39C926.427 1598.99 958.639 1603.44 990.852 1607.77C1060.48 1617.15 1131.55 1623.68 1207.6 1622.04C1212.37 1621.94 1217.28 1621.87 1221.9 1622.18C1241.77 1623.47 1247.54 1628.54 1233.1 1633.48C1224.21 1636.5 1212.08 1639.09 1200.02 1640.3C1164.48 1643.83 1128.3 1646.61 1092.4 1649.7Z" fill="black"/>
<path d="M1568.89 140.36C1610.78 139.586 1652.68 138.329 1694.57 138.184C1718.26 138.111 1742.31 139.393 1765.71 140.965C1776.83 141.714 1787.88 144.036 1797.06 146.454C1808.18 149.405 1812.95 153.999 1805.65 158.328C1798.57 162.512 1788.89 164.616 1770.69 163.987C1750.4 163.31 1727.72 164.954 1708.58 167.639C1668.85 173.177 1630.65 179.996 1592 186.429C1569.47 190.178 1548.09 194.869 1524.83 197.965C1470.09 205.195 1425.38 217.142 1382.48 230.104C1361.96 236.295 1341.6 242.534 1319.93 248.217C1299.63 253.513 1276.52 256.633 1249.65 255.472C1207.54 253.659 1179.3 242.268 1187.61 228.435C1191.44 222.075 1200.61 215.086 1213.83 210.516C1253.77 196.683 1295.01 183.116 1339.29 170.855C1416.5 149.453 1464.38 143.794 1568.89 140.36Z" fill="black"/>
<path d="M1604.43 1819.3C1512.49 1824.93 1384.65 1796.2 1438.1 1750.5C1453.48 1737.34 1481.14 1728.54 1520.87 1724.06C1585.94 1716.74 1678.1 1723.36 1708.44 1747.55C1713.86 1751.83 1729.53 1754.78 1741.23 1758.04C1762.54 1763.99 1762.32 1766.29 1740.8 1772.6C1735.31 1774.22 1730.97 1776.88 1729.31 1779.32C1713.49 1803.17 1674.28 1815.84 1604.43 1819.3Z" fill="black"/>
<path d="M4042.26 1698.98C4012.28 1698.76 3987.22 1696.92 3966.85 1690.2C3937.02 1680.36 3941.72 1665.87 3977.18 1658.35C3984.19 1656.87 3992.06 1655.42 4000.08 1655.01C4072.09 1651.31 4126.98 1636.87 4182.66 1622.9C4192.27 1620.5 4200.94 1617.55 4211.27 1615.67C4233.22 1611.63 4253.3 1615.98 4251.64 1624.3C4251.14 1627.01 4248.32 1629.86 4244.49 1632.28C4212.42 1652.74 4173.35 1671.5 4116.87 1685.24C4094.19 1690.78 4067.32 1694.45 4042.26 1698.98Z" fill="black"/>
<path d="M2672.79 27.9135C2627.64 26.5592 2593.7 17.1036 2551.59 20.3441C2549.86 23.5121 2548.48 26.9945 2545.96 30.356C2540.11 38.1913 2526.74 44.0438 2504.07 47.1634C2459.72 53.2818 2392.04 41.9881 2379.55 26.4383C2368.93 13.21 2392.84 2.03741 2436.53 0.513865C2489.76 -1.32406 2541.62 1.89225 2591.02 8.1799C2615.15 11.227 2636.67 16.6199 2658.85 21.1906C2663.11 22.037 2665.13 24.0925 2672.79 27.9135Z" fill="black"/>
</svg>
