<svg width="1744" height="1799" viewBox="0 0 1744 1799" fill="none" xmlns="http://www.w3.org/2000/svg">
<path d="M1584.9 763.929C1585.63 775.302 1587.07 791.907 1587.63 808.536C1587.93 817.066 1589.69 824.926 1593.42 832.596C1600.02 846.215 1606.27 859.977 1612.62 873.715C1625 900.474 1630.13 928.883 1632.5 957.912C1635.7 997.191 1634.23 1036.37 1630.77 1075.53C1625.39 1136.2 1601.24 1188.86 1559.55 1233.85C1536.05 1259.2 1510.82 1282.75 1480.54 1300.39C1474.94 1303.66 1473.19 1308.37 1471.6 1313.79C1462.54 1344.95 1449.93 1374.57 1429.49 1400.33C1392 1447.56 1345.4 1483.74 1289.77 1508.66C1250.3 1526.36 1209 1537.3 1165.62 1540.07C1153.95 1540.82 1143.81 1544.04 1133.87 1550.28C1089.83 1577.97 1041.57 1596.65 991.775 1611.39C903.923 1637.41 814.826 1641.59 724.923 1622.96C676.492 1612.9 633.433 1591.2 593.843 1562.53C581.46 1553.57 568.955 1544.73 556.841 1535.44C549.27 1529.63 541.625 1527.94 531.978 1530.04C494.781 1538.16 457.804 1535.46 421.169 1526.22C389.809 1518.31 362.65 1503.11 339.692 1480.82C299.027 1441.38 265.2 1397.15 240.923 1346.16C236.674 1337.2 231.984 1328.32 226.465 1320.07C196.546 1275.42 178.717 1226.56 172.855 1173.59C170.755 1154.71 170.779 1135.6 169.118 1116.65C168.459 1109.29 166.48 1101.89 163.892 1094.91C156.467 1074.79 147.772 1055.08 140.787 1034.82C130.114 1003.9 127.501 971.961 131.311 939.61C136.293 897.416 141.862 855.342 154.366 814.438C156.882 806.195 157.59 797.283 158.054 788.61C160.155 748.949 163.476 709.454 172.342 670.581C183.406 622.008 204.557 577.903 231.154 535.541C281.857 454.785 350.609 393.095 433.625 345.668C457.804 331.858 483.62 325.097 511.755 329.589C517.886 330.568 522.77 328.394 527.777 325.527C549.099 313.27 570.616 301.276 591.889 288.948C670.41 243.385 756.161 217.437 845.136 201.047C870.878 196.293 897.549 196.436 923.78 194.118C935.845 193.043 948.35 193.067 959.804 189.77C1011.09 174.981 1062.16 177.681 1113.84 187.668C1192.02 202.791 1254.57 242.62 1306.37 300.416C1326.47 322.827 1344.91 346.457 1360.47 372.141C1366.94 382.821 1375.08 391.972 1383.75 400.955C1399.89 417.656 1416.38 434.285 1430.52 452.563C1455.97 485.439 1481.69 518.363 1503.89 553.341C1544.01 616.465 1572.83 684.415 1584.9 763.929ZM971.381 307.273C970.746 308.444 970.086 309.638 969.451 310.809C971.747 311.574 974.287 311.932 976.314 313.127C1010.26 333.316 1044.09 353.672 1078.06 373.79C1082.51 376.418 1087.51 378.449 1092.52 379.763C1164.01 398.399 1226.73 432.708 1282.29 480.183C1314.12 507.372 1344.06 536.282 1371.29 567.916C1374.66 571.834 1377.59 576.469 1383.31 578.118C1381.21 572.813 1378.54 568.035 1375.42 563.519C1349.87 526.606 1321.78 491.699 1287.1 462.574C1259.72 439.589 1231.49 417.608 1203.26 395.627C1138.24 345.047 1062.55 319.936 981.614 307.727C978.244 307.225 974.776 307.416 971.381 307.273ZM1064.7 1545.24C1063.63 1544.21 1063.09 1543.2 1062.53 1543.18C1041.16 1542.54 1019.84 1539.74 998.515 1544.97C959.145 1554.63 919.31 1562.32 878.645 1563.18C842.645 1563.97 806.571 1563.56 770.571 1562.53C745.488 1561.82 720.478 1559.09 695.42 1557.35C692.489 1557.16 689.509 1557.49 683.721 1557.66C688.191 1560.34 690.022 1561.96 692.147 1562.63C710.221 1568.41 728.025 1575.29 746.489 1579.4C801.149 1591.61 856.566 1591.63 912.081 1586.31C962.54 1581.46 1010.26 1566.31 1057.4 1549.03C1059.92 1548.15 1062.16 1546.6 1064.7 1545.24ZM229.518 636.105C230.299 636.559 231.056 637.012 231.838 637.466C233.938 634.145 235.794 630.657 238.139 627.527C248.201 614.1 258.411 600.792 268.522 587.388C281.515 570.185 294.777 553.198 307.306 535.685C321.716 515.543 335.149 494.733 349.608 474.64C384.143 426.64 428.52 388.699 477.782 355.823C481.446 353.386 486.111 351.761 488.553 346.672C460.662 351.187 388.807 402.389 343.673 449.314C294.582 500.372 233.181 600.839 229.518 636.105ZM1259.07 908.359C1258.11 908.455 1257.16 908.55 1256.18 908.646C1255.47 911.632 1254.62 914.595 1254.08 917.605C1245.53 967.851 1231.93 1016.78 1214.35 1064.66C1209.41 1078.07 1204.67 1091.9 1197.27 1104.01C1189.82 1116.18 1194.12 1125.11 1199.81 1135.24C1201.25 1134.43 1202.13 1134.19 1202.6 1133.64C1230.15 1100.31 1252.06 1063.92 1264.56 1022.61C1266.59 1015.87 1267.78 1008.49 1267.39 1001.52C1265.95 974.589 1263.78 947.71 1261.68 920.831C1261.36 916.626 1259.97 912.516 1259.07 908.359ZM1427.32 1341.72C1426.32 1341.03 1425.32 1340.36 1424.31 1339.67C1417.82 1345.54 1411.05 1351.13 1404.85 1357.3C1365.99 1395.96 1320.86 1425.61 1270.4 1447.78C1265.22 1450.05 1260.12 1452.49 1255.06 1454.97C1243.8 1460.44 1218.82 1482.42 1211.63 1493.08C1212.34 1493.37 1213.08 1493.94 1213.74 1493.87C1215.74 1493.63 1217.72 1493.22 1219.69 1492.74C1285.25 1477.12 1341.08 1445.05 1387.85 1397.65C1401.14 1384.18 1412.81 1369.51 1421.99 1353.04C1424 1349.41 1425.54 1345.49 1427.32 1341.72ZM548.586 446.351C549.148 447.139 549.709 447.904 550.247 448.692C560.651 447.808 567.636 439.733 576.551 435.743C585.392 431.8 593.843 427.046 602.635 423.008C611.794 418.803 621.148 414.956 630.478 411.157C639.441 407.502 648.502 404.037 657.539 400.549C666.942 396.894 676.345 393.19 685.821 389.678C695.298 386.166 704.774 382.678 714.373 379.548C723.605 376.537 732.91 373.813 742.313 371.352C752.082 368.772 761.95 366.502 771.841 364.4C781.342 362.393 790.989 361.007 800.465 358.952C809.82 356.945 819.955 358.116 828.723 352.191C812.018 348.273 795.288 345.811 778.606 343.112C757.163 339.647 737.062 343.136 717.108 351.617C659.639 376.059 607.324 409.437 553.837 440.736C551.712 441.979 550.32 444.439 548.586 446.351ZM975.85 1139.8C970.257 1134.33 965.764 1137.39 961.489 1138.85C933.329 1148.48 904.705 1151.61 875.348 1145.09C868.314 1143.53 861.768 1144.42 855.247 1147.31C845.649 1151.56 836.002 1155.74 826.208 1159.54C801.393 1169.19 775.847 1171.44 749.836 1165.39C736.842 1162.36 724.118 1158.27 711.246 1154.76C708.951 1154.14 706.508 1154.04 704.139 1153.69C742.118 1180.3 785.323 1183.17 829.529 1183.19C882.724 1183.22 929.568 1164.34 975.85 1139.8ZM237.406 1238.93C236.649 1239.34 235.892 1239.77 235.135 1240.18C235.575 1242.04 235.77 1244 236.478 1245.79C247.933 1274.56 259.241 1303.37 271.111 1331.95C273.162 1336.89 277.07 1341.43 281.1 1345.18C294.02 1357.18 306.916 1369.27 320.666 1380.31C340.986 1396.62 361.917 1412.27 382.873 1427.8C389.736 1432.89 397.502 1436.84 406.197 1438.51C376.523 1406.49 345.798 1375.77 316.514 1343.75C286.888 1311.3 261.488 1275.56 237.406 1238.93ZM1586.22 880.07C1585.51 880.214 1584.83 880.357 1584.12 880.5C1581.43 894.884 1578.35 909.195 1576.28 923.65C1575.52 928.954 1577.01 934.617 1577.67 940.088C1579.11 951.867 1581.09 963.598 1582.02 975.401C1582.85 986.057 1581.97 996.833 1582.92 1007.46C1584.85 1028.66 1582.85 1049.42 1577.69 1069.97C1570 1100.74 1562.16 1131.49 1554.42 1162.26C1554.08 1163.67 1554.05 1165.15 1553.61 1169.12C1556.96 1165.37 1558.96 1163.63 1560.33 1161.5C1570.17 1146.35 1577.43 1130.06 1582.68 1112.88C1592.27 1081.48 1594.3 1049.04 1597.04 1016.64C1600.6 974.063 1597.33 931.965 1589.15 890.129C1588.51 886.712 1587.22 883.415 1586.22 880.07ZM1393.61 654.478C1393.03 654.86 1392.44 655.219 1391.88 655.577C1394.35 660.355 1396.94 665.062 1399.23 669.936C1411.37 695.836 1424 721.544 1435.33 747.802C1442.44 764.264 1443.02 781.586 1437.19 799.003C1435.48 804.068 1435.09 809.97 1435.72 815.322C1436.79 824.329 1438.85 833.289 1441.14 842.105C1442.12 845.904 1444.78 849.273 1446.93 853.311C1453.77 846.525 1453.7 846.501 1454.82 837.876C1459.04 805.359 1454.75 773.008 1453.06 740.61C1452.57 731.101 1449.5 722.954 1443.51 715.523C1430.47 699.348 1417.74 682.934 1404.75 666.735C1401.26 662.41 1397.33 658.54 1393.61 654.478ZM605.273 1064.47C607.447 1054.34 608.399 1044.74 611.721 1035.99C614.774 1027.96 614.065 1022.09 608.912 1015.25C593.134 994.348 581.924 971.22 574.621 946.181C572.79 939.873 568.98 934.019 565.585 928.261C561.75 921.763 557.427 915.527 553.153 909.291C552.054 907.69 550.467 906.448 548.269 904.178C549.954 939.586 588.934 1048.66 605.273 1064.47ZM538.841 835.2C540.477 832.429 541.357 831.521 541.576 830.47C548 798.071 562.239 769.066 580.8 741.781C584.488 736.381 586.564 729.596 588.079 723.169C591.571 708.14 594.307 692.945 597.213 677.797C597.555 675.957 597.164 673.998 597.042 669.459C558.013 719.441 534.811 771.67 538.841 835.2ZM858.886 480.493C865.041 482.237 869.144 483.575 873.321 484.555C913.448 494.088 953.43 504.051 990.871 521.756C993.973 523.213 998.1 524.192 1001.32 523.5C1012.19 521.158 1022.89 517.956 1033.76 515.065C1017.91 498.46 899.649 474.616 858.886 480.493ZM487.991 1501.78C479.199 1493.05 469.918 1485.62 457.364 1483.66C417.334 1477.36 381.236 1462.33 349.486 1437.48C347.678 1436.07 345.236 1435.43 340.742 1433.32C378.818 1483.5 428.935 1502.09 487.991 1501.78ZM428.715 912.134C428.325 913.185 427.592 914.236 427.592 915.264C427.787 935.835 427.568 956.43 428.642 976.954C428.96 982.832 432.037 989.259 435.652 994.133C450.355 1013.84 461.052 1035.4 469.259 1058.33C473.264 1069.49 478.344 1080.31 483.253 1091.14C484.719 1094.39 487.21 1097.2 489.237 1100.24C463.153 1039.19 444.566 976.285 428.715 912.134ZM1104.17 1028.92C1118.43 1003.69 1142.61 908.622 1138.34 891.658C1127.28 937.412 1108.4 977.91 1086.15 1017.76C1092.79 1021.87 1098.14 1025.17 1104.17 1028.92ZM1276.19 310.26C1251.96 269.212 1142.49 213.901 1101.09 220.137C1130.77 232.299 1161.64 244.125 1191.8 257.553C1222.33 271.172 1249.42 290.524 1276.19 310.26ZM1151.09 704.676C1150.58 693.877 1150.28 684.941 1149.6 676.029C1149.45 674.261 1148.21 672.039 1146.77 671.011C1137.34 664.345 1127.25 658.898 1113.72 654.263C1116.92 663.509 1120.51 670.271 1121.41 677.367C1123.49 693.59 1134.87 699.444 1151.09 704.676ZM659.737 610.779C671.509 609.871 686.115 601.031 699.181 587.197C685.064 592.262 672.389 599.573 659.737 610.779ZM1140.93 1175.05C1150.21 1179.92 1153.36 1178.7 1160.71 1168.19C1150.53 1163.89 1150.28 1163.96 1140.93 1175.05ZM1141.47 852.355C1145.52 840.194 1145.2 838.784 1137.41 832.309C1138.95 839.931 1140.2 846.143 1141.47 852.355ZM1149.48 1499.27C1149.01 1498.57 1148.55 1497.86 1148.06 1497.16C1146.72 1498.07 1145.4 1498.96 1144.05 1499.86C1144.37 1500.39 1144.67 1500.89 1144.98 1501.42C1146.5 1500.68 1147.99 1499.96 1149.48 1499.27Z" fill="black"/>
<path d="M1182.76 1680.76C1165.69 1683.01 1152.16 1676.84 1145.22 1665.02C1138.33 1653.29 1139.89 1638.69 1149.27 1627.2C1156.6 1618.21 1166.37 1612.41 1177.12 1608.66C1206.13 1598.53 1235.27 1588.73 1264.5 1579.22C1289.9 1570.98 1315.99 1564.55 1340.88 1555.14C1389.33 1536.81 1429.75 1508.16 1456.91 1463.49C1467.27 1446.45 1478.97 1430.2 1490.4 1413.81C1499.97 1400.1 1512.52 1389.23 1528.03 1382.61C1562.42 1367.94 1589.97 1343.66 1619.01 1321.54C1627.56 1315.02 1634.49 1306.49 1642.16 1298.84C1644.14 1296.86 1645.78 1294.49 1647.98 1292.8C1656.38 1286.27 1666.56 1289.76 1668 1300.11C1668.69 1305.03 1667.88 1310.5 1666.34 1315.3C1651.57 1361.25 1627.7 1401.2 1583.96 1426.24C1562.98 1438.25 1546.3 1453.26 1535.7 1474.81C1531.67 1483.01 1525.88 1490.34 1521.54 1498.39C1497.45 1542.88 1460.97 1575.35 1418.1 1601.82C1391.07 1618.52 1361.59 1629.37 1330.94 1637.64C1294.98 1647.34 1259.06 1657.18 1223.2 1667.26C1213.87 1669.89 1204.89 1673.67 1195.7 1676.77C1190.74 1678.42 1185.69 1679.85 1182.76 1680.76Z" fill="black"/>
<path d="M4.43423 1036.23C-4.30938 969.956 -0.499344 904.73 19.2348 840.698C26.4642 817.212 34.7926 794.036 42.5837 770.717C43.463 768.089 45.0505 765.222 44.6109 762.761C43.6583 757.289 47.0288 754.924 50.5458 752.105C62.4888 742.476 73.2596 745.582 76.2148 760.467C80.782 783.404 85.227 806.412 88.0113 829.588C89.4523 841.582 88.8661 854.34 86.2773 866.143C70.3531 938.513 76.9475 1009.62 96.755 1080.22C99.2217 1089.01 101.689 1097.83 103.3 1106.79C105.67 1120 102.641 1132.07 92.774 1141.91C75.8241 1158.85 47.9568 1156.2 33.5225 1136.25C25.1697 1124.71 20.8224 1111.42 17.6473 1097.9C12.8359 1077.45 8.80603 1056.8 4.43423 1036.23Z" fill="black"/>
<path d="M499.062 1629.86C464.137 1633.83 430.334 1631.08 396.801 1620.59C352.179 1606.62 311.441 1586.28 276.222 1555.82C251.017 1534.03 225.495 1512.6 200.509 1490.57C195.234 1485.91 190.838 1479.84 187.541 1473.66C182.583 1464.36 184.195 1454.97 191.4 1447.16C198.311 1439.68 207.568 1437.39 216.971 1440.76C224.005 1443.29 230.721 1447.49 236.583 1452.18C259.541 1470.43 282.182 1489.07 304.798 1507.75C342.459 1538.86 385.005 1561.22 431.775 1576.2C442.937 1579.76 453.83 1584.16 464.723 1588.43C488.267 1597.7 512.3 1604.16 538.018 1602.53C539.63 1602.44 541.29 1602.36 542.854 1602.67C549.57 1603.94 551.524 1608.96 546.639 1613.83C543.635 1616.82 539.532 1619.37 535.453 1620.57C523.437 1624.06 511.201 1626.81 499.062 1629.86Z" fill="black"/>
<path d="M1590.55 619.84C1585.96 612.314 1584.39 603.952 1586.62 595.422C1588.62 587.824 1594.55 582.735 1602.66 583.309C1610.14 583.834 1618.1 585.387 1624.69 588.708C1645.6 599.245 1662.4 614.679 1675.32 633.937C1695.1 663.468 1707.59 696.081 1716.77 729.984C1731.35 783.862 1738.87 838.91 1743.59 894.316C1744.59 906.072 1743.59 918.09 1742.56 929.892C1741.83 938.326 1738.07 945.948 1731.3 951.706C1718.94 962.219 1704.12 957.512 1700.99 941.886C1700.16 937.681 1700.7 933.237 1700.6 928.889C1700.26 913.072 1701.48 897.04 1699.31 881.486C1692.49 833.176 1685.19 784.865 1676.52 736.841C1669.63 698.685 1655.81 662.608 1634.17 629.875C1628.28 620.987 1620.56 613.222 1613.38 605.194C1611.31 602.877 1608.35 601.156 1605.5 599.723C1597.39 595.613 1592.99 598.313 1593.31 607.106C1593.45 611.215 1593.87 615.325 1594.16 619.434C1592.94 619.577 1591.74 619.721 1590.55 619.84Z" fill="black"/>
<path d="M660.18 138.671C674.346 137.906 688.511 136.664 702.677 136.52C710.688 136.449 718.821 137.715 726.734 139.268C730.495 140.009 734.232 142.302 737.334 144.692C741.095 147.606 742.707 152.146 740.24 156.423C737.847 160.556 734.574 162.635 728.419 162.014C721.556 161.345 713.887 162.969 707.415 165.621C693.982 171.093 681.062 177.83 667.996 184.186C660.375 187.889 653.146 192.524 645.282 195.583C626.769 202.726 611.651 214.529 597.143 227.336C590.207 233.452 583.319 239.616 575.992 245.231C569.129 250.463 561.314 253.546 552.228 252.399C537.989 250.607 528.44 239.353 531.248 225.687C532.543 219.403 535.645 212.498 540.114 207.983C553.621 194.316 567.566 180.913 582.538 168.799C608.647 147.654 624.839 142.063 660.18 138.671Z" fill="black"/>
<path d="M1445.92 209.92C1443.62 193.984 1455.66 184.236 1468.66 189.492C1473.32 191.38 1477.74 194.868 1481.09 198.643C1518.9 241.148 1556.53 283.772 1594.02 326.539C1599.74 333.062 1606.02 339.656 1603.06 349.882C1602.47 351.913 1604.89 354.876 1606.11 357.336C1608.97 363.023 1612.59 368.447 1614.64 374.396C1616.42 379.509 1617.37 385.243 1617.15 390.643C1616.81 398.981 1611.17 402.756 1602.91 400.271C1598.03 398.79 1593.32 395.994 1589.31 392.817C1585.62 389.878 1582.54 385.936 1579.98 381.946C1545.91 329.048 1504.34 281.812 1463.58 233.98C1459.43 229.106 1454.93 224.471 1451.12 219.358C1448.56 215.869 1446.92 211.784 1445.92 209.92Z" fill="black"/>
<path d="M672.201 1797.42C641.11 1802.98 597.88 1774.6 615.953 1729.44C621.155 1716.45 630.51 1707.75 643.943 1703.33C665.948 1696.09 697.113 1702.64 707.37 1726.53C709.202 1730.76 714.502 1733.67 718.459 1736.9C725.664 1742.78 725.59 1745.05 718.312 1751.28C716.456 1752.88 714.99 1755.51 714.429 1757.92C709.08 1781.48 695.818 1794 672.201 1797.42Z" fill="black"/>
<path d="M1496.55 1678.54C1486.41 1678.33 1477.94 1676.51 1471.05 1669.87C1460.96 1660.15 1462.55 1645.84 1474.54 1638.4C1476.91 1636.95 1479.57 1635.51 1482.28 1635.11C1506.63 1631.45 1525.2 1617.19 1544.03 1603.38C1547.27 1601.01 1550.21 1598.1 1553.7 1596.23C1561.12 1592.24 1567.91 1596.54 1567.35 1604.76C1567.18 1607.44 1566.23 1610.26 1564.93 1612.65C1554.09 1632.86 1540.88 1651.4 1521.78 1664.97C1514.11 1670.44 1505.02 1674.08 1496.55 1678.54Z" fill="black"/>
<path d="M1033.47 27.5778C1018.2 26.2398 1006.72 16.8979 992.483 20.0995C991.897 23.2294 991.433 26.6698 990.578 29.9909C988.599 37.732 984.081 43.5141 976.412 46.5962C961.416 52.641 938.531 41.4832 934.306 26.1203C930.716 13.0512 938.8 2.01291 953.576 0.507685C971.576 -1.30814 989.112 1.8695 1005.82 8.08153C1013.98 11.092 1021.25 16.42 1028.75 20.9357C1030.19 21.7719 1030.88 23.8028 1033.47 27.5778Z" fill="black"/>
<path d="M103.376 1324.95C100.934 1324.12 96.4886 1323.26 92.8007 1321.13C87.2565 1317.95 85.2293 1311.38 87.6717 1306.77C90.4315 1301.61 95.1209 1301.3 100.25 1302.4C103.01 1302.99 105.916 1303.23 108.554 1304.19C114.025 1306.15 117.078 1311.36 115.954 1316.37C114.708 1321.85 110.605 1323.97 103.376 1324.95Z" fill="black"/>
<path fill-rule="evenodd" clip-rule="evenodd" d="M568.528 956.948V1292.01C568.528 1305.09 579.799 1314.53 586.934 1318.19C594.66 1321.33 602.067 1325 613.361 1325H784.738C792.146 1325 796.009 1321.33 803.439 1318.19C807.007 1314.53 807.006 1308.24 807.006 1305.09V1141.22H978.68V1305.09C978.68 1308.24 982.224 1314.53 986.087 1318.19C993.495 1321.33 997.357 1325 1000.95 1325H1176.16C1183.57 1325 1194.59 1321.33 1202.3 1318.19C1209.7 1314.53 1217.13 1305.09 1217.13 1292.01V956.948L892.832 694.643L568.528 956.948ZM579.799 491L844.431 500.954L568.528 717.695L561.121 727.649L579.799 491ZM1344 865.321L933.824 533.92C911.283 517.677 877.993 517.677 851.862 533.92L441.711 865.321C419.442 885.228 415.579 917.674 438.143 940.726C453.004 950.68 467.842 956.948 482.703 956.948C497.541 956.948 512.698 953.804 523.696 943.87L892.877 648.579L1262.04 943.87C1287.87 963.758 1325.3 960.614 1351.43 940.726C1373.7 917.694 1369.83 885.228 1344 865.321ZM855.43 1032.87C855.43 1042.31 847.999 1049.12 837.024 1049.12H673.077C661.784 1049.12 650.513 1042.31 650.513 1032.87V943.87C650.513 934.437 661.784 927.627 673.077 927.627H837.024C847.999 927.627 855.43 934.437 855.43 943.87V1032.87ZM933.846 943.87C933.846 934.437 941.277 927.627 952.57 927.627H1116.52C1127.79 927.627 1138.79 934.437 1138.79 943.87V1032.87C1138.79 1042.31 1127.79 1049.12 1116.52 1049.12H952.57C941.277 1049.12 933.846 1042.31 933.846 1032.87V943.87Z" fill="white"/>
</svg>
