<svg width="1744" height="1799" viewBox="0 0 1744 1799" fill="none" xmlns="http://www.w3.org/2000/svg">
<path d="M1584.9 763.929C1585.63 775.301 1587.07 791.907 1587.63 808.536C1587.93 817.065 1589.69 824.926 1593.42 832.595C1600.02 846.214 1606.27 859.976 1612.62 873.714C1625 900.474 1630.13 928.882 1632.5 957.911C1635.7 997.191 1634.23 1036.37 1630.77 1075.53C1625.39 1136.2 1601.24 1188.86 1559.55 1233.84C1536.05 1259.19 1510.82 1282.75 1480.54 1300.39C1474.94 1303.66 1473.19 1308.37 1471.6 1313.79C1462.54 1344.94 1449.93 1374.57 1429.49 1400.33C1392 1447.56 1345.4 1483.74 1289.77 1508.66C1250.3 1526.36 1209 1537.3 1165.62 1540.07C1153.95 1540.82 1143.81 1544.04 1133.87 1550.28C1089.83 1577.97 1041.57 1596.65 991.775 1611.39C903.923 1637.41 814.826 1641.59 724.923 1622.96C676.492 1612.9 633.433 1591.2 593.843 1562.53C581.46 1553.57 568.955 1544.73 556.841 1535.44C549.27 1529.63 541.625 1527.94 531.978 1530.04C494.781 1538.16 457.804 1535.46 421.169 1526.22C389.809 1518.31 362.65 1503.11 339.692 1480.82C299.027 1441.37 265.2 1397.15 240.923 1346.16C236.674 1337.2 231.984 1328.32 226.465 1320.07C196.546 1275.42 178.717 1226.56 172.855 1173.59C170.755 1154.71 170.779 1135.6 169.118 1116.65C168.459 1109.29 166.48 1101.89 163.892 1094.91C156.467 1074.79 147.772 1055.08 140.787 1034.82C130.114 1003.9 127.501 971.96 131.311 939.61C136.293 897.416 141.862 855.341 154.366 814.437C156.882 806.194 157.59 797.283 158.054 788.61C160.155 748.948 163.476 709.454 172.342 670.581C183.406 622.008 204.557 577.902 231.154 535.541C281.857 454.784 350.609 393.094 433.625 345.668C457.804 331.858 483.62 325.096 511.755 329.588C517.886 330.568 522.77 328.393 527.777 325.526C549.099 313.27 570.616 301.276 591.889 288.947C670.41 243.384 756.161 217.437 845.136 201.047C870.878 196.292 897.549 196.436 923.78 194.118C935.845 193.043 948.35 193.067 959.804 189.77C1011.09 174.98 1062.16 177.68 1113.84 187.667C1192.02 202.791 1254.57 242.62 1306.37 300.416C1326.47 322.827 1344.91 346.456 1360.47 372.141C1366.94 382.82 1375.08 391.971 1383.75 400.955C1399.89 417.656 1416.38 434.285 1430.52 452.562C1455.97 485.438 1481.69 518.362 1503.89 553.341C1544.01 616.465 1572.83 684.415 1584.9 763.929ZM971.381 307.273C970.746 308.443 970.086 309.638 969.451 310.809C971.747 311.573 974.287 311.932 976.314 313.126C1010.26 333.315 1044.09 353.672 1078.06 373.789C1082.51 376.417 1087.51 378.448 1092.52 379.762C1164.01 398.398 1226.73 432.708 1282.29 480.182C1314.12 507.372 1344.06 536.282 1371.29 567.915C1374.66 571.834 1377.59 576.469 1383.31 578.117C1381.21 572.813 1378.54 568.035 1375.42 563.519C1349.87 526.605 1321.78 491.698 1287.1 462.573C1259.72 439.589 1231.49 417.608 1203.26 395.627C1138.24 345.047 1062.55 319.936 981.614 307.727C978.244 307.225 974.776 307.416 971.381 307.273ZM1064.7 1545.24C1063.63 1544.21 1063.09 1543.2 1062.53 1543.18C1041.16 1542.54 1019.84 1539.74 998.515 1544.97C959.145 1554.62 919.31 1562.32 878.645 1563.18C842.645 1563.97 806.571 1563.56 770.571 1562.53C745.488 1561.82 720.478 1559.09 695.42 1557.35C692.489 1557.16 689.509 1557.49 683.721 1557.66C688.191 1560.34 690.022 1561.96 692.147 1562.63C710.221 1568.41 728.025 1575.29 746.489 1579.4C801.149 1591.61 856.566 1591.63 912.081 1586.31C962.54 1581.46 1010.26 1566.31 1057.4 1549.03C1059.92 1548.15 1062.16 1546.6 1064.7 1545.24ZM229.518 636.104C230.299 636.558 231.056 637.012 231.838 637.466C233.938 634.145 235.794 630.657 238.139 627.527C248.201 614.099 258.411 600.791 268.522 587.387C281.515 570.185 294.777 553.197 307.306 535.684C321.716 515.543 335.149 494.733 349.608 474.639C384.143 426.639 428.52 388.698 477.782 355.822C481.446 353.385 486.111 351.76 488.553 346.671C460.662 351.187 388.807 402.388 343.673 449.313C294.582 500.371 233.181 600.839 229.518 636.104ZM1259.07 908.359C1258.11 908.454 1257.16 908.549 1256.18 908.645C1255.47 911.632 1254.62 914.594 1254.08 917.605C1245.53 967.851 1231.93 1016.78 1214.35 1064.66C1209.41 1078.07 1204.67 1091.9 1197.27 1104.01C1189.82 1116.17 1194.12 1125.11 1199.81 1135.24C1201.25 1134.43 1202.13 1134.19 1202.6 1133.64C1230.15 1100.31 1252.06 1063.92 1264.56 1022.61C1266.59 1015.87 1267.78 1008.49 1267.39 1001.51C1265.95 974.588 1263.78 947.709 1261.68 920.83C1261.36 916.625 1259.97 912.516 1259.07 908.359ZM1427.32 1341.72C1426.32 1341.03 1425.32 1340.36 1424.31 1339.66C1417.82 1345.54 1411.05 1351.13 1404.85 1357.3C1365.99 1395.96 1320.86 1425.61 1270.4 1447.78C1265.22 1450.05 1260.12 1452.48 1255.06 1454.97C1243.8 1460.44 1218.82 1482.42 1211.63 1493.08C1212.34 1493.36 1213.08 1493.94 1213.74 1493.87C1215.74 1493.63 1217.72 1493.22 1219.69 1492.74C1285.25 1477.12 1341.08 1445.05 1387.85 1397.65C1401.14 1384.18 1412.81 1369.51 1421.99 1353.04C1424 1349.41 1425.54 1345.49 1427.32 1341.72ZM548.586 446.35C549.148 447.139 549.709 447.903 550.247 448.692C560.651 447.808 567.636 439.732 576.551 435.742C585.392 431.8 593.843 427.045 602.635 423.008C611.794 418.802 621.148 414.956 630.478 411.157C639.441 407.501 648.502 404.037 657.539 400.549C666.942 396.893 676.345 393.19 685.821 389.678C695.298 386.165 704.774 382.677 714.373 379.547C723.605 376.537 732.91 373.813 742.313 371.352C752.082 368.772 761.95 366.502 771.841 364.399C781.342 362.392 790.989 361.007 800.465 358.952C809.82 356.945 819.955 358.116 828.723 352.19C812.018 348.272 795.288 345.811 778.606 343.111C757.163 339.647 737.062 343.135 717.108 351.617C659.639 376.059 607.324 409.437 553.837 440.736C551.712 441.978 550.32 444.439 548.586 446.35ZM975.85 1139.8C970.257 1134.33 965.764 1137.39 961.489 1138.85C933.329 1148.48 904.705 1151.61 875.348 1145.08C868.314 1143.53 861.768 1144.42 855.247 1147.31C845.649 1151.56 836.002 1155.74 826.208 1159.54C801.393 1169.19 775.847 1171.44 749.836 1165.39C736.842 1162.36 724.118 1158.27 711.246 1154.76C708.951 1154.14 706.508 1154.04 704.139 1153.69C742.118 1180.3 785.323 1183.17 829.529 1183.19C882.724 1183.22 929.568 1164.34 975.85 1139.8ZM237.406 1238.93C236.649 1239.34 235.892 1239.77 235.135 1240.18C235.575 1242.04 235.77 1244 236.478 1245.79C247.933 1274.56 259.241 1303.37 271.111 1331.95C273.162 1336.89 277.07 1341.43 281.1 1345.18C294.02 1357.18 306.916 1369.27 320.666 1380.31C340.986 1396.62 361.917 1412.27 382.873 1427.8C389.736 1432.89 397.502 1436.84 406.197 1438.51C376.523 1406.49 345.798 1375.77 316.514 1343.75C286.888 1311.3 261.488 1275.56 237.406 1238.93ZM1586.22 880.07C1585.51 880.213 1584.83 880.357 1584.12 880.5C1581.43 894.883 1578.35 909.195 1576.28 923.65C1575.52 928.954 1577.01 934.616 1577.67 940.088C1579.11 951.867 1581.09 963.598 1582.02 975.401C1582.85 986.057 1581.97 996.832 1582.92 1007.46C1584.85 1028.66 1582.85 1049.42 1577.69 1069.97C1570 1100.74 1562.16 1131.49 1554.42 1162.26C1554.08 1163.67 1554.05 1165.15 1553.61 1169.12C1556.96 1165.37 1558.96 1163.63 1560.33 1161.5C1570.17 1146.35 1577.43 1130.06 1582.68 1112.88C1592.27 1081.48 1594.3 1049.04 1597.04 1016.64C1600.6 974.063 1597.33 931.964 1589.15 890.129C1588.51 886.712 1587.22 883.415 1586.22 880.07ZM1393.61 654.478C1393.03 654.86 1392.44 655.218 1391.88 655.576C1394.35 660.355 1396.94 665.062 1399.23 669.936C1411.37 695.835 1424 721.544 1435.33 747.801C1442.44 764.263 1443.02 781.585 1437.19 799.003C1435.48 804.068 1435.09 809.969 1435.72 815.321C1436.79 824.329 1438.85 833.288 1441.14 842.105C1442.12 845.904 1444.78 849.272 1446.93 853.31C1453.77 846.525 1453.7 846.501 1454.82 837.876C1459.04 805.358 1454.75 773.008 1453.06 740.61C1452.57 731.1 1449.5 722.953 1443.51 715.523C1430.47 699.348 1417.74 682.933 1404.75 666.734C1401.26 662.41 1397.33 658.539 1393.61 654.478ZM605.273 1064.47C607.447 1054.34 608.399 1044.74 611.721 1035.99C614.774 1027.96 614.065 1022.09 608.912 1015.25C593.134 994.347 581.924 971.22 574.621 946.18C572.79 939.873 568.98 934.019 565.585 928.261C561.75 921.762 557.427 915.526 553.153 909.29C552.054 907.689 550.467 906.447 548.269 904.177C549.954 939.586 588.934 1048.65 605.273 1064.47ZM538.841 835.2C540.477 832.428 541.357 831.52 541.576 830.469C548 798.071 562.239 769.066 580.8 741.78C584.488 736.381 586.564 729.595 588.079 723.168C591.571 708.14 594.307 692.944 597.213 677.796C597.555 675.957 597.164 673.998 597.042 669.458C558.013 719.441 534.811 771.67 538.841 835.2ZM858.886 480.493C865.041 482.237 869.144 483.575 873.321 484.554C913.448 494.087 953.43 504.051 990.871 521.755C993.973 523.212 998.1 524.192 1001.32 523.499C1012.19 521.158 1022.89 517.956 1033.76 515.065C1017.91 498.46 899.649 474.615 858.886 480.493ZM487.991 1501.77C479.199 1493.05 469.918 1485.62 457.364 1483.66C417.334 1477.36 381.236 1462.33 349.486 1437.48C347.678 1436.07 345.236 1435.43 340.742 1433.32C378.818 1483.5 428.935 1502.09 487.991 1501.77ZM428.715 912.133C428.325 913.185 427.592 914.236 427.592 915.263C427.787 935.835 427.568 956.43 428.642 976.954C428.96 982.831 432.037 989.258 435.652 994.132C450.355 1013.84 461.052 1035.39 469.259 1058.33C473.264 1069.49 478.344 1080.31 483.253 1091.14C484.719 1094.38 487.21 1097.2 489.237 1100.24C463.153 1039.19 444.566 976.285 428.715 912.133ZM1104.17 1028.92C1118.43 1003.69 1142.61 908.621 1138.34 891.658C1127.28 937.412 1108.4 977.909 1086.15 1017.76C1092.79 1021.87 1098.14 1025.17 1104.17 1028.92ZM1276.19 310.259C1251.96 269.212 1142.49 213.901 1101.09 220.137C1130.77 232.298 1161.64 244.125 1191.8 257.552C1222.33 271.171 1249.42 290.524 1276.19 310.259ZM1151.09 704.675C1150.58 693.876 1150.28 684.94 1149.6 676.028C1149.45 674.26 1148.21 672.038 1146.77 671.011C1137.34 664.345 1127.25 658.898 1113.72 654.262C1116.92 663.509 1120.51 670.27 1121.41 677.366C1123.49 693.589 1134.87 699.443 1151.09 704.675ZM659.737 610.778C671.509 609.87 686.115 601.03 699.181 587.196C685.064 592.262 672.389 599.573 659.737 610.778ZM1140.93 1175.05C1150.21 1179.92 1153.36 1178.7 1160.71 1168.19C1150.53 1163.89 1150.28 1163.96 1140.93 1175.05ZM1141.47 852.355C1145.52 840.193 1145.2 838.784 1137.41 832.309C1138.95 839.93 1140.2 846.143 1141.47 852.355ZM1149.48 1499.27C1149.01 1498.57 1148.55 1497.86 1148.06 1497.16C1146.72 1498.07 1145.4 1498.96 1144.05 1499.86C1144.37 1500.39 1144.67 1500.89 1144.98 1501.42C1146.5 1500.68 1147.99 1499.96 1149.48 1499.27Z" fill="black"/>
<path d="M1182.76 1680.76C1165.69 1683.01 1152.16 1676.84 1145.22 1665.02C1138.33 1653.29 1139.89 1638.69 1149.27 1627.2C1156.6 1618.21 1166.37 1612.41 1177.12 1608.66C1206.13 1598.53 1235.27 1588.73 1264.5 1579.22C1289.9 1570.98 1315.99 1564.55 1340.88 1555.14C1389.33 1536.81 1429.75 1508.16 1456.91 1463.49C1467.27 1446.45 1478.97 1430.2 1490.4 1413.81C1499.97 1400.1 1512.52 1389.23 1528.03 1382.61C1562.42 1367.94 1589.97 1343.66 1619.01 1321.54C1627.56 1315.02 1634.49 1306.49 1642.16 1298.84C1644.14 1296.86 1645.78 1294.49 1647.98 1292.8C1656.38 1286.27 1666.56 1289.76 1668 1300.11C1668.69 1305.03 1667.88 1310.5 1666.34 1315.3C1651.57 1361.25 1627.7 1401.2 1583.96 1426.24C1562.98 1438.25 1546.3 1453.26 1535.7 1474.81C1531.67 1483.01 1525.88 1490.34 1521.54 1498.39C1497.45 1542.88 1460.97 1575.35 1418.1 1601.82C1391.07 1618.52 1361.59 1629.37 1330.94 1637.64C1294.98 1647.34 1259.06 1657.18 1223.2 1667.26C1213.87 1669.89 1204.89 1673.67 1195.7 1676.77C1190.74 1678.42 1185.69 1679.85 1182.76 1680.76Z" fill="black"/>
<path d="M4.43423 1036.23C-4.30938 969.956 -0.499344 904.73 19.2348 840.698C26.4642 817.212 34.7926 794.036 42.5837 770.717C43.463 768.089 45.0505 765.222 44.6109 762.761C43.6583 757.289 47.0288 754.924 50.5458 752.105C62.4888 742.476 73.2596 745.582 76.2148 760.467C80.782 783.404 85.227 806.412 88.0113 829.588C89.4523 841.582 88.8661 854.34 86.2773 866.143C70.3531 938.513 76.9475 1009.62 96.755 1080.22C99.2217 1089.01 101.689 1097.83 103.3 1106.79C105.67 1120 102.641 1132.07 92.774 1141.91C75.8241 1158.85 47.9568 1156.2 33.5225 1136.25C25.1697 1124.71 20.8224 1111.42 17.6473 1097.9C12.8359 1077.45 8.80603 1056.8 4.43423 1036.23Z" fill="black"/>
<path d="M499.062 1629.86C464.137 1633.83 430.334 1631.08 396.801 1620.59C352.179 1606.62 311.441 1586.28 276.222 1555.82C251.017 1534.03 225.495 1512.6 200.509 1490.57C195.234 1485.91 190.838 1479.84 187.541 1473.66C182.583 1464.36 184.195 1454.97 191.4 1447.16C198.311 1439.68 207.568 1437.39 216.971 1440.76C224.005 1443.29 230.721 1447.49 236.583 1452.18C259.541 1470.43 282.182 1489.07 304.798 1507.75C342.459 1538.86 385.005 1561.22 431.775 1576.2C442.937 1579.76 453.83 1584.16 464.723 1588.43C488.267 1597.7 512.3 1604.16 538.018 1602.53C539.63 1602.44 541.29 1602.36 542.854 1602.67C549.57 1603.94 551.524 1608.96 546.639 1613.83C543.635 1616.82 539.532 1619.37 535.453 1620.57C523.437 1624.06 511.201 1626.81 499.062 1629.86Z" fill="black"/>
<path d="M1590.55 619.84C1585.96 612.314 1584.39 603.952 1586.62 595.422C1588.62 587.824 1594.55 582.735 1602.66 583.309C1610.14 583.834 1618.1 585.387 1624.69 588.708C1645.6 599.245 1662.4 614.679 1675.32 633.937C1695.1 663.468 1707.59 696.081 1716.77 729.984C1731.35 783.862 1738.87 838.91 1743.59 894.316C1744.59 906.072 1743.59 918.09 1742.56 929.892C1741.83 938.326 1738.07 945.948 1731.3 951.706C1718.94 962.219 1704.12 957.512 1700.99 941.886C1700.16 937.681 1700.7 933.237 1700.6 928.889C1700.26 913.072 1701.48 897.04 1699.31 881.486C1692.49 833.176 1685.19 784.865 1676.52 736.841C1669.63 698.685 1655.81 662.608 1634.17 629.875C1628.28 620.987 1620.56 613.222 1613.38 605.194C1611.31 602.877 1608.35 601.156 1605.5 599.723C1597.39 595.613 1592.99 598.313 1593.31 607.106C1593.45 611.215 1593.87 615.325 1594.16 619.434C1592.94 619.577 1591.74 619.721 1590.55 619.84Z" fill="black"/>
<path d="M660.18 138.671C674.346 137.906 688.511 136.664 702.677 136.52C710.688 136.449 718.821 137.715 726.734 139.268C730.495 140.009 734.232 142.302 737.334 144.692C741.095 147.606 742.707 152.146 740.24 156.423C737.847 160.556 734.574 162.635 728.419 162.014C721.556 161.345 713.887 162.969 707.415 165.621C693.982 171.093 681.062 177.83 667.996 184.186C660.375 187.889 653.146 192.524 645.282 195.583C626.769 202.726 611.651 214.529 597.143 227.336C590.207 233.452 583.319 239.616 575.992 245.231C569.129 250.463 561.314 253.546 552.228 252.399C537.989 250.607 528.44 239.353 531.248 225.687C532.543 219.403 535.645 212.498 540.114 207.983C553.621 194.316 567.566 180.913 582.538 168.799C608.647 147.654 624.839 142.063 660.18 138.671Z" fill="black"/>
<path d="M1445.92 209.92C1443.62 193.984 1455.66 184.236 1468.66 189.492C1473.32 191.38 1477.74 194.868 1481.09 198.643C1518.9 241.148 1556.53 283.772 1594.02 326.539C1599.74 333.062 1606.02 339.656 1603.06 349.882C1602.47 351.913 1604.89 354.876 1606.11 357.336C1608.97 363.023 1612.59 368.447 1614.64 374.396C1616.42 379.509 1617.37 385.243 1617.15 390.643C1616.81 398.981 1611.17 402.756 1602.91 400.271C1598.03 398.79 1593.32 395.994 1589.31 392.817C1585.62 389.878 1582.54 385.936 1579.98 381.946C1545.91 329.048 1504.34 281.812 1463.58 233.98C1459.43 229.106 1454.93 224.471 1451.12 219.358C1448.56 215.869 1446.92 211.784 1445.92 209.92Z" fill="black"/>
<path d="M672.201 1797.42C641.11 1802.98 597.88 1774.6 615.953 1729.44C621.155 1716.45 630.51 1707.75 643.943 1703.33C665.948 1696.09 697.113 1702.64 707.37 1726.53C709.202 1730.76 714.502 1733.67 718.459 1736.9C725.664 1742.78 725.59 1745.05 718.312 1751.28C716.456 1752.88 714.99 1755.51 714.429 1757.92C709.08 1781.48 695.818 1794 672.201 1797.42Z" fill="black"/>
<path d="M1496.55 1678.54C1486.41 1678.33 1477.94 1676.51 1471.05 1669.87C1460.96 1660.15 1462.55 1645.84 1474.54 1638.4C1476.91 1636.95 1479.57 1635.51 1482.28 1635.11C1506.63 1631.45 1525.2 1617.19 1544.03 1603.38C1547.27 1601.01 1550.21 1598.1 1553.7 1596.23C1561.12 1592.24 1567.91 1596.54 1567.35 1604.76C1567.18 1607.44 1566.23 1610.26 1564.93 1612.65C1554.09 1632.86 1540.88 1651.4 1521.78 1664.97C1514.11 1670.44 1505.02 1674.08 1496.55 1678.54Z" fill="black"/>
<path d="M1033.47 27.5778C1018.2 26.2398 1006.72 16.8979 992.483 20.0995C991.897 23.2294 991.433 26.6698 990.578 29.9909C988.599 37.732 984.081 43.5141 976.412 46.5962C961.416 52.641 938.531 41.4832 934.306 26.1203C930.716 13.0512 938.8 2.01291 953.576 0.507685C971.576 -1.30814 989.112 1.8695 1005.82 8.08153C1013.98 11.092 1021.25 16.42 1028.75 20.9357C1030.19 21.7719 1030.88 23.8028 1033.47 27.5778Z" fill="black"/>
<path d="M103.376 1324.95C100.934 1324.12 96.4886 1323.26 92.8007 1321.13C87.2565 1317.95 85.2293 1311.38 87.6717 1306.77C90.4315 1301.61 95.1209 1301.3 100.25 1302.4C103.01 1302.99 105.916 1303.23 108.554 1304.19C114.025 1306.15 117.078 1311.36 115.954 1316.37C114.708 1321.85 110.605 1323.97 103.376 1324.95Z" fill="black"/>
<rect x="470" y="558" width="809" height="645" fill="white"/>
<path d="M1106.11 1368.9C1103.38 1373.88 1099.52 1375.34 1095.9 1379.08C1095.53 1379.45 1093.23 1380.24 1093.03 1380.78C1091.99 1381.37 1090.96 1381.97 1089.9 1382.48C1083.04 1385.93 1075.8 1388.52 1068.5 1390.78C1053.87 1395.12 1039 1398.14 1024.19 1400.68C994.512 1405.34 965.065 1407.72 936.542 1408.48C908.053 1409.44 880.452 1408.85 854.368 1408.48C828.261 1407.74 803.579 1406.92 780.823 1405.48C758.09 1404 737.214 1402.46 718.813 1399.91C700.424 1397.39 684.416 1394.56 671.538 1390.6C662.326 1387.86 654.69 1384.84 648.911 1381.61C649.074 1381.23 649.121 1380.85 648.911 1380.48C645.256 1374.71 642.407 1367.89 641.088 1360.74C642.115 1361.79 643.143 1362.74 644.159 1363.54C647.58 1366.11 651.152 1368.07 654.783 1369.68C662.034 1372.97 669.46 1375.29 676.897 1377.34C691.737 1381.5 706.729 1384.35 721.615 1386.67C751.377 1391.57 851.986 1396 878.257 1395.61C904.504 1395.67 1009.47 1390.66 1027.85 1387.13C1046.25 1383.68 1062.08 1379.32 1075.02 1375.36C1087.88 1371.17 1097.84 1366.68 1103.76 1361.64C1105.93 1359.83 1107.33 1358.02 1108.33 1356.27C1108.03 1360.64 1108.07 1365.31 1106.11 1368.9Z" fill="white"/>
<path d="M965.336 1313.81C988.092 1315.19 1008.95 1316.72 1027.36 1319.23C1045.75 1321.72 1061.75 1324.57 1074.63 1328.48C1087.48 1332.33 1097.39 1336.62 1103.19 1341.37C1105.5 1343.04 1106.92 1344.84 1107.8 1346.4C1107.82 1346.49 1107.76 1346.54 1107.79 1346.57C1107.85 1346.65 1107.91 1346.71 1107.97 1346.79C1108.01 1346.87 1108.06 1346.98 1108.1 1347.07C1108.05 1347.26 1108 1347.44 1108.04 1347.63C1108.39 1349.73 1108.5 1351.96 1108.47 1354.21C1107.84 1356.05 1105.99 1358.42 1103.21 1360.63C1097.42 1365.38 1087.48 1369.66 1074.64 1373.55C1061.78 1377.51 1045.77 1380.34 1027.38 1382.85C1008.99 1385.42 988.127 1386.95 965.36 1388.42C942.615 1389.86 917.933 1390.66 891.838 1391.42C865.743 1391.79 836.577 1389.94 808.076 1388.96C779.564 1388.2 751.683 1388.29 722.015 1383.59C707.187 1381.08 692.323 1378.07 677.694 1373.73C670.396 1371.44 663.157 1368.84 656.292 1365.42C652.848 1363.75 649.544 1361.72 646.601 1359.36C643.682 1357.07 641.219 1353.84 641.219 1351.01C641.347 1350.82 641.464 1348.69 641.826 1348.64C642.001 1348.18 642.421 1347.48 642.97 1346.75C643.986 1345.37 645.352 1344.14 646.835 1343.02C649.8 1340.81 653.128 1338.95 656.596 1337.45C663.508 1334.31 670.77 1332.05 678.079 1330.09C692.697 1326.13 707.56 1323.41 722.353 1321.22C747.328 1317.48 772.08 1315.28 796.296 1313.86V1354.32C796.506 1354.01 796.704 1353.62 796.914 1353.3C796.961 1353.14 796.938 1353.03 796.996 1352.9C798.934 1348.16 800.394 1343.2 801.795 1338.22V1334.01C801.456 1333.31 801.199 1332.52 801.199 1331.53V1326.52C801.199 1326.3 801.281 1326.17 801.293 1325.95C801.503 1315.26 801.97 1304.55 801.199 1293.88C801.118 1292.69 801.386 1291.84 801.795 1291.11V1269.57C828.229 1269.48 854.674 1269.37 881.108 1269.33C902.066 1269.28 923.549 1269.39 945.266 1269.52V1293.95C945.78 1294.71 946.13 1295.73 946.188 1297.03C946.293 1299.26 946.305 1301.5 946.375 1303.73C946.363 1303.71 946.352 1303.71 946.352 1303.71C946.445 1306.78 946.48 1309.82 946.539 1312.9H946.644C946.854 1321.89 946.97 1330.91 947.041 1339.9C948.255 1343.52 949.481 1347.09 950.753 1350.65V1313.08C955.657 1313.28 960.573 1313.53 965.336 1313.81Z" fill="white"/>
<path d="M1316.37 536.762C1316.14 535.271 1315.91 533.767 1315.68 532.249C1315.61 526.205 1314.51 520.34 1311.66 514.93C1310.87 513.44 1309.98 512.308 1309.08 511.19C1305.92 508.113 1301.9 506.195 1296.88 506.015C1288.97 505.726 1008.54 509.603 881.072 509.893C776.399 510.128 476.8 508.334 456.391 507.354C456.368 507.313 456.345 507.257 456.321 507.216C446.981 508.748 438.527 512.46 433.542 521.099C432.9 523.293 432.444 525.584 432.269 527.971C432.059 528.675 431.814 529.227 431.65 530.014C431.23 532.235 430.962 534.512 430.623 536.762C429 661.168 432.421 1092.06 429 1196.98C429.864 1209.33 429.502 1222.85 431.942 1234.44C431.966 1234.64 432.047 1234.76 432.059 1234.96C432.082 1235.2 432.141 1235.36 432.152 1235.6C433.425 1241.12 435.48 1246.09 438.609 1250.26C444.015 1255.21 452.13 1256.81 460.583 1257.1C462.287 1256.17 1219.95 1255.43 1279.77 1258.91C1292.92 1257.84 1306.83 1252.01 1312.64 1238.7C1316.77 1225.78 1316.98 1211.52 1318 1196.98C1318.01 1077.8 1312.97 651.494 1316.37 536.762ZM1278.48 1239.41C1278.42 1239.55 1278.17 1239.52 1278.23 1239.36C1281.77 1227.48 1266.88 1218.44 1260.64 1228.72C1258.06 1232.98 1257.8 1240.39 1261.78 1243.76C1266.04 1247.38 1272.76 1247.91 1276.5 1243.08C1276.61 1242.95 1276.78 1243.08 1276.68 1243.25C1274.88 1245.88 1272.44 1247.78 1269.41 1248C1266.46 1248.22 1263.37 1247.15 1261.01 1244.85C1256.92 1240.92 1256.11 1233.45 1259.21 1228.36C1262.38 1223.21 1268.04 1220.98 1273 1223.78C1277.87 1226.5 1280.71 1233.45 1278.48 1239.41ZM1281.31 1214.32L1077.71 1214.08L874.113 1212.83L670.512 1211.38C602.641 1211.1 534.782 1209.8 466.934 1209.01H466.409L464.354 1044.46L463.081 880.504L462.486 716.533C462.381 661.872 461.984 607.21 462.264 552.549L462.311 547.65H466.934C534.794 547.719 602.653 548.064 670.512 548.809L874.113 550.437L975.913 550.81L1077.71 550.479L1281.31 549.485L1284.21 549.471L1284.23 552.563L1286.17 880.518L1286.92 1208.46V1214.34L1281.31 1214.32Z" fill="white"/>
<path d="M814.427 584.012C827.48 596.777 846.138 615.034 868.52 636.935C890.751 659.042 916.706 684.834 944.494 712.462C972.142 740.283 1001.64 769.98 1031.14 799.664C1060.42 829.609 1089.74 859.555 1117.2 887.638C1144.53 915.914 1170.03 942.3 1191.9 964.918C1213.6 987.743 1231.69 1006.75 1244.35 1020.09C1257.01 1033.43 1264.23 1041.07 1264.23 1041.07C1264.23 1041.07 1256.74 1033.79 1243.65 1021.04C1230.6 1008.26 1211.94 990.02 1189.54 968.133C1167.34 946.026 1141.38 920.234 1113.58 892.578C1085.95 864.758 1056.45 835.088 1026.96 805.391C997.642 775.431 968.359 745.485 940.886 717.402C913.554 689.154 888.054 662.741 866.209 640.123C844.492 617.311 826.394 598.281 813.726 584.95C801.093 571.606 793.878 563.975 793.878 563.975C793.878 563.975 801.338 571.261 814.427 584.012ZM803.288 1079.53C785.716 1061.77 765.214 1041.07 743.228 1018.9C721.43 996.506 698.148 972.618 674.879 948.772C651.773 924.65 628.701 900.527 607.055 877.909C585.548 855.084 565.489 833.791 548.291 815.533C514.023 778.867 491.523 753.958 491.523 753.958C491.523 753.958 515.377 777.059 550.649 812.36C568.209 830.12 588.724 850.82 610.697 872.983C632.508 895.38 655.777 919.24 679.059 943.114C702.153 967.236 725.248 991.358 746.895 1013.98C768.389 1036.77 788.46 1058.07 805.647 1076.32C839.927 1113 862.426 1137.94 862.426 1137.94C862.426 1137.94 838.549 1114.84 803.288 1079.53ZM924.774 1124.91C913.052 1113.46 896.11 1097.37 876.133 1077.53C856.191 1057.74 832.886 1034.62 807.923 1009.85C783.089 984.886 756.609 958.266 730.152 931.632C703.87 904.736 677.576 877.868 652.928 852.655C628.433 827.236 605.583 803.514 586.003 783.228C566.552 762.68 550.334 745.582 538.997 733.59C527.671 721.597 521.203 714.725 521.203 714.725C521.203 714.725 527.928 721.225 539.697 732.624C551.432 744.077 568.198 760.417 588.315 780.013C608.292 799.829 631.585 822.958 656.56 847.701C681.359 872.665 707.839 899.285 734.32 925.919C760.602 952.788 786.895 979.697 811.543 1004.9C836.039 1030.29 858.9 1054 878.491 1074.32C898.107 1094.62 914.114 1112.01 925.474 1123.95C936.8 1135.97 943.268 1142.81 943.268 1142.81C943.268 1142.81 936.555 1136.31 924.774 1124.91ZM1247.72 1063.92C1234.68 1051.14 1216 1032.9 1193.63 1011.01C1171.39 988.874 1145.44 963.082 1117.67 935.455C1090.02 907.607 1060.53 877.937 1031.02 848.239C1001.73 818.294 972.411 788.348 944.961 760.279C917.617 732.003 892.117 705.617 870.248 682.999C848.555 660.174 830.458 641.144 817.801 627.827C805.156 614.469 797.917 606.851 797.917 606.851C797.917 606.851 805.413 614.124 818.49 626.861C831.555 639.626 850.213 657.897 872.595 679.784C894.814 701.891 920.769 727.683 948.569 755.338C976.205 783.173 1005.7 812.843 1035.19 842.54C1064.51 872.486 1093.8 902.432 1121.28 930.487C1148.61 958.763 1174.11 985.148 1195.97 1007.77C1217.67 1030.59 1235.76 1049.62 1248.44 1062.94C1261.07 1076.31 1268.28 1083.93 1268.28 1083.93C1268.28 1083.93 1260.81 1076.67 1247.72 1063.92Z" fill="black"/>
</svg>
