<svg width="1347" height="1309" viewBox="0 0 1347 1309" fill="none" xmlns="http://www.w3.org/2000/svg">
<path d="M644.7 1195.7C636.261 1193.54 623.858 1190.64 611.638 1187.11C605.354 1185.3 599.253 1184.72 592.805 1185.54C581.388 1187.02 569.917 1188.22 558.482 1189.5C536.161 1192.01 514.332 1188.94 492.668 1183.77C463.368 1176.77 435.201 1166.48 407.527 1154.77C364.656 1136.62 331.94 1107.01 308.851 1066.72C295.827 1044.02 284.539 1020.51 278.712 994.78C277.634 990.029 274.601 987.654 271.039 985.26C250.471 971.465 231.858 955.495 217.847 934.867C192.146 897.044 176.62 855.348 171.322 809.869C167.56 777.601 169.13 745.625 177.149 714.106C179.305 705.628 179.305 697.644 177.058 689.111C167.085 651.251 164.655 612.497 165.422 573.578C166.792 504.931 184.31 440.541 218.633 380.975C237.119 348.889 262.838 323.364 292.832 301.967C302.221 295.28 311.537 288.464 321.09 282.033C327.063 278.013 330.059 272.97 330.753 265.625C333.42 237.23 343.942 211.577 359.121 187.677C372.109 167.231 389.444 151.499 410.943 140.408C449.011 120.784 488.978 107.153 531.667 101.927C539.174 101.014 546.719 99.7897 553.989 97.7981C593.371 87.0542 633.028 85.9031 672.886 94.2351C687.097 97.2134 700.98 101.745 715.154 105.015C720.653 106.294 726.498 106.623 732.161 106.441C748.509 105.911 764.839 104.376 781.206 104.193C806.14 103.901 829.996 109.583 852.647 119.943C882.166 133.446 911.483 147.351 938.335 165.915C943.742 169.661 950.062 172.256 956.255 174.631C984.604 185.503 1012.57 197.179 1038.78 212.673C1071.55 232.023 1098.73 257.475 1123.39 286.4C1170.41 341.544 1199.4 405.039 1214.73 475.312C1219.18 495.776 1218.12 515.748 1208.37 534.695C1206.25 538.825 1206.69 542.826 1207.62 547.047C1211.6 565.118 1215.37 583.244 1219.42 601.296C1234.42 667.934 1233.49 735.083 1224.86 802.25C1222.36 821.691 1216.11 840.639 1211.75 859.843C1209.74 868.686 1206.84 877.584 1206.6 886.501C1205.52 926.48 1191.77 962.183 1172.55 996.607C1143.51 1048.66 1100.1 1083.76 1046.11 1106.99C1025.16 1116 1003.73 1123.54 981.463 1128.55C972.202 1130.63 963.671 1134.25 955.14 1138.31C939.267 1145.85 923.375 1153.65 906.807 1159.39C877.033 1169.73 847.149 1180.26 816.589 1187.8C761.387 1201.42 705.309 1205.87 644.7 1195.7ZM461.56 464.111C460.336 464.915 458.674 465.445 457.943 466.56C444.627 487.189 431.31 507.818 418.25 528.611C412.989 536.998 410.779 546.408 410.486 556.329C408.477 623.734 414.249 690.243 433.502 755.182C434.142 757.356 435.238 759.384 436.224 761.705C442.49 758.909 440.535 754.579 439.585 750.614C431.164 715.477 425.136 679.956 421.319 643.997C414.469 579.388 431.621 520.279 461.414 463.856C476.082 440.577 494.33 420.551 515.866 403.449C534.626 388.557 553.842 374.379 574.904 362.831C577.023 361.661 578.94 360.108 580.95 358.738C563.231 361.46 547.887 369.281 532.288 376.644C516.524 384.099 503.884 394.313 494.787 409.552C485.653 424.864 474.858 439.17 465.085 454.099C463.24 456.985 462.711 460.749 461.56 464.111ZM1118.44 866.932C1117.73 866.183 1117.02 865.452 1116.32 864.721C1115.25 866.183 1114.39 867.9 1113.05 869.052C1090.53 888.438 1067.92 907.696 1045.45 927.138C1042.51 929.677 1039.88 932.765 1037.78 936.018C1007.73 982.483 968.292 1019.01 920.945 1047.35C893.819 1063.57 865.89 1078.06 836.608 1089.98C832.992 1091.46 828.937 1092.44 826.416 1096.12C830.763 1095.88 834.855 1095.11 838.856 1093.96C871.589 1084.49 903.464 1072.75 932.654 1054.95C955.688 1040.9 978.193 1026.01 1000.7 1011.1C1052.5 976.782 1088.21 928.855 1115.79 874.131C1116.89 871.829 1117.55 869.326 1118.44 866.932ZM196.658 641.074C197.663 640.562 198.503 640.416 198.649 640.014C204.038 624.958 210.998 610.432 212.13 594.042C214.212 563.748 217.811 533.599 226.56 504.437C234.305 478.638 242.909 453.057 251.987 427.677C258.308 410.009 266.053 392.833 273.104 375.42C273.926 373.374 274.364 371.181 275.57 367.015C272.592 369.573 271.003 370.487 270.016 371.839C261.65 383.332 252.536 394.386 245.266 406.555C223.766 442.569 210.942 481.981 202.01 522.764C193.9 559.819 193.882 597.35 195.562 634.971C195.653 636.981 196.256 638.955 196.658 641.074ZM1050.62 261.404C1050.11 261.842 1049.6 262.299 1049.09 262.738C1051.02 265.003 1053.12 267.16 1054.86 269.571C1062.31 279.895 1069.64 290.31 1077.03 300.67C1086.53 313.972 1095.83 327.42 1105.68 340.484C1116.98 355.504 1129.02 369.957 1140.31 384.995C1167.23 420.899 1184.59 461.444 1197.12 504.255C1198.05 507.434 1198.16 511.143 1201.28 514.067C1204.44 493.164 1183.78 429.925 1160.09 386.73C1134.3 339.753 1075.43 272.349 1050.62 261.404ZM614.907 929.75C615.054 929.056 615.218 928.344 615.364 927.649C613.355 926.443 611.4 925.128 609.318 924.05C574.758 906.107 542.316 884.857 511.555 861.048C502.934 854.379 493.983 847.747 486.895 839.597C479.772 831.43 472.282 832.38 463.606 834.024C463.861 835.23 463.825 835.925 464.135 836.381C482 863.844 503.408 888.036 530.571 906.673C534.991 909.706 540.088 912.283 545.257 913.671C565.168 918.988 585.224 923.794 605.245 928.654C608.368 929.422 611.674 929.403 614.907 929.75ZM260.938 947.145C261.669 946.597 262.399 946.031 263.112 945.483C260.354 939.471 257.833 933.332 254.782 927.466C235.639 890.685 224.496 851.565 220.021 810.436C219.564 806.215 218.962 802.012 218.341 797.81C216.952 788.509 206.741 765.542 200.658 757.904C200.293 758.343 199.709 758.726 199.618 759.201C199.325 760.681 199.179 762.198 199.051 763.696C195.288 814.035 205.7 861.323 229.374 905.796C236.096 918.44 244.078 930.207 253.924 940.64C256.116 942.979 258.6 944.989 260.938 947.145ZM1114.94 533.252C1114.24 533.471 1113.55 533.672 1112.85 533.891C1111.1 541.511 1115.36 548.381 1116.2 555.672C1117.04 562.889 1118.53 570.033 1119.43 577.251C1120.36 584.76 1121 592.325 1121.62 599.871C1122.21 607.125 1122.63 614.379 1123.1 621.633C1123.58 629.197 1124.11 636.762 1124.47 644.326C1124.84 651.891 1125.18 659.474 1125.24 667.038C1125.29 674.31 1125.13 681.583 1124.76 688.855C1124.38 696.419 1123.76 703.984 1122.99 711.512C1122.26 718.748 1121.06 725.928 1120.34 733.164C1119.65 740.29 1116.45 747.215 1118.74 754.871C1125.44 743.908 1131.1 732.598 1136.91 721.342C1144.38 706.907 1146.48 691.778 1144.93 675.571C1140.44 628.905 1128.23 583.81 1117.82 538.35C1117.38 536.504 1115.9 534.951 1114.94 533.252ZM512.012 673.561C517.273 670.875 516.104 666.947 516.031 663.567C515.537 641.257 519.867 620.153 531.393 600.803C534.151 596.162 535.01 591.302 534.407 585.966C533.53 578.128 532.726 570.289 532.215 562.432C530.936 542.498 535.192 523.787 545.604 506.703C550.81 498.17 556.71 490.076 562.245 481.744C563.231 480.264 563.871 478.546 564.674 476.938C536.544 497.677 524.488 527.752 514.259 559.198C501.929 597.057 504.833 634.843 512.012 673.561ZM610.432 124.712C610.304 124.073 610.177 123.433 610.049 122.812C608.587 122.684 607.107 122.374 605.664 122.447C582.1 123.799 558.537 125.06 535.01 126.759C530.936 127.051 526.735 128.769 523.081 130.742C511.372 137.101 499.609 143.423 488.412 150.604C471.844 161.22 455.641 172.402 439.494 183.657C434.215 187.33 429.557 191.935 426.342 197.727C456.482 184.169 485.909 169.551 515.939 156.286C546.371 142.82 578.228 133.191 610.432 124.712ZM559.962 1169.22C560.017 1168.69 560.071 1168.16 560.126 1167.63C550.299 1162.33 540.599 1156.76 530.571 1151.86C526.881 1150.07 522.424 1149.8 518.296 1148.98C509.4 1147.2 500.413 1145.87 491.608 1143.73C483.681 1141.81 476.045 1138.63 468.081 1136.81C452.226 1133.19 437.594 1126.85 423.839 1118.33C403.235 1105.58 382.685 1092.75 362.098 1079.98C361.167 1079.4 360.071 1079.05 357.313 1077.79C359.267 1081.06 360.071 1082.89 361.295 1084.37C370.044 1094.95 380.201 1103.95 391.489 1111.76C412.094 1126.01 435.238 1135.11 458.162 1144.68C488.284 1157.27 519.665 1164.89 551.979 1168.93C554.591 1169.28 557.277 1169.15 559.962 1169.22ZM768.475 1085.43C768.347 1084.91 768.201 1084.42 768.073 1083.93C764.036 1084.55 759.999 1085.3 755.944 1085.77C734.298 1088.3 712.688 1091.22 690.988 1093.06C677.379 1094.23 664.647 1090.56 653.34 1082.28C650.034 1079.87 645.851 1078.21 641.814 1077.39C635.019 1076.02 628.023 1075.36 621.082 1074.92C618.104 1074.74 615.035 1075.82 611.601 1076.4C614.962 1082.87 614.981 1082.81 621.009 1085.66C643.678 1096.35 668.191 1100.92 692.157 1107.37C699.189 1109.27 705.802 1109 712.597 1106.49C727.374 1101.03 742.244 1095.86 757.021 1090.43C760.93 1088.99 764.657 1087.11 768.475 1085.43ZM652.354 427.659C659.204 431.588 665.981 434.529 671.57 438.969C676.703 443.044 681.142 443.921 687.298 441.875C706.131 435.589 725.548 433.049 745.459 433.78C750.464 433.963 755.597 432.647 760.583 431.588C766.191 430.4 771.726 428.774 777.261 427.221C778.667 426.819 779.964 425.978 782.101 424.955C755.944 417.792 667.624 419.748 652.354 427.659ZM834.398 434.511C836.042 436.32 836.499 437.179 837.212 437.563C859.296 449.786 877.088 466.761 892.651 486.421C895.738 490.313 900.176 493.401 904.505 495.996C914.625 502.025 925.056 507.562 935.394 513.208C936.655 513.884 938.171 514.067 941.495 515.053C914.15 475.495 881.544 446.644 834.398 434.511ZM1018.45 746.009C1015.77 749.974 1013.85 752.587 1012.17 755.309C995.966 781.603 979.49 807.713 957.972 830.169C956.2 832.033 954.538 834.737 954.3 837.185C953.497 845.481 953.35 853.831 952.949 862.254C968.676 854.909 1013.32 776.395 1018.45 746.009ZM361.441 240.958C369.825 236.774 377.351 231.895 381.698 223.435C395.508 196.448 414.797 174.302 440.188 157.583C441.631 156.633 442.672 155.044 445.229 152.339C399.928 167.578 374.848 198.859 361.441 240.958ZM803.893 337.981C803.217 337.451 802.633 336.684 801.866 336.446C786.869 331.732 771.945 326.707 756.765 322.633C752.418 321.463 747.03 322.14 742.646 323.565C724.909 329.375 706.788 331.897 688.193 332.317C679.151 332.518 670.109 333.596 661.103 334.528C658.4 334.802 655.77 335.916 653.103 336.647C703.537 332.481 753.587 334.126 803.893 337.981ZM563.012 791.049C578.064 807.165 641.613 846.796 654.93 847.765C624.205 829.091 599.107 806.105 575.269 780.853C570.776 784.617 567.122 787.651 563.012 791.049ZM1045.89 1083.12C1081.34 1075.6 1146.83 1010.73 1151.85 979.815C1136.16 998.05 1120.42 1017.24 1103.7 1035.53C1086.77 1054.04 1066.42 1068.74 1045.89 1083.12ZM787.965 900.991C795.947 903.165 802.505 905.083 809.136 906.691C810.451 907.002 812.351 906.655 813.429 905.851C820.443 900.717 826.745 894.833 833.248 886.3C825.795 886.391 820.041 887.36 814.671 886.337C802.395 883.98 795.509 890.685 787.965 900.991ZM969.699 573.523C967.635 582.129 970.703 594.59 977.736 607.162C977.316 595.924 974.923 585.18 969.699 573.523ZM448.262 782.699C442.581 788.162 442.745 790.684 448.682 798.394C454.162 792.182 454.162 791.981 448.262 782.699ZM682.804 859.276C690.714 865.032 691.81 865.141 698.313 861.122C692.413 860.409 687.609 859.842 682.804 859.276ZM210.522 712.261C211.143 712.097 211.764 711.932 212.385 711.768C212.038 710.598 211.692 709.447 211.345 708.278C210.888 708.387 210.45 708.479 210.011 708.57C210.176 709.794 210.358 711.019 210.522 712.261Z" fill="black"/>
<path d="M70.853 693.085C73.1729 680.422 80.7533 672.237 90.9826 670.099C101.102 667.961 111.35 672.529 117.561 681.902C122.42 689.229 124.356 697.561 124.611 706.094C125.287 729.135 125.689 752.176 125.836 775.235C125.963 795.242 124.611 815.323 125.707 835.276C127.863 874.085 139.353 909.606 165.565 939.498C175.557 950.882 184.69 963.051 193.952 975.055C201.715 985.105 206.72 996.616 207.962 1009.21C210.684 1037.14 221.99 1062.47 231.361 1088.36C234.119 1095.98 238.741 1102.94 242.522 1110.19C243.509 1112.08 244.842 1113.79 245.573 1115.77C248.386 1123.28 243.49 1129.71 235.636 1128.28C231.909 1127.61 228.11 1125.74 224.986 1123.51C194.992 1102.14 171.447 1075.75 163.336 1038.7C159.446 1020.92 152.395 1005.51 139.152 992.889C134.129 988.083 130.11 982.236 125.269 977.23C98.4904 949.603 83.2927 915.964 73.9402 879.22C68.0401 856.033 66.9623 832.499 68.0217 808.745C69.2639 780.862 70.3965 752.98 71.3464 725.079C71.6021 717.825 70.9261 710.534 70.78 703.262C70.7069 699.297 70.8348 695.369 70.853 693.085Z" fill="black"/>
<path d="M811.609 6.77208C861.824 16.2003 908.367 34.3078 950.398 63.4696C965.815 74.1586 980.739 85.5602 995.9 96.5964C997.599 97.8388 999.335 99.6477 1001.23 99.9218C1005.42 100.525 1006.37 103.503 1007.61 106.646C1011.85 117.408 1007.1 124.351 995.608 122.944C977.89 120.77 960.116 118.523 942.617 115.014C933.575 113.205 924.423 109.77 916.441 105.148C867.486 76.7349 814.257 64.6389 758.344 62.0626C751.384 61.7337 744.388 61.4232 737.502 60.4365C727.345 58.993 719.272 53.9866 714.395 44.6679C705.992 28.607 714.358 9.4033 732.186 3.84867C742.507 0.632826 753.174 0.66935 763.732 1.60121C779.716 3.02641 795.644 5.01799 811.609 6.77208Z" fill="black"/>
<path d="M265.744 218.598C270.913 192.817 280.722 169.411 296.103 148.014C316.561 119.565 340.746 95.3731 371.05 77.5033C392.714 64.713 414.196 51.612 435.988 39.041C440.591 36.3916 446.035 34.6924 451.295 33.7971C459.205 32.4632 465.671 35.8252 469.672 42.805C473.508 49.4742 473.033 56.6186 468.43 62.5021C464.977 66.9056 460.355 70.6878 455.606 73.7575C437.029 85.7804 418.251 97.4927 399.455 109.168C368.128 128.628 342.043 153.624 320.361 183.37C315.191 190.46 309.492 197.184 303.848 203.908C291.682 218.47 281.416 234.056 276.667 252.73C276.375 253.899 276.028 255.105 275.444 256.147C272.978 260.623 268.867 260.824 266.456 256.202C264.977 253.351 264.081 249.843 264.136 246.645C264.319 237.29 265.159 227.953 265.744 218.598Z" fill="black"/>
<path d="M748.162 1233.72C754.701 1232.24 761.15 1233.08 766.83 1236.7C771.89 1239.91 774.228 1245.34 771.927 1250.97C769.808 1256.16 766.848 1261.48 762.921 1265.37C750.427 1277.76 735.339 1286.09 718.333 1290.71C692.285 1297.82 665.688 1299.01 638.909 1297.53C596.367 1295.19 554.61 1287.53 513.218 1277.81C504.431 1275.75 495.937 1272.2 487.571 1268.67C481.598 1266.15 476.922 1261.69 474.31 1255.52C469.524 1244.24 476.374 1234.8 488.448 1236.28C491.699 1236.68 494.823 1238.12 497.983 1239.07C509.564 1242.56 520.926 1247.22 532.762 1249.34C569.478 1255.9 606.267 1262.11 643.202 1267.29C672.557 1271.4 701.966 1270.06 730.772 1262.39C738.59 1260.31 746.025 1256.63 753.514 1253.42C755.67 1252.49 757.606 1250.79 759.323 1249.11C764.182 1244.3 763.232 1240.54 756.784 1238.69C753.751 1237.81 750.683 1237.14 747.614 1236.39C747.815 1235.49 747.998 1234.6 748.162 1233.72Z" fill="black"/>
<path d="M1312.89 685.319C1310.19 695.588 1307.81 705.948 1304.63 716.071C1302.84 721.79 1300.03 727.272 1297.09 732.534C1295.68 735.037 1293.16 737.157 1290.7 738.783C1287.7 740.774 1284.05 740.847 1281.49 738.07C1279.02 735.402 1278.29 732.57 1280.14 728.331C1282.2 723.617 1282.79 717.752 1282.37 712.526C1281.49 701.673 1279.57 690.892 1277.96 680.094C1277.03 673.79 1275.33 667.559 1274.93 661.237C1274 646.382 1268.92 632.843 1262.97 619.486C1260.14 613.109 1257.23 606.751 1254.84 600.209C1252.61 594.088 1252.19 587.803 1255.11 581.609C1259.7 571.906 1270.09 567.758 1279.39 572.984C1283.66 575.396 1287.96 579.215 1290.22 583.472C1297.03 596.317 1303.57 609.4 1308.91 622.903C1318.26 646.528 1318.59 659.355 1312.89 685.319Z" fill="black"/>
<path d="M1079.67 1227.6C1091.78 1229.74 1096.11 1240.59 1089.28 1248.6C1086.83 1251.46 1083.27 1253.8 1079.76 1255.3C1040.12 1272.17 1000.43 1288.89 960.68 1305.46C954.616 1307.98 948.369 1310.9 941.628 1306.37C940.277 1305.48 937.573 1306.5 935.509 1306.79C930.705 1307.47 925.937 1308.76 921.133 1308.84C916.987 1308.89 912.602 1308.24 908.73 1306.79C902.757 1304.58 901.295 1299.67 905.022 1294.39C907.232 1291.26 910.356 1288.56 913.589 1286.47C916.585 1284.54 920.165 1283.28 923.654 1282.4C969.978 1270.63 1013.93 1252.21 1058.13 1234.49C1062.64 1232.68 1067.05 1230.58 1071.65 1229.08C1074.72 1228.06 1078.08 1227.88 1079.67 1227.6Z" fill="black"/>
<path d="M103.904 302.234C107.028 278.81 137.661 254.728 166.322 278.243C174.578 285.004 178.725 293.72 178.834 304.336C179.017 321.712 167.07 342.341 147.324 344.004C143.817 344.296 140.474 347.384 137.223 349.449C131.268 353.194 129.642 352.61 126.793 345.959C126.062 344.26 124.472 342.597 122.865 341.628C106.973 332.237 100.945 319.848 103.904 302.234Z" fill="black"/>
<path d="M0 916.894C2.50252 909.731 5.77209 904.122 12.1837 900.796C21.5909 895.899 31.6377 900.412 34.2498 910.718C34.7613 912.746 35.1996 914.993 34.8708 917.003C31.9116 935.184 37.9944 951.775 43.6936 968.439C44.68 971.307 46.1045 974.084 46.6525 977.026C47.8398 983.257 43.1453 987.076 37.2818 984.719C35.382 983.951 33.5555 982.617 32.0941 981.137C19.8921 968.639 9.4621 954.862 4.01866 938.071C1.84494 931.292 1.29693 923.965 0 916.894Z" fill="black"/>
<path d="M1307.48 977.155C1311.99 966.613 1321.41 960.638 1322.38 949.766C1320.24 948.615 1317.85 947.464 1315.62 946.075C1310.45 942.859 1307.29 938.273 1306.82 932.079C1305.89 919.983 1319.28 906.334 1331.44 906.955C1341.76 907.485 1347.94 915.835 1345.62 926.707C1342.79 939.954 1336.41 951.666 1328.04 962.099C1323.97 967.179 1318.44 971.107 1313.39 975.401C1312.46 976.205 1310.82 976.205 1307.48 977.155Z" fill="black"/>
<path d="M578.814 9.02202C579.983 7.48719 581.645 4.52717 584.038 2.38937C587.618 -0.808196 592.88 -0.698564 595.656 2.13357C598.78 5.31286 597.921 8.72965 595.93 12.1099C594.852 13.9371 594.012 15.9471 592.715 17.5915C590.03 21.0084 585.536 21.9585 582.138 19.9668C578.449 17.8108 577.865 14.3939 578.814 9.02202Z" fill="black"/>
<path d="M1023.2 690.599C1027.98 669.13 1030.45 646.875 1030.45 624.035C1030.45 452.81 889.723 313.962 716.063 313.962C697.778 313.962 679.804 315.534 662.305 318.494C634.211 301.062 600.966 290.921 565.328 290.921C464.606 290.921 382.991 371.409 382.991 470.771C382.991 503.953 392.142 534.978 408.034 561.728C403.869 581.845 401.641 602.693 401.641 624.035C401.641 795.315 542.422 934.144 716.027 934.144C735.718 934.144 754.953 932.335 773.621 928.955C799.322 942.549 828.658 950.296 859.858 950.296C960.543 950.296 1042.16 869.773 1042.16 770.502C1042.14 741.779 1035.31 714.7 1023.2 690.599ZM877.302 772.238C862.762 792.556 841.299 808.635 813.406 820C785.842 831.329 752.852 837.103 715.186 837.103C670.031 837.103 632.165 829.264 602.591 813.769C581.457 802.514 564.067 787.312 550.842 768.437C537.453 749.489 530.731 730.651 530.731 712.434C530.731 701.105 535.133 691.257 543.828 683.217C552.432 675.178 563.483 671.176 576.671 671.176C587.467 671.176 596.783 674.356 604.363 680.659C611.579 686.726 617.789 695.697 622.776 707.19C628.347 719.797 634.393 730.432 640.787 738.709C647.016 746.821 655.875 753.582 667.2 758.899C678.617 764.18 693.979 766.939 712.848 766.939C738.842 766.939 760.177 761.457 776.179 750.659C791.87 740.152 799.45 727.453 799.45 711.959C799.45 699.753 795.45 690.124 787.339 682.578C778.772 674.666 767.484 668.527 753.802 664.288C739.499 659.921 720.1 655.134 696.116 650.2C663.438 643.312 635.727 635.162 613.716 625.88C591.175 616.397 572.963 603.296 559.702 586.888C546.184 570.188 539.353 549.303 539.353 524.746C539.353 501.34 546.513 480.236 560.688 462.019C574.735 443.93 595.248 429.787 621.735 420.194C647.819 410.675 678.836 405.851 713.981 405.851C742.039 405.851 766.717 409.067 787.358 415.407C808.072 421.748 825.553 430.317 839.271 440.915C853.117 451.622 863.42 462.951 869.849 474.827C876.352 486.777 879.695 498.69 879.695 510.183C879.695 521.274 875.366 531.36 866.799 540.094C858.141 548.956 847.272 553.396 834.504 553.396C822.886 553.396 813.735 550.546 807.433 545.064C801.533 539.911 795.395 531.872 788.637 520.415C780.819 505.743 771.283 494.159 760.415 485.955C749.82 478.006 732.193 474.041 707.88 474.041C685.375 474.041 667.018 478.5 653.409 487.307C640.312 495.748 633.919 505.487 633.919 517.017C633.919 524.07 635.983 529.953 640.221 535.033C644.66 540.478 650.98 545.137 658.962 549.084C667.201 553.158 675.731 556.466 684.261 558.768C692.993 561.162 707.624 564.743 727.772 569.311C753.236 574.664 776.599 580.731 797.277 587.272C818.247 593.832 836.294 601.944 851.126 611.464C866.16 621.148 878.069 633.518 886.563 648.355C895.057 663.319 899.332 681.646 899.332 703.006C899.314 728.605 891.897 751.883 877.302 772.238Z" fill="white"/>
</svg>
