<svg width="1016" height="1416" viewBox="0 0 1016 1416" fill="none" xmlns="http://www.w3.org/2000/svg">
<path d="M1012.48 397.958C968.072 364.495 890.371 348.858 830.491 341.002C774.554 333.736 718.264 329.615 662.122 324.721C633.903 324.132 605.571 324.096 577.296 324.206C572.627 303.013 565.204 281.747 562.265 263.773C558.229 239.067 554.713 214.415 552.797 189.598C551.55 173.943 545.597 154.939 544.909 137.186C545.17 136.561 545.058 135.972 544.817 135.384C544.724 129.754 545.356 124.327 546.769 119.139C548.332 118.367 549.467 117.226 550.1 115.92C567.455 110.254 590.838 108.985 606.929 106.74C637.195 102.509 667.405 98.2225 697.764 94.2121C725.686 90.5327 769.773 88.877 786.18 69.6157C805.247 58.3019 813.972 41.1932 799.965 18.9334C789.417 2.08211 753.459 -1.91007 731.285 0.757437C671.59 7.89531 612.975 19.5404 553.318 27.2118C481.216 36.4653 425.781 57.566 421.205 113.197C417.912 153.265 431.324 198.337 435.491 238.57C438.523 267.913 441.035 297.237 443.453 326.579C412.499 327.628 381.582 328.824 350.814 330.295C256.947 334.821 154.244 337.838 66.0883 363.335C61.3634 364.697 55.1131 367.64 48.5838 371.504C31.1163 377.85 18.2806 385.871 11.8815 394.223C5.11027 411.81 -1.32595 428.846 0.236637 448.898C1.42718 464.682 3.90136 480.228 7.82643 495.625C8.4217 496.122 9.01672 496.582 9.83522 496.987C19.2293 512.256 34.1484 522.54 55.9502 530.266C57.9592 545.554 59.652 558.523 60.6007 567.004C63.6329 593.845 72.9712 668.001 85.4533 761.217C83.8721 761.658 82.2723 762.118 80.6912 762.504C75.4825 763.608 71.3341 766.147 70.0506 770.01C61.1773 796.832 72.1529 826.414 76.0222 853.457C81.547 891.722 87.2762 929.987 92.2616 968.288C97.0796 1005.58 84.2071 1071.59 132.666 1095.68C146.915 1189.91 160.867 1274.63 172.028 1327.56C172.084 1327.87 172.307 1328.02 172.381 1328.29C172.921 1346.28 176.734 1362.05 200.21 1375.29C244.912 1400.57 306.95 1403.53 361.436 1408.94C494.33 1422.06 633.103 1418.4 759.858 1385.14C768.657 1382.82 767.876 1372.79 757.514 1373.44C656.393 1379.64 562.619 1391.08 460.251 1386.87C408.462 1384.75 357.678 1379.89 306.504 1374.14C248.948 1367.64 216.822 1353.99 192.472 1323.27C192.081 1250.49 179.618 1177.55 166.652 1105.31C169.535 1106.93 172.512 1108.25 175.469 1109.67C174.539 1104.17 173.535 1098.68 172.567 1093.18C151.342 1073.57 147.622 1049.84 143.864 1024.18C136.758 975.5 130.898 925.94 118.361 877.777C111.775 852.592 87.4252 799.942 115.942 776.449C115.663 767.913 115.905 759.395 117.412 750.988C108.278 680.897 100.131 619.839 95.4614 590.791C92.6711 573.663 90.8851 556.444 89.0993 539.262C94.0847 540.292 98.8656 541.396 104.316 542.353C115.719 544.468 127.271 545.903 138.767 547.669C125.746 542.334 113.264 536.135 101.507 528.665C94.1964 524.011 83.1652 517.646 73.9943 510.471C57.7174 505.817 43.3008 500.077 30.3909 492.204L30.4093 492.167C32.902 480.191 24.5868 466.816 22.4661 454.803C20.3269 442.79 18.1135 430.777 15.3231 418.82C19.2854 421.782 24.9776 424.596 32.1953 427.025C24.1777 396.854 59.8754 372.166 107.404 366.941C226.254 353.769 344.024 348.214 464.213 347.975C463.878 339.107 464.008 330.222 464.901 321.336C466.352 255.936 456.605 188.347 445.592 125.505C445.053 122.856 444.792 120.17 444.755 117.447C444.625 115.497 444.253 113.436 444.271 111.578C444.532 111.615 444.811 111.689 445.09 111.726C445.443 108.837 446.076 105.912 446.987 103.006C446.336 103.079 445.759 103.079 445.108 103.098C446.057 97.2659 448.011 92.0596 450.745 87.3501C451.712 87.6261 452.717 87.8837 453.721 88.1597C454.893 86.2464 456.121 84.37 457.479 82.5303C456.53 82.2544 455.582 81.9967 454.596 81.7208C457.702 77.8023 461.46 74.3069 465.72 71.1243C466.296 71.2714 466.762 71.474 467.338 71.5844C481.885 58.0629 502.348 48.7358 525.582 48.9381C547.532 44.5229 571.195 41.7634 593.331 39.0959C629.122 34.8095 664.261 28.3706 699.327 21.8031C714.115 18.694 729.239 16.873 744.716 16.2475C754.185 13.6536 764.583 14.0399 770.926 21.3986C779.558 31.3695 779.688 43.9157 774.628 54.7881C763.132 79.6235 718.803 85.0873 684.835 83.3396C660.764 87.5892 636.6 91.5814 612.157 94.7272C599.395 96.4196 585.76 97.7259 572.311 99.4184C568.293 100.357 564.275 101.295 560.294 102.362C536.26 108.837 528.205 119.747 525.972 135.972C526.493 136.175 526.977 136.432 527.498 136.653C522.177 164.23 534.734 199.367 537.003 221.755C539.905 250.16 544.63 278.693 549.913 306.95C555.029 318.687 558.191 330.921 559.382 343.173C641.79 342.014 726.225 347.202 806.94 356.382C845.075 360.705 950.773 368.579 979.067 401.417C979.755 401.656 980.462 401.876 981.15 402.152C989.707 408.168 990.042 413.246 985.987 417.642C986.043 419.133 986.396 420.586 986.191 422.204C985.447 427.926 975.123 432.801 969.375 431.66C966.585 434.604 963.366 437.345 959.813 439.921C960.799 439.681 961.841 439.534 962.827 439.313C973.076 438.504 983.791 437.382 993.39 435.34C995.232 437.087 997.408 438.762 1000.12 439.516C1001.22 439.81 1002.28 439.7 1003.38 439.792C1002.67 462.328 1011.01 485.783 995.511 505.504C995.065 506.111 994.823 506.829 994.711 507.546C980.592 511.667 965.971 514.721 951.089 517.352C935.668 524.674 916.954 529.677 901.551 533.43C881.554 538.305 861.203 542.242 840.722 545.774C844.796 546.566 848.758 547.78 852.776 548.773C874.355 546.621 895.915 544.137 916.842 540.495C912.898 562.387 909.699 580.452 907.987 590.791C903.058 621.255 894.389 686.784 884.716 761.161C884.716 761.916 884.623 762.615 884.623 763.314C884.698 763.369 884.772 763.406 884.809 763.48C901.421 788.628 902.5 816.462 897.775 844.903C901.867 893.709 881.721 943.987 879.489 992.406C877.461 1036.54 867.732 1062.57 840.145 1091.05C837.913 1107.24 835.234 1123.35 830.826 1139.27C820.222 1200.73 811.181 1262.54 810.958 1324.26C810.939 1331.55 829.598 1336.29 831.439 1327.54C842.08 1276.96 855.306 1197.27 868.922 1108.07C883.469 1101.74 890.371 1089.89 892.045 1076.2C898.24 1023.99 907.262 972.262 915.8 920.163C923.483 873.436 929.269 826.083 933.305 779.153C934.421 766.128 927.557 760.794 918.219 759.984C930.552 667.339 939.834 593.679 942.866 566.986C943.759 559.241 945.211 547.89 946.996 534.35C969.431 529.126 990.711 522.484 1009.89 513.783C1010.47 513.507 1010.84 513.084 1011.34 512.753C1012.83 512.422 1014.06 511.943 1015.34 511.446C1015.41 494.448 1015.12 477.431 1015.45 460.359C1015.92 439.185 1017.31 418.672 1012.48 397.958Z" fill="#549754"/>
<path d="M164.625 830.462C163.453 826.966 156.868 829.928 157.574 832.798C179.079 920.899 179.972 1012.72 210.479 1099.79C211.577 1102.95 218.348 1100.73 217.846 1098.06C200.694 1009.7 194.723 917.238 164.625 830.462Z" fill="#549754"/>
<path d="M179.73 404.322C255.962 419.021 336.863 424.098 415.699 426.545C552.891 430.794 702.285 440.011 829.785 397.92C829.989 397.166 830.194 396.393 830.845 395.786C849.558 378.622 767.411 362.47 752.269 359.545C723.082 353.915 693.337 351.965 663.611 349.831C636.135 349.132 608.53 348.966 580.831 349.058C581.389 358.238 580.943 367.105 578.729 375.457C594.578 373.011 610.576 371.447 626.22 370.84C611.952 375.605 597.499 380.185 585.035 387.158C581.185 387.47 577.334 387.783 573.632 388.446C559.606 390.948 545.543 392.971 531.442 394.811C533.637 395.767 535.665 397.074 537.749 398.251C520.597 395.768 503.353 393.597 485.811 392.143C458.67 389.936 431.53 391.187 405.04 386.569C416.983 382.798 432.832 382.356 448.067 383.019C447.193 372.33 446.3 361.697 445.463 351.008C382.587 352.535 278.75 356.233 191.375 365.579C186.706 366.774 181.925 367.841 177.479 369.46C148.237 375.016 148.981 386.624 179.73 404.322Z" fill="#549754"/>
<path d="M62.0506 424.67C144.44 454.306 280.236 452.651 347.874 454.159C368.243 455.024 388.705 455.741 409.149 456.312C404.703 456.073 400.332 455.705 395.905 455.392C586.54 460.451 790.364 465.473 973.931 425.185C987.362 419.279 995.101 411.958 981.167 402.171C947.981 389.495 914.013 379.8 879.376 372.331C859.974 369.02 840.535 365.837 821.021 362.82C844.553 370.731 868.252 386.129 844.125 399.411C843.604 400.404 842.73 401.288 841.335 401.839C759.671 435.432 665.358 436.37 573.5 438.578C460.417 441.282 343.651 439.589 231.573 427.356C210.552 425.056 87.6471 413.08 129.074 376.875C130.693 375.459 132.758 374.429 134.506 373.122C103.292 378.089 76.895 384.032 59.6694 391.427C45.4759 399.19 41.7927 409.364 61.1204 423.18C61.7157 423.621 61.7157 424.154 62.0506 424.67Z" fill="#549754"/>
<path d="M464.882 321.335C463.914 331.085 463.635 340.835 464.119 350.586C463.896 350.622 463.747 350.622 463.747 350.622C462.631 361.752 461.31 372.735 459.654 383.644C465.402 384.03 470.834 384.454 475.597 384.766C490.069 385.649 504.207 386.698 517.154 389.917C532.556 384.84 548.908 380.517 565.873 377.408C565.854 368.228 563.92 358.735 561.278 349.298C560.925 349.298 560.59 349.334 560.236 349.334C559.883 334.985 555.884 320.691 549.912 307.004C544.611 278.728 539.904 250.214 537.002 221.81C534.733 199.421 522.176 164.283 527.497 136.707C514.438 131.372 503.072 124.124 489.232 120.113C474.22 115.79 459.487 113.748 444.233 111.596C444.215 115.514 444.568 119.672 445.331 124.105C456.455 187.353 466.333 255.475 464.882 321.335Z" fill="#549754"/>
<path d="M903.577 542.407C850.654 550.594 794.586 553.501 745.123 557.198C634.961 565.348 523.999 569.598 413.223 567.353C309.888 565.201 204.896 560.639 104.333 542.371C102.584 542.095 101.115 541.708 99.5148 541.414C99.6265 542.352 99.7011 543.29 99.3477 544.247C116.201 615.019 115.643 686.986 128.237 758.199C128.479 759.561 127.939 760.848 127.232 762.044C166.688 774.775 224.782 779.227 259.736 782.63C327.615 789.234 397.56 793.208 466.09 793.668C603.542 794.569 738.873 780.606 873.534 763.148C887.486 730.899 882.147 697.711 889.105 664.745C897.476 624.971 905.307 585.547 902.944 545.204C902.851 544.229 903.13 543.291 903.577 542.407Z" fill="#549754"/>
<path d="M529.84 62.9371C542.229 72.3929 556.888 87.662 558.525 101.312C576.123 98.1665 594.985 97.0258 612.155 94.7631C636.598 91.6172 660.781 87.6251 684.833 83.3755C718.801 85.1232 763.131 79.6597 774.627 54.8243C779.668 43.9335 779.556 31.4054 770.925 21.4345C764.582 14.0758 754.183 13.6895 744.714 16.2835C729.237 16.9089 714.095 18.73 699.325 21.839C664.26 28.3882 629.139 34.827 593.33 39.1318C566.896 42.3144 538.118 45.4602 512.949 51.6599C519.069 54.8241 524.594 58.9266 529.84 62.9371Z" fill="#549754"/>
<path d="M736.232 801.633C726.428 802.773 716.569 803.951 706.84 804.963C713.965 872.901 706.896 939.975 701.669 1007.99C699.176 1040.38 692.126 1072.93 691.493 1105.38C691.345 1113.29 691.81 1121.09 689.484 1128.61C690.228 1128.54 690.954 1128.52 691.642 1128.41C700.218 1127.38 709.928 1126.33 720.048 1125.23C717.313 1070.81 723.657 1013.76 728.14 959.843C732.493 907.266 729.275 854.063 736.232 801.633Z" fill="#549754"/>
<path d="M474.741 103.612C484.544 105.066 493.883 107.512 503.016 110.345C510.792 112.755 519.126 116.619 526.715 121.071C526.771 120.832 526.957 120.647 527.069 120.371C526.418 120.335 525.711 120.408 525.171 120.095C509.88 112.185 498.347 102.435 481.047 96.2905C471.206 92.7767 460.919 90.1275 450.744 87.3496C448.028 92.0775 446.056 97.2654 445.107 103.097C454.985 102.49 463.226 101.883 474.741 103.612Z" fill="#549754"/>
<path d="M530.492 114.577C531.292 113.602 532.427 112.829 533.338 111.928C524.465 103.171 513.731 94.9479 503.035 87.534C492.413 80.1202 479.875 74.3252 465.7 71.1426C461.441 74.3252 457.683 77.8206 454.576 81.7391C483 89.484 510.978 96.5481 530.492 114.577Z" fill="#549754"/>
<path d="M823.031 1127.75C788.487 1138.55 745.646 1142.48 712.962 1146.68C647.408 1155.07 581.779 1155.05 515.351 1154.46C441.277 1153.83 370.83 1148.32 298.132 1138.16C253.841 1131.96 214.367 1127.47 179.357 1111.58C192.435 1188.46 198.667 1265.85 211.874 1342.71C233.974 1360.15 262.919 1369.22 306.522 1374.12C357.697 1379.87 408.481 1384.73 460.269 1386.85C559.419 1390.93 650.57 1380.33 748.083 1374.04C767.671 1366.85 785.231 1355.53 792.765 1345.32C794.253 1343.32 795.277 1341.3 796.43 1339.29C814.884 1272.75 808.968 1200.67 822.566 1133.56C822.027 1132.46 821.803 1131.15 822.455 1129.33C822.659 1128.8 822.845 1128.26 823.031 1127.75Z" fill="#549754"/>
<path d="M173.46 1094.71C238.177 1111.93 310.391 1122.49 382.065 1127.99C374.587 1072.71 371.89 1017.04 367.072 961.61C362.849 913.227 354.776 862.71 360.115 814.033C342.405 812.874 324.901 811.53 307.452 810.04C327.951 862.747 329.03 919.684 336.192 973.715C342.35 1020.07 356.264 1070.54 347.167 1116.9C347.037 1117.76 344.694 1118.39 344.377 1117.28C315.302 1017.19 304.662 911.093 296.904 809.047C280.72 807.557 264.592 805.791 248.427 803.878C262.434 851.929 269.764 901.14 278.562 949.671C286.859 995.312 301.127 1042.39 302.262 1088.44C302.336 1090.79 296.681 1093 295.546 1090C276.144 1040.14 275.772 987.402 261.951 936.701C249.841 892.163 235.777 847.441 233.061 801.946C224.467 800.842 215.836 799.426 207.242 798.138C243.367 891.629 251.701 999.194 262.323 1094.73C262.714 1098.44 254.361 1100.25 253.617 1095.96C236.28 996.858 197.717 896.431 195.225 796.353C190.704 795.618 186.203 795.121 181.645 794.348C160.755 790.706 138.767 786.493 121.002 778.601C124.127 802.627 127.327 827.352 130.526 851.929C130.563 843.577 130.619 835.188 130.712 826.892C130.731 823.801 138.879 820.692 139.753 824.776C158.727 913.816 158.578 1004.4 173.572 1093.79C173.627 1094.1 173.46 1094.41 173.46 1094.71Z" fill="#549754"/>
<path d="M840.74 863.831C834.025 944.5 834.638 1026.48 822.9 1106.74C823.942 1106.39 825.133 1106.13 826.119 1105.75C851.362 1020.61 853.241 928.183 865.518 841.627C865.835 839.511 870.913 838.168 870.82 840.873C870.411 854.394 869.63 867.971 869.072 881.492C873.629 846.483 878.317 810.463 882.818 775.933C872.438 778.674 861.761 781.01 851.027 783.328C848.125 810.169 844.591 837.009 840.74 863.831Z" fill="#549754"/>
<path d="M1003.4 439.79C1002.28 439.698 1001.22 439.809 1000.14 439.514C997.426 438.76 995.25 437.104 993.408 435.338C983.809 437.399 973.094 438.503 962.844 439.312C821.077 474.266 659.126 477.117 511.071 476.952C417.483 476.86 321.7 474.026 229.173 463.228C170.799 456.421 109.077 451.969 62.2368 424.944C64.2831 428.826 58.9257 433.444 52.8242 432.285C34.6312 428.918 22.5213 424.227 15.3223 418.8C18.1126 430.739 20.3446 442.752 22.4653 454.784C24.5859 466.797 32.9012 480.171 30.4085 492.147L30.39 492.165C54.2008 506.736 82.3088 514.333 119.997 520.459C117.374 515.971 116.76 510.93 119.401 506.735C120.238 505.392 121.727 504.417 123.029 503.332C123.475 501.64 125.298 500.444 127.326 500.315C134.748 496.562 144.886 495.477 152.681 498.696C160.047 501.787 153.22 508.998 148.477 510.967C145.352 512.328 141.278 512.696 138.19 513.91C138.19 514.149 138.134 514.37 138.134 514.609C140.794 518.601 144.124 522.281 148.923 524.672C178.612 528.554 208.58 531.166 238.679 532.785C269.056 535.563 299.713 537.347 330.444 538.746C329.885 535.82 328.584 532.804 329.272 529.842C330.109 526.42 331.671 522.575 335.038 519.907C341.624 514.701 350.106 511.647 360.114 512.972C369.025 514.131 368.113 521.085 362.477 524.635C358.477 527.193 354.627 527.983 351.799 530.044C351.985 530.743 352.357 531.313 352.525 532.049C353.12 534.68 354.254 537.292 355.036 539.868C399.551 541.505 444.14 542.02 488.395 541.799C514.94 543.29 541.672 544.32 569.408 543.437C578.69 543.179 587.973 542.701 597.255 542.314C594.242 535.471 593.051 527.229 598.073 521.618C604.454 514.462 626.293 504.454 634.664 515.584C637.027 518.767 635.222 521.986 631.651 524.267C627.131 527.137 623.745 526.972 618.164 527.836C616.49 528.131 616.825 527.928 616.453 529.915C617.494 533.779 618.239 537.623 617.848 541.395C665.005 539.04 712.161 535.508 759.225 532.417C780.617 531.019 802.623 530.136 824.76 529.087C825.895 520.588 825.486 511.353 837.056 506.073C846.525 501.75 860.402 498.659 871.322 502.155C879.395 504.73 876.568 513.193 869.22 515.253C862.895 517.038 850.078 515.639 845.762 519.668C842.953 522.317 841.186 525.335 839.4 528.407C892.603 525.721 946.307 521.563 994.71 507.545C994.84 506.828 995.082 506.11 995.51 505.503C1011.01 485.782 1002.69 462.326 1003.4 439.79Z" fill="#549754"/>
<path d="M680.092 1129.48C694.174 1021.79 689.319 913.356 699.494 805.681C689.635 806.674 679.645 807.741 669.954 808.643C658.309 809.71 646.477 810.538 634.721 811.494C640.227 833.883 637.195 860.411 635.41 881.493C631.633 926.233 627.169 970.772 624.806 1015.55C624.657 1018.36 618.165 1019.98 617.979 1016.51C614.426 948.199 618.295 880.408 623.467 812.396C587.881 815.173 552.183 817.546 516.318 818.485C523.257 831.289 521.545 849.115 522.773 863.372C525.024 888.686 524.782 914.055 526.512 939.369C530.195 993.528 531.907 1050.1 527.07 1104.2C526.679 1108.76 516.486 1111.58 515.816 1105.82C504.896 1010.86 499.985 914 503.055 818.779C478.407 819.221 453.815 818.816 429.26 817.841C436.384 868.321 436.738 919.096 436.905 969.889C437.073 1023.39 443.342 1077.67 439.193 1131.01C439.175 1131.15 439.007 1131.24 438.951 1131.39C449.443 1131.82 459.842 1132.26 470.185 1132.5C479.802 1035.71 464.678 936.113 458.168 839.494C458 837.213 463.357 835.998 463.599 838.721C471.747 935.708 492.117 1035.51 483.057 1132.75C488.954 1132.86 494.981 1133.03 500.841 1133.1C516.318 1133.19 531.907 1133.43 547.57 1133.64C561.242 1048.22 559.047 959.679 562.433 873.822C562.545 871.449 567.995 870.069 568.274 873.031C576.459 957.931 578.394 1049.03 560.443 1133.67C588.588 1133.93 616.789 1133.73 644.729 1132.28C651.817 1043.95 653.36 955.521 663.982 867.383C664.261 865.138 669.619 863.704 669.619 866.592C669.898 954.987 659.76 1043.31 656.579 1131.69C664.448 1131.17 672.261 1130.27 680.092 1129.48Z" fill="#549754"/>
<path d="M411.381 817.215C397.932 816.442 384.761 815.578 371.535 814.731C379.329 862.434 379.999 911.976 381.004 959.641C382.138 1015.93 393.988 1072.58 393.077 1128.83C404.684 1129.63 416.292 1130.32 427.807 1130.91C417.185 1073.61 421.985 1014.15 421.203 956.459C420.589 910.338 417.39 863.648 420.571 817.528C417.501 817.381 414.432 817.38 411.381 817.215Z" fill="#549754"/>
<path d="M791.37 794.256C776.377 796.537 761.309 798.689 746.204 800.474C754.947 856.51 745.832 913.87 743.73 969.98C741.776 1021.14 739.711 1072.69 733.033 1123.74C743.32 1122.56 753.905 1121.24 764.434 1119.69C765.029 1012.31 769.512 900.57 791.37 794.256Z" fill="#549754"/>
<path d="M814.12 973.31C816.706 952.816 819.44 932.286 822.342 911.811C826.639 869.407 829.839 826.45 841.874 785.353C829.318 787.91 816.612 790.228 803.814 792.325C815.757 834.048 798.233 891.188 793.974 931.127C787.295 993.399 779.668 1055.43 775.688 1117.85C782.124 1116.82 788.393 1115.64 794.569 1114.38C795.462 1067.26 806.065 1020.07 814.12 973.31Z" fill="#549754"/>
<path d="M164.625 830.461C163.453 826.965 156.868 829.927 157.574 832.797C179.079 920.898 179.972 1012.72 210.479 1099.79C211.577 1102.95 218.348 1100.72 217.846 1098.06C200.694 1009.7 194.723 917.237 164.625 830.461Z" fill="#549754"/>
</svg>
