<svg width="1373" height="1308" viewBox="0 0 1373 1308" fill="none" xmlns="http://www.w3.org/2000/svg">
<path d="M1012.7 1043.78C1005.08 1047.98 994.049 1054.38 982.724 1060.19C976.915 1063.17 972.056 1066.93 967.946 1071.95C960.64 1080.85 953.114 1089.59 945.643 1098.36C931.103 1115.48 913.092 1128.19 893.766 1139.29C867.645 1154.27 840.081 1166.07 811.895 1176.51C768.238 1192.66 724.124 1193.52 679.718 1180C654.693 1172.38 630.362 1162.98 608.497 1148.26C604.46 1145.53 600.624 1145.88 596.386 1146.59C571.946 1150.63 547.45 1151.77 523.119 1146.34C478.494 1136.4 438.618 1116.67 403.62 1087.17C378.777 1066.24 358.026 1041.88 342.28 1013.43C338.043 1005.77 332.581 999.963 325.091 995.285C291.901 974.528 263.57 947.98 237.485 919.092C191.472 868.15 160.126 809.242 144.326 742.33C135.813 706.28 137.074 670.066 144.253 633.924C146.499 622.614 148.637 611.285 151.176 600.048C152.765 593.031 151.504 587.294 146.974 581.465C129.475 558.955 119.556 533.045 114.241 505.235C109.692 481.446 111.555 458.112 119.629 435.291C133.914 394.91 153.696 357.581 181.206 324.527C186.046 318.716 190.704 312.65 194.632 306.218C215.949 271.41 244.043 243.382 278.786 222.132C291.171 214.549 304.396 208.336 316.963 201.028C321.84 198.195 326.334 194.413 330.316 190.412C341.86 178.809 352.711 166.512 364.493 155.165C382.467 137.862 403.711 125.656 427.311 117.671C458.072 107.275 488.942 97.2985 521.219 92.4199C527.722 91.4332 534.116 89.0028 540.253 86.4813C568.347 74.9518 596.715 64.318 626.417 57.6305C663.534 49.262 700.78 49.1705 738.555 53.3547C810.58 61.303 875.17 87.6877 934.464 128.361C951.726 140.201 964.64 155.476 970.504 175.977C971.782 180.453 974.851 183.048 978.431 185.496C993.72 195.93 1008.86 206.564 1024.19 216.924C1080.74 255.185 1126.06 304.738 1165.79 359.572C1177.28 375.432 1185.7 393.521 1195.69 410.514C1200.28 418.334 1204.26 426.794 1210.2 433.464C1236.79 463.338 1251.22 498.767 1260.81 537.01C1275.32 594.84 1267.74 650.149 1244.3 704.069C1235.22 724.99 1224.76 745.181 1211.97 764.074C1206.65 771.931 1202.93 780.427 1199.48 789.234C1193.06 805.606 1186.83 822.178 1178.72 837.709C1164.11 865.647 1149.55 893.804 1132.45 920.243C1101.6 967.987 1063.83 1009.67 1012.7 1043.78ZM378.211 636.39C377.864 637.815 377.023 639.332 377.261 640.648C381.681 664.803 386.12 688.958 390.851 713.041C392.769 722.743 397.61 731.13 404.186 738.548C448.902 789.033 498.642 833.507 557.15 867.62C559.104 868.753 561.296 869.484 563.598 870.507C566.247 864.185 561.863 862.358 558.447 860.129C528.234 840.304 499.519 818.56 472.119 794.989C422.872 752.617 394.87 697.82 377.955 636.281C372.694 609.275 372.274 582.178 376.256 554.953C379.727 531.254 384.019 507.757 391.436 484.917C392.185 482.615 392.513 480.166 393.043 477.791C381.992 491.915 376.165 508.122 369.863 524.183C363.488 540.427 361.277 556.506 365.095 573.864C368.931 591.277 370.868 609.092 373.973 626.67C374.557 630.068 376.749 633.156 378.211 636.39ZM1132.6 479.654C1131.58 479.6 1130.56 479.545 1129.53 479.49C1129.75 481.299 1130.3 483.126 1130.12 484.899C1126.99 514.444 1123.71 543.99 1120.65 573.535C1120.25 577.39 1120.45 581.447 1121.15 585.266C1131.08 639.716 1127.38 693.343 1112.29 746.423C1103.65 776.827 1093.22 806.538 1080.05 835.279C1078.42 838.842 1076.14 842.332 1076.81 846.735C1079.81 843.592 1082.28 840.213 1084.4 836.65C1101.75 807.323 1116.93 776.919 1126.01 743.938C1133.15 717.919 1139.36 691.644 1145.53 665.369C1159.76 604.871 1152.95 545.47 1135.56 486.726C1134.83 484.278 1133.61 481.993 1132.6 479.654ZM306.46 946.847C306.843 945.787 307.355 945.092 307.172 944.709C300.797 930.055 295.92 914.688 285.508 901.99C266.273 878.492 248.244 854.062 234.654 826.837C222.616 802.737 211.382 778.198 200.605 753.513C193.097 736.301 186.996 718.486 180.201 700.981C179.397 698.935 178.21 697.034 176.256 693.179C175.835 697.089 175.306 698.843 175.507 700.506C177.278 714.612 178.21 728.919 181.242 742.751C190.248 783.734 207.912 821.21 229.338 857.041C248.81 889.601 274.493 916.954 301.491 943.193C302.916 944.563 304.706 945.568 306.46 946.847ZM668.448 85.0382C668.375 85.7143 668.32 86.3902 668.247 87.0663C671.206 87.3952 674.22 87.5231 677.125 88.0895C689.619 90.5014 702.095 93.0775 714.571 95.5442C730.609 98.7235 746.592 102.14 762.703 104.918C781.226 108.097 799.894 110.381 818.416 113.615C862.64 121.308 903.027 138.958 941.478 161.56C944.328 163.241 946.958 165.873 951.232 165.855C939.213 148.46 880.87 116.557 834.016 101.337C783.071 84.7641 694.021 76.0119 668.448 85.0382ZM808.845 870.471C808.479 869.849 808.114 869.247 807.731 868.625C805.447 869.119 803.109 869.502 800.862 870.142C763.397 880.757 725.22 887.518 686.495 891.245C675.645 892.287 664.594 893.584 653.835 892.525C643.039 891.465 638.235 897.275 633.066 904.42C634.088 905.132 634.527 905.662 635.057 905.79C666.895 913.556 699.045 916.497 731.596 911.472C736.911 910.65 742.373 909.043 747.085 906.503C765.242 896.727 783.125 886.495 801.045 876.299C803.858 874.728 806.269 872.444 808.845 870.471ZM562.922 1125.75C563.068 1124.85 563.232 1123.94 563.379 1123.04C557.241 1120.56 551.213 1117.82 544.966 1115.64C505.839 1101.97 470.932 1081.11 439.495 1054.21C436.28 1051.45 432.956 1048.8 429.631 1046.17C422.251 1040.34 399.071 1030.6 389.408 1029.23C389.445 1029.8 389.28 1030.48 389.536 1030.9C390.34 1032.18 391.253 1033.38 392.203 1034.57C423.932 1073.82 463.917 1101.13 511.63 1117.29C525.183 1121.87 539.048 1125 553.369 1125.84C556.547 1126.02 559.744 1125.78 562.922 1125.75ZM901.511 238.996C901.145 239.636 900.78 240.257 900.433 240.897C904.361 247.639 912.179 249.722 917.786 254.472C923.339 259.168 929.331 263.335 934.921 267.976C940.748 272.818 946.392 277.879 952.018 282.94C957.406 287.819 962.686 292.825 968.001 297.795C973.536 302.966 979.089 308.119 984.533 313.381C989.976 318.644 995.419 323.924 1000.66 329.387C1005.69 334.649 1010.54 340.058 1015.24 345.612C1020.13 351.386 1024.86 357.306 1029.47 363.318C1033.89 369.092 1037.93 375.158 1042.36 380.914C1046.73 386.578 1049.16 393.813 1056.06 397.833C1053.43 385.262 1049.82 373.13 1046.35 360.961C1041.89 345.32 1033.09 332.859 1020.83 322.115C985.592 291.199 945.807 266.715 907.082 240.732C905.53 239.673 903.374 239.545 901.511 238.996ZM558.428 754.39C560.438 748.835 556.876 746.77 554.52 744.358C538.865 728.444 527.576 710.099 522.717 688.118C521.548 682.855 518.845 678.708 514.753 675.255C508.744 670.157 502.789 664.986 497.035 659.596C482.44 645.965 472.722 629.41 468.612 609.841C466.566 600.066 465.324 590.126 463.643 580.259C463.351 578.505 462.639 576.806 462.109 575.089C455.825 609.476 467.644 639.643 481.727 669.554C498.679 705.567 526.681 731.093 558.428 754.39ZM254.181 287.143C253.651 286.759 253.121 286.394 252.592 286.01C251.441 286.923 250.144 287.691 249.139 288.751C232.919 305.889 216.606 322.937 200.623 340.314C197.865 343.311 195.965 347.44 194.668 351.386C190.485 364.031 186.266 376.711 183.014 389.611C178.21 408.687 174.082 427.945 170.027 447.204C168.693 453.507 168.456 460.049 170.082 466.481C182.759 435.949 194.175 405.124 206.962 374.884C219.931 344.242 236.554 315.391 254.181 287.143ZM932.838 1082.59C932.509 1082.17 932.18 1081.73 931.87 1081.31C921.074 1084.18 910.206 1086.77 899.538 1090.08C895.629 1091.3 892.195 1094.15 888.615 1096.4C880.925 1101.21 873.453 1106.4 865.581 1110.87C858.493 1114.91 850.748 1117.82 843.715 1121.95C829.687 1130.17 814.69 1135.58 798.853 1138.81C775.106 1143.65 751.36 1148.38 727.613 1153.19C726.536 1153.41 725.494 1153.88 722.608 1154.87C726.28 1155.91 728.125 1156.7 730.024 1156.94C743.633 1158.65 757.205 1158.25 770.777 1156.19C795.547 1152.44 818.636 1143.21 841.889 1134.48C872.467 1123.01 900.525 1107.05 926.847 1087.85C928.966 1086.3 930.847 1084.36 932.838 1082.59ZM1027.33 878.638C1026.89 878.364 1026.45 878.09 1026.02 877.816C1023.5 881.032 1021.07 884.339 1018.44 887.463C1004.41 904.127 990.652 921.065 976.13 937.291C967.015 947.468 955.233 953.516 941.314 955.252C937.258 955.745 933.057 957.408 929.568 959.582C923.668 963.255 918.133 967.549 912.781 971.989C910.48 973.889 908.982 976.794 906.881 979.553C913.768 981.965 913.75 981.91 920.07 979.846C943.908 972.098 964.896 958.632 986.761 946.902C993.191 943.467 997.812 938.734 1001.05 932.248C1008.06 918.142 1015.35 904.182 1022.4 890.095C1024.28 886.404 1025.71 882.475 1027.33 878.638ZM492.231 479.088C499.921 477.261 506.862 474.758 513.986 474.155C520.507 473.607 524.361 471.195 527.43 465.494C536.856 448.008 549.259 432.86 564.255 419.741C568.037 416.434 570.868 411.958 573.772 407.773C577.042 403.059 579.965 398.089 582.924 393.174C583.673 391.913 584.038 390.415 584.897 388.204C560.931 400.903 497.93 462.863 492.231 479.088ZM629.54 359.316C631.988 359.517 632.901 359.81 633.687 359.609C658.127 353.378 682.732 353.542 707.538 357.197C712.452 357.928 717.804 357.124 722.736 356.046C734.244 353.506 745.624 350.381 757.023 347.421C758.411 347.056 759.635 346.142 762.722 344.589C715.685 334.503 672.174 335.855 629.54 359.316ZM976.952 460.086C977.719 464.818 978.103 468.015 978.742 471.177C984.953 501.435 990.834 531.729 990.542 562.846C990.524 565.423 991.163 568.529 992.679 570.484C997.776 577.08 1003.38 583.274 1008.86 589.669C1015.27 573.535 994.013 485.739 976.952 460.086ZM152.436 542.473C155.669 533.685 157.825 524.969 155.194 515.833C146.773 486.708 145.659 457.363 152.692 427.781C153.094 426.1 152.765 424.236 152.765 420.509C130.224 462.643 133.384 502.604 152.436 542.473ZM541.185 309.91C540.345 309.983 539.376 309.836 538.664 310.183C524.507 317.035 510.186 323.595 496.34 331.031C492.377 333.151 488.906 337.335 486.696 341.392C477.763 357.782 466.274 372.034 453.031 385.08C446.582 391.42 440.737 398.4 434.801 405.252C433.01 407.316 431.86 409.911 430.416 412.268C464.319 374.683 501.893 341.575 541.185 309.91ZM676.047 805.021C698.04 806.446 771.49 791.774 781.847 783.332C746.684 790.769 712.653 791.226 678.001 789.179C677.289 795.026 676.705 799.722 676.047 805.021ZM1227.84 686.839C1248.5 657.056 1251.79 564.929 1234.25 538.965C1235.31 563.011 1236.99 587.769 1237.34 612.546C1237.69 637.651 1232.94 662.3 1227.84 686.839ZM915.211 730.947C922.517 727.074 928.6 723.949 934.537 720.587C935.706 719.929 936.839 718.357 937.094 717.024C938.702 708.472 939.25 699.867 938.135 689.196C932.765 694.367 929.239 699.026 924.618 701.95C914.078 708.637 913.64 718.267 915.211 730.947ZM823.293 367.849C827.677 375.524 838.455 382.503 852.173 386.834C844.191 378.94 835.075 372.765 823.293 367.849ZM586.742 877.578C586.34 885.454 588.185 887.171 597.811 888.724C597.537 880.447 597.391 880.301 586.742 877.578ZM810.032 772.625C819.732 771.401 820.608 770.725 822.599 763.343C817.814 766.869 813.923 769.738 810.032 772.625ZM365.315 989.183C365.643 988.635 365.99 988.086 366.319 987.538C365.278 986.935 364.218 986.314 363.177 985.711C362.922 986.095 362.666 986.46 362.41 986.844C363.378 987.629 364.346 988.415 365.315 989.183Z" fill="black"/>
<path d="M250.45 1070.93C243.454 1060.12 243.381 1048.95 249.354 1040.4C255.272 1031.92 265.848 1028.21 276.808 1030.79C285.357 1032.8 292.481 1037.53 298.509 1043.58C314.784 1059.9 330.859 1076.41 346.751 1093.1C360.56 1107.59 373.31 1123.14 387.796 1136.91C415.945 1163.7 448.642 1181.71 488.207 1185.52C503.277 1186.96 518.256 1189.57 533.234 1191.97C545.765 1193.98 557.309 1198.91 566.826 1207.24C587.961 1225.73 613.534 1236.44 638.102 1248.86C645.336 1252.52 653.464 1254.44 661.191 1257.12C663.182 1257.82 665.356 1258.16 667.238 1259.08C674.435 1262.62 675.275 1270.66 668.571 1275.01C665.393 1277.08 661.337 1278.32 657.538 1278.85C621.041 1283.84 585.824 1280.75 554.533 1259.32C539.518 1249.03 523.827 1242.65 505.542 1242.52C498.601 1242.47 491.678 1240.95 484.7 1240.64C446.267 1238.87 412.163 1224.78 380.16 1204.43C359.976 1191.58 343.079 1175.17 327.571 1157.14C309.378 1135.98 291.111 1114.89 272.698 1093.92C267.913 1088.46 262.432 1083.61 257.336 1078.41C254.596 1075.57 252.002 1072.61 250.45 1070.93Z" fill="black"/>
<path d="M319.942 63.369C362.978 35.8151 409.284 17.1046 459.864 9.55833C478.423 6.79928 497.091 4.86272 515.705 2.50565C517.806 2.24985 520.29 2.37745 521.861 1.28114C525.331 -1.14901 528.053 0.367952 531.122 1.81143C541.588 6.74482 542.885 15.0398 533.533 21.91C519.139 32.4711 504.635 43.0139 489.511 52.4604C481.674 57.339 472.669 61.1215 463.682 63.2045C408.571 76.0496 361.499 103.713 319.011 140.165C313.731 144.697 308.398 149.265 302.717 153.267C294.332 159.168 285.016 161.068 275.079 157.615C257.964 151.676 250.895 131.962 260.083 115.681C265.398 106.271 273.198 98.999 281.528 92.4211C294.15 82.4995 307.119 73.0348 319.942 63.369Z" fill="black"/>
<path d="M67.403 591.745C53.5204 569.417 44.6245 545.646 41.1721 519.535C36.6055 484.782 37.6469 450.596 47.456 416.811C54.4886 392.656 61.1557 368.391 68.4075 344.29C69.9419 339.211 72.7367 334.241 75.9699 329.984C80.8105 323.588 87.825 321.615 95.5153 323.954C102.877 326.183 107.425 331.701 108.101 339.156C108.594 344.747 107.827 350.667 106.475 356.148C101.178 377.636 95.5334 399.032 89.8343 420.429C80.3357 456.077 78.4543 492.146 83.0392 528.69C84.1352 537.405 84.5736 546.194 85.0851 554.964C86.1993 573.912 89.3959 592.294 98.7301 609.159C99.3146 610.218 99.8811 611.315 100.173 612.484C101.434 617.436 98.5839 620.396 93.652 618.678C90.638 617.618 87.5512 615.681 85.414 613.306C79.1851 606.326 73.3944 598.963 67.403 591.745Z" fill="black"/>
<path d="M1114.13 1000.59C1117.87 995.032 1123.15 991.231 1129.75 989.952C1135.65 988.819 1141.05 991.176 1143.25 996.859C1145.26 1002.08 1146.74 1007.99 1146.55 1013.52C1145.93 1031.12 1140.63 1047.53 1131.45 1062.55C1117.34 1085.57 1098.79 1104.66 1078.27 1121.95C1045.67 1149.39 1010.03 1172.45 973.222 1193.72C965.404 1198.23 956.782 1201.49 948.288 1204.65C942.205 1206.91 935.757 1206.86 929.601 1204.15C918.404 1199.22 916.906 1187.65 926.715 1180.44C929.346 1178.5 932.615 1177.42 935.593 1175.94C946.425 1170.55 957.896 1166.15 967.961 1159.59C999.197 1139.21 1030.25 1118.51 1060.7 1096.97C1084.89 1079.85 1105.42 1058.71 1121.14 1033.4C1125.42 1026.51 1128.32 1018.75 1131.57 1011.28C1132.51 1009.12 1132.76 1006.54 1132.85 1004.15C1133.11 997.316 1129.84 995.233 1123.87 998.303C1121.07 999.746 1118.37 1001.37 1115.61 1002.91C1115.08 1002.1 1114.61 1001.35 1114.13 1000.59Z" fill="black"/>
<path d="M1149.87 214.077C1154.93 223.414 1160.3 232.586 1164.92 242.124C1167.53 247.533 1169.25 253.434 1170.71 259.281C1171.4 262.077 1171 265.348 1170.34 268.216C1169.52 271.725 1166.91 274.282 1163.15 274.008C1159.51 273.753 1157.04 272.2 1155.49 267.833C1153.77 262.972 1150.18 258.313 1146.3 254.805C1138.23 247.496 1129.44 240.955 1120.88 234.194C1115.87 230.248 1110.37 226.867 1105.75 222.537C1094.9 212.359 1081.93 205.983 1068.43 200.318C1062 197.632 1055.54 194.983 1049.31 191.84C1043.5 188.917 1038.88 184.623 1036.78 178.1C1033.47 167.886 1038.2 157.745 1048.56 155.187C1053.33 154.017 1059.06 153.853 1063.63 155.406C1077.38 160.084 1091.1 165.145 1104.25 171.321C1127.2 182.138 1136.22 191.274 1149.87 214.077Z" fill="black"/>
<path d="M1351.39 768.928C1361.69 762.186 1372.27 767.138 1372.78 777.645C1372.96 781.409 1371.96 785.556 1370.42 789.046C1353.1 828.495 1335.64 867.871 1318.03 907.192C1315.35 913.185 1312.79 919.58 1304.79 920.914C1303.18 921.188 1301.92 923.782 1300.62 925.408C1297.59 929.191 1295 933.411 1291.55 936.755C1288.57 939.642 1284.92 942.146 1281.12 943.754C1275.25 946.239 1270.81 943.662 1269.92 937.249C1269.39 933.466 1269.81 929.355 1270.74 925.61C1271.6 922.156 1273.33 918.776 1275.27 915.743C1300.97 875.417 1320.35 831.894 1340.43 788.681C1342.47 784.277 1344.24 779.727 1346.56 775.47C1348.12 772.656 1350.42 770.208 1351.39 768.928Z" fill="black"/>
<path d="M6.82213 763.588C-6.95085 744.384 -1.12389 705.849 35.8659 703.346C46.5153 702.615 55.5025 706.105 62.8457 713.761C74.8833 726.295 80.3084 749.501 67.0469 764.246C64.6905 766.859 64.3802 771.409 63.4121 775.136C61.6402 781.933 60.0508 782.627 53.42 779.722C51.7212 778.973 49.4379 778.863 47.593 779.265C29.6004 783.34 16.7226 778.443 6.82213 763.588Z" fill="black"/>
<path d="M352.134 1282.51C349.047 1275.57 347.604 1269.25 349.979 1262.43C353.468 1252.42 363.88 1248.82 372.848 1254.54C374.62 1255.65 376.465 1257.01 377.598 1258.71C387.9 1273.98 403.682 1281.89 419.246 1290.13C421.931 1291.56 424.853 1292.6 427.283 1294.35C432.416 1298.08 431.612 1304.07 425.73 1306.38C423.812 1307.13 421.584 1307.4 419.501 1307.33C402.057 1306.6 385.014 1303.71 369.561 1295.19C363.332 1291.74 357.925 1286.79 352.134 1282.51Z" fill="black"/>
<path d="M1345.82 430.369C1341.87 419.607 1344.66 408.79 1337.91 400.202C1335.55 400.823 1333.03 401.627 1330.45 402.157C1324.48 403.345 1319.04 402.176 1314.45 397.991C1305.48 389.805 1305.9 370.693 1315.18 362.818C1323.07 356.131 1333.28 357.976 1339.04 367.495C1346.05 379.08 1349.43 391.98 1350.49 405.318C1351 411.805 1349.65 418.474 1348.94 425.034C1348.79 426.258 1347.59 427.391 1345.82 430.369Z" fill="black"/>
<path d="M151.92 224.527C151.719 222.608 150.897 219.319 151.189 216.121C151.609 211.334 155.5 207.808 159.482 207.972C163.939 208.155 165.656 211.225 166.515 215.062C166.99 217.127 167.739 219.173 167.921 221.256C168.305 225.586 165.693 229.35 161.839 230.246C157.692 231.196 154.916 229.095 151.92 224.527Z" fill="black"/>
<path d="M506.406 758.753L500.983 888.107L571.877 806.638L506.406 758.753Z" fill="white"/>
<path d="M892.462 360.185C779.329 403.092 414.208 546.532 276.007 600.878C257.758 608.054 259.012 632.779 277.88 638.324L436.361 684.927L791.66 481.897C793.833 480.665 796.059 483.395 794.222 485.044L522.571 728.433C522.571 728.433 689.585 843.718 768.818 898.163C788.338 911.566 816.021 901.26 820.473 878.883C843.245 764.614 900.182 478.916 919.632 381.248C922.583 366.546 907.178 354.591 892.462 360.185Z" fill="white"/>
</svg>
