<svg width="2494" height="2497" viewBox="0 0 2494 2497" fill="none" xmlns="http://www.w3.org/2000/svg">
<line x1="233.5" y1="264.83" x2="233.5" y2="2364.83" stroke="#ADADAD" stroke-width="207"/>
<line x1="130" y1="2261.33" x2="2230" y2="2261.33" stroke="#ADADAD" stroke-width="207"/>
<line x1="2143.71" y1="2242.07" x2="253.71" y2="351.074" stroke="#ADADAD" stroke-width="244"/>
<line y1="-5" x2="138.374" y2="-5" transform="matrix(-0.693544 0.720414 -0.689915 -0.72389 433.314 365.037)" stroke="black" stroke-width="10"/>
<line y1="-5" x2="138.374" y2="-5" transform="matrix(-0.693544 0.720414 -0.689915 -0.72389 530.845 463.115)" stroke="black" stroke-width="10"/>
<line y1="-5" x2="138.374" y2="-5" transform="matrix(-0.693544 0.720414 -0.689915 -0.72389 628.883 561.686)" stroke="black" stroke-width="10"/>
<line y1="-5" x2="138.374" y2="-5" transform="matrix(-0.693544 0.720414 -0.689915 -0.72389 726.754 654.359)" stroke="black" stroke-width="10"/>
<line y1="-5" x2="138.374" y2="-5" transform="matrix(-0.693544 0.720414 -0.689915 -0.72389 824.792 752.93)" stroke="black" stroke-width="10"/>
<line y1="-5" x2="138.374" y2="-5" transform="matrix(-0.693544 0.720414 -0.689915 -0.72389 922.771 851.475)" stroke="black" stroke-width="10"/>
<line y1="-5" x2="138.374" y2="-5" transform="matrix(-0.693544 0.720414 -0.689915 -0.72389 1020.81 950.043)" stroke="black" stroke-width="10"/>
<line y1="-5" x2="138.374" y2="-5" transform="matrix(-0.693544 0.720414 -0.689915 -0.72389 1118.34 1048.12)" stroke="black" stroke-width="10"/>
<line y1="-5" x2="138.374" y2="-5" transform="matrix(-0.693544 0.720414 -0.689915 -0.72389 1216.38 1146.69)" stroke="black" stroke-width="10"/>
<line y1="-5" x2="138.374" y2="-5" transform="matrix(-0.693544 0.720414 -0.689915 -0.72389 1313.85 1244.74)" stroke="black" stroke-width="10"/>
<line y1="-5" x2="138.374" y2="-5" transform="matrix(-0.693544 0.720414 -0.689915 -0.72389 1411.89 1343.31)" stroke="black" stroke-width="10"/>
<line y1="-5" x2="138.374" y2="-5" transform="matrix(-0.693544 0.720414 -0.689915 -0.72389 1509.41 1441.37)" stroke="black" stroke-width="10"/>
<line y1="-5" x2="138.374" y2="-5" transform="matrix(-0.693544 0.720414 -0.689915 -0.72389 1607.39 1539.91)" stroke="black" stroke-width="10"/>
<line y1="-5" x2="138.374" y2="-5" transform="matrix(-0.693544 0.720414 -0.689915 -0.72389 1704.92 1637.99)" stroke="black" stroke-width="10"/>
<line y1="-5" x2="138.374" y2="-5" transform="matrix(-0.693544 0.720414 -0.689915 -0.72389 1802.46 1736.06)" stroke="black" stroke-width="10"/>
<line y1="-5" x2="138.374" y2="-5" transform="matrix(-0.693544 0.720414 -0.689915 -0.72389 1899.99 1834.14)" stroke="black" stroke-width="10"/>
<line y1="-5" x2="138.374" y2="-5" transform="matrix(-0.693544 0.720414 -0.689915 -0.72389 1997.52 1932.22)" stroke="black" stroke-width="10"/>
<line y1="-5" x2="138.374" y2="-5" transform="matrix(-0.693544 0.720414 -0.689915 -0.72389 2095.05 2030.29)" stroke="black" stroke-width="10"/>
<path d="M130.116 282.749L132.008 55.497L357.376 282.251L130.116 282.749Z" fill="#ADADAD"/>
<path d="M130.116 282.749L132.008 55.497L357.376 282.251L130.116 282.749Z" fill="#ADADAD"/>
<path d="M130.116 282.749L132.008 55.497L357.376 282.251L130.116 282.749Z" fill="#ADADAD"/>
<path d="M130.116 282.749L132.008 55.497L357.376 282.251L130.116 282.749Z" fill="#ADADAD"/>
<path d="M130.116 282.749L132.008 55.497L357.376 282.251L130.116 282.749Z" fill="#ADADAD"/>
<path d="M2211.12 2365.58L2213.01 2138.33L2438.38 2365.09L2211.12 2365.58Z" fill="#ADADAD"/>
<path d="M2211.12 2365.58L2213.01 2138.33L2438.38 2365.09L2211.12 2365.58Z" fill="#ADADAD"/>
<path d="M2211.12 2365.58L2213.01 2138.33L2438.38 2365.09L2211.12 2365.58Z" fill="#ADADAD"/>
<path d="M2211.12 2365.58L2213.01 2138.33L2438.38 2365.09L2211.12 2365.58Z" fill="#ADADAD"/>
<path d="M2211.12 2365.58L2213.01 2138.33L2438.38 2365.09L2211.12 2365.58Z" fill="#ADADAD"/>
</svg>
